<svg width="102" height="77" viewBox="0 0 102 77" fill="none" xmlns="http://www.w3.org/2000/svg">
<path d="M25.2076 76H6.03018C3.25211 76 1 73.7479 1 70.9698V6.03018C1 3.25211 3.25211 1 6.03018 1H95.9698C98.7479 1 101 3.25211 101 6.03018V70.9698C101 73.7479 98.7479 76 95.9698 76H32.2499" stroke="black" stroke-width="2" stroke-miterlimit="10" stroke-linecap="round" stroke-linejoin="round"/>
<path d="M14.1665 7.2501H8.25604C7.98922 7.2501 7.73333 7.35609 7.54466 7.54476C7.35599 7.73343 7.25 7.98932 7.25 8.25614V51.0002M94.7502 51V8.25614C94.7502 7.98932 94.6442 7.73343 94.4555 7.54476C94.2669 7.35609 94.011 7.2501 93.7442 7.2501H21.2088" stroke="black" stroke-width="2" stroke-miterlimit="10" stroke-linecap="round" stroke-linejoin="round"/>
<path d="M83.5512 39.8012L81.2593 37.5093C80.0806 36.3306 78.1697 36.3306 76.991 37.5093L51.0001 63.5M57.25 69.7499H93.744C94.0108 69.7499 94.2667 69.6439 94.4553 69.4552C94.644 69.2666 94.75 69.0107 94.75 68.7439V50.9998L88.5001 44.7499M57.25 69.7499L8.25604 69.7501C7.98922 69.7501 7.73333 69.6441 7.54466 69.4554C7.35599 69.2668 7.25 69.0109 7.25 68.7441V51L20.7409 37.509C21.9196 36.3304 23.8305 36.3304 25.0092 37.509L57.25 69.7499Z" stroke="black" stroke-width="2" stroke-miterlimit="10" stroke-linecap="round" stroke-linejoin="round"/>
<path d="M82.2499 25.9998C85.7016 25.9998 88.4998 23.2016 88.4998 19.7499C88.4998 16.2982 85.7016 13.5 82.2499 13.5C78.7982 13.5 76 16.2982 76 19.7499C76 23.2016 78.7982 25.9998 82.2499 25.9998Z" stroke="black" stroke-width="2" stroke-miterlimit="10" stroke-linecap="round" stroke-linejoin="round"/>
<path d="M34.3111 46.8111L30.537 56.7203C29.5541 59.301 30.8495 62.1897 33.43 63.1726C36.0107 64.1557 38.8994 62.8602 39.8823 60.2797L42.0606 54.5606M59.9539 54.5461L62.1123 60.2654C62.868 62.2676 64.7704 63.5014 66.7912 63.5014C67.3941 63.5011 67.9919 63.3916 68.5557 63.1781C71.1395 62.203 72.4433 59.3183 71.4684 56.7348L67.7139 46.7863" stroke="black" stroke-width="2" stroke-miterlimit="10" stroke-linecap="round" stroke-linejoin="round"/>
<path d="M67.7138 46.7861L56.5848 17.2964C55.717 14.9926 53.5126 13.5 51.0685 13.5H51.0627C48.6563 13.5024 46.5126 14.9431 45.6015 17.1702C45.586 17.2078 45.5712 17.2459 45.5567 17.2837L34.3108 46.8109M42.0603 54.5604L42.273 54.002C42.3093 53.9068 42.3736 53.8248 42.4576 53.7669C42.5415 53.7091 42.641 53.6781 42.743 53.6781H59.2784C59.3806 53.6781 59.4804 53.7092 59.5645 53.7673C59.6486 53.8254 59.7129 53.9078 59.749 54.0034L59.9539 54.5461M55.1251 43.6781H46.9347C46.8532 43.6781 46.773 43.6583 46.7008 43.6203C46.6287 43.5824 46.5668 43.5276 46.5206 43.4605C46.4743 43.3934 46.4451 43.316 46.4354 43.2351C46.4256 43.1542 46.4357 43.0721 46.4647 42.996L50.5786 32.1944C50.7434 31.7618 51.3559 31.7626 51.5192 32.1958L55.5955 42.9974C55.6243 43.0735 55.6342 43.1555 55.6243 43.2362C55.6144 43.317 55.5851 43.3942 55.5388 43.4611C55.4926 43.5281 55.4308 43.5828 55.3587 43.6206C55.2866 43.6584 55.2065 43.6781 55.1251 43.6781Z" stroke="black" stroke-width="2" stroke-miterlimit="10" stroke-linecap="round" stroke-linejoin="round"/>
</svg>
