<svg width="100" height="100" viewBox="0 0 100 100" fill="none" xmlns="http://www.w3.org/2000/svg">
<path d="M20.0004 30.0006C21.9783 30.0006 23.9117 29.4141 25.5562 28.3152C27.2008 27.2164 28.4825 25.6546 29.2394 23.8273C29.9963 22 30.1943 19.9893 29.8085 18.0494C29.4226 16.1096 28.4702 14.3277 27.0716 12.9292C25.6731 11.5306 23.8912 10.5782 21.9514 10.1923C20.0115 9.80648 18.0008 10.0045 16.1735 10.7614C14.3462 11.5183 12.7844 12.8 11.6856 14.4446C10.5867 16.0891 10.0002 18.0225 10.0002 20.0004C10.0029 22.6518 11.0573 25.1938 12.9322 27.0687C14.807 28.9435 17.349 29.9979 20.0004 30.0006ZM20.0004 13.3336C21.319 13.3336 22.608 13.7246 23.7043 14.4571C24.8006 15.1897 25.6551 16.2309 26.1597 17.4491C26.6643 18.6673 26.7964 20.0078 26.5391 21.301C26.2819 22.5942 25.6469 23.7821 24.7146 24.7145C23.7822 25.6469 22.5943 26.2818 21.3011 26.5391C20.0078 26.7963 18.6674 26.6643 17.4492 26.1597C16.231 25.6551 15.1898 24.8006 14.4572 23.7042C13.7246 22.6079 13.3336 21.3189 13.3336 20.0004C13.3336 18.2322 14.036 16.5365 15.2863 15.2862C16.5366 14.036 18.2323 13.3336 20.0004 13.3336Z" fill="black"/>
<path d="M86.6683 58.3344V10.0002C86.6656 7.34878 85.6112 4.80674 83.7364 2.93191C81.8615 1.05709 79.3195 0.00264743 76.6681 0L10.0002 0C7.34878 0.00264743 4.80674 1.05709 2.93191 2.93191C1.05709 4.80674 0.00264743 7.34878 0 10.0002L0 73.3347C0.00264743 75.9861 1.05709 78.5281 2.93191 80.403C4.80674 82.2778 7.34878 83.3322 10.0002 83.3349H57.2727C58.1296 86.9404 59.8973 90.2656 62.4068 92.9926C64.9163 95.7195 68.0835 97.7569 71.6055 98.9098C75.1275 100.063 78.8864 100.292 82.5227 99.5772C86.1589 98.862 89.5507 97.2257 92.3737 94.8248C95.1967 92.4239 97.3564 89.3387 98.6461 85.8645C99.9359 82.3903 100.313 78.6432 99.74 74.9818C99.1676 71.3204 97.6651 67.8671 95.3764 64.9524C93.0877 62.0377 90.0894 59.759 86.6683 58.3344ZM78.3348 56.6677C75.1748 56.6681 72.0533 57.3611 69.1901 58.6981C66.3269 60.0351 63.7917 61.9836 61.7628 64.4062L46.5242 49.1676L65.4895 30.2022C65.8021 29.8898 66.226 29.7142 66.6679 29.7142C67.1099 29.7142 67.5337 29.8898 67.8463 30.2022L83.3349 45.6908V57.2727C81.6975 56.8768 80.0194 56.6737 78.3348 56.6677ZM10.0002 3.3334H76.6681C78.4362 3.3334 80.132 4.03579 81.3822 5.28605C82.6325 6.53632 83.3349 8.23204 83.3349 10.0002V40.9774L70.203 27.8455C69.2505 26.9365 67.9845 26.4293 66.6679 26.4293C65.3513 26.4293 64.0853 26.9365 63.1328 27.8455L44.1675 46.8109L36.8624 39.5007C35.9252 38.5674 34.6565 38.0434 33.334 38.0434C32.0114 38.0434 30.7427 38.5674 29.8056 39.5007L3.3334 65.9779V10.0002C3.3334 8.23204 4.03579 6.53632 5.28605 5.28605C6.53632 4.03579 8.23204 3.3334 10.0002 3.3334ZM10.0002 80.0015C8.23204 80.0015 6.53632 79.2991 5.28605 78.0488C4.03579 76.7986 3.3334 75.1028 3.3334 73.3347V70.6913L32.1673 41.8574C32.4793 41.549 32.9003 41.3761 33.339 41.3761C33.7776 41.3761 34.1986 41.549 34.5106 41.8574L59.8061 67.1679C57.7567 70.5324 56.671 74.3953 56.6677 78.3348C56.6677 78.8981 56.7094 79.4498 56.7527 80.0015H10.0002ZM78.3348 96.6685C74.7087 96.6685 71.1641 95.5932 68.1491 93.5787C65.1342 91.5641 62.7843 88.7008 61.3967 85.3508C60.0091 82.0007 59.646 78.3145 60.3534 74.7581C61.0608 71.2017 62.8069 67.9349 65.3709 65.3709C67.9349 62.8069 71.2017 61.0608 74.7581 60.3534C78.3145 59.646 82.0007 60.0091 85.3508 61.3967C88.7008 62.7843 91.5641 65.1342 93.5787 68.1491C95.5932 71.1641 96.6685 74.7087 96.6685 78.3348C96.6627 83.1954 94.7293 87.8553 91.2923 91.2923C87.8553 94.7293 83.1954 96.6627 78.3348 96.6685Z" fill="black"/>
<path d="M86.6683 73.3347H83.3349V70.0013C83.3349 68.6752 82.8081 67.4034 81.8704 66.4657C80.9327 65.528 79.6609 65.0012 78.3348 65.0012C77.0087 65.0012 75.7369 65.528 74.7992 66.4657C73.8615 67.4034 73.3347 68.6752 73.3347 70.0013V73.3347H70.0013C68.6752 73.3347 67.4034 73.8615 66.4657 74.7992C65.528 75.7369 65.0012 77.0087 65.0012 78.3348C65.0012 79.6609 65.528 80.9327 66.4657 81.8704C67.4034 82.8081 68.6752 83.3349 70.0013 83.3349H73.3347V86.6683C73.3347 87.9944 73.8615 89.2662 74.7992 90.2039C75.7369 91.1416 77.0087 91.6684 78.3348 91.6684C79.6609 91.6684 80.9327 91.1416 81.8704 90.2039C82.8081 89.2662 83.3349 87.9944 83.3349 86.6683V83.3349H86.6683C87.9944 83.3349 89.2662 82.8081 90.2039 81.8704C91.1416 80.9327 91.6684 79.6609 91.6684 78.3348C91.6684 77.0087 91.1416 75.7369 90.2039 74.7992C89.2662 73.8615 87.9944 73.3347 86.6683 73.3347ZM86.6683 80.0015H81.6682C81.2262 80.0015 80.8022 80.1771 80.4897 80.4896C80.1771 80.8022 80.0015 81.2261 80.0015 81.6682V86.6683C80.0015 87.1103 79.8259 87.5342 79.5133 87.8468C79.2008 88.1594 78.7768 88.335 78.3348 88.335C77.8928 88.335 77.4688 88.1594 77.1563 87.8468C76.8437 87.5342 76.6681 87.1103 76.6681 86.6683V81.6682C76.6681 81.2261 76.4925 80.8022 76.1799 80.4896C75.8674 80.1771 75.4434 80.0015 75.0014 80.0015H70.0013C69.5593 80.0015 69.1353 79.8259 68.8228 79.5133C68.5102 79.2008 68.3346 78.7768 68.3346 78.3348C68.3346 77.8928 68.5102 77.4688 68.8228 77.1563C69.1353 76.8437 69.5593 76.6681 70.0013 76.6681H75.0014C75.4434 76.6681 75.8674 76.4925 76.1799 76.1799C76.4925 75.8674 76.6681 75.4434 76.6681 75.0014V70.0013C76.6681 69.5593 76.8437 69.1353 77.1563 68.8228C77.4688 68.5102 77.8928 68.3346 78.3348 68.3346C78.7768 68.3346 79.2008 68.5102 79.5133 68.8228C79.8259 69.1353 80.0015 69.5593 80.0015 70.0013V75.0014C80.0015 75.4434 80.1771 75.8674 80.4897 76.1799C80.8022 76.4925 81.2262 76.6681 81.6682 76.6681H86.6683C87.1103 76.6681 87.5343 76.8437 87.8468 77.1563C88.1594 77.4688 88.335 77.8928 88.335 78.3348C88.335 78.7768 88.1594 79.2008 87.8468 79.5133C87.5343 79.8259 87.1103 80.0015 86.6683 80.0015Z" fill="black"/>
</svg>
