<svg width="100" height="104" viewBox="0 0 100 104" fill="none" xmlns="http://www.w3.org/2000/svg">
<path d="M94.8276 24.1119H67.9308C67.4736 24.1119 67.035 24.2936 66.7117 24.6169C66.3884 24.9402 66.2067 25.3788 66.2067 25.836C66.2067 26.2933 66.3884 26.7318 66.7117 27.0551C67.035 27.3784 67.4736 27.5601 67.9308 27.5601H94.8276C95.778 27.5601 96.5517 28.3337 96.5517 29.2842V37.9049H68.8796C68.4224 37.9049 67.9838 38.0866 67.6605 38.4099C67.3372 38.7332 67.1556 39.1717 67.1556 39.629C67.1556 40.0862 67.3372 40.5248 67.6605 40.8481C67.9838 41.1714 68.4224 41.3531 68.8796 41.3531H96.5517V98.2496C96.5517 99.2001 95.778 99.9737 94.8276 99.9737H5.17242C4.22199 99.9737 3.44835 99.2001 3.44835 98.2496V41.3531H31.1204C31.5776 41.3531 32.0162 41.1714 32.3395 40.8481C32.6628 40.5248 32.8444 40.0862 32.8444 39.629C32.8444 39.1717 32.6628 38.7332 32.3395 38.4099C32.0162 38.0866 31.5776 37.9049 31.1204 37.9049H3.44814V29.2842C3.44814 28.3337 4.22178 27.5601 5.17222 27.5601H32.0692C32.5264 27.5601 32.965 27.3784 33.2883 27.0551C33.6116 26.7318 33.7933 26.2933 33.7933 25.836C33.7933 25.3788 33.6116 24.9402 33.2883 24.6169C32.965 24.2936 32.5264 24.1119 32.0692 24.1119H5.17242C2.32011 24.1119 0 26.4321 0 29.2844V98.2498C0 101.102 2.32011 103.422 5.17242 103.422H94.8276C97.6799 103.422 100 101.102 100 98.2498V29.2844C100 26.4321 97.6799 24.1119 94.8276 24.1119Z" fill="black"/>
<path d="M7.39655 31.5085C7.0858 31.836 6.89648 32.267 6.89648 32.7325C6.89648 33.198 7.0858 33.6292 7.39655 33.9565C7.72407 34.2663 8.15504 34.4566 8.62056 34.4566C9.0685 34.4566 9.51724 34.2663 9.84456 33.9565C10.1543 33.629 10.3446 33.1802 10.3446 32.7325C10.3446 32.2838 10.1543 31.8358 9.84456 31.5085C9.18892 30.8704 8.03381 30.8704 7.39655 31.5085ZM14.293 31.5085C13.9823 31.836 13.793 32.284 13.793 32.7325C13.793 33.1805 13.9825 33.6292 14.293 33.9565C14.6206 34.2663 15.0685 34.4566 15.517 34.4566C15.965 34.4566 16.4137 34.2663 16.741 33.9565C17.0508 33.629 17.2411 33.1802 17.2411 32.7325C17.2411 32.2838 17.0508 31.8358 16.741 31.5085C16.0854 30.8704 14.9305 30.8704 14.293 31.5085ZM21.1897 31.5085C20.879 31.836 20.6897 32.284 20.6897 32.7325C20.6897 33.198 20.879 33.6292 21.1897 33.9389C21.5173 34.2665 21.9482 34.4568 22.4137 34.4568C22.8793 34.4568 23.3104 34.2665 23.6377 33.9567C23.9475 33.6292 24.1378 33.1982 24.1378 32.7327C24.1378 32.284 23.9475 31.836 23.6377 31.5087C22.9997 30.8704 21.827 30.8704 21.1897 31.5085ZM24.468 59.3044C24.2964 59.5403 24.1875 59.8159 24.1513 60.1053C24.1151 60.3947 24.1528 60.6886 24.2609 60.9596L27.7092 69.5803C27.805 69.8192 27.953 70.0335 28.1424 70.2078C28.3317 70.382 28.5577 70.5116 28.8037 70.5871C29.0496 70.6629 29.3093 70.6826 29.5638 70.6449C29.8183 70.6071 30.0611 70.5129 30.2744 70.3691L39.9012 63.8789C40.3772 65.2226 40.887 66.5542 41.43 67.8722C41.4311 67.8746 41.4333 67.8763 41.4343 67.8787C41.5211 68.0874 41.6482 68.2771 41.8083 68.4367C41.8826 68.5107 41.979 68.5509 42.0647 68.6095C42.1623 68.6768 42.2487 68.759 42.3595 68.8055C42.5682 68.8925 42.792 68.9377 43.0181 68.9384C43.0204 68.9384 43.0222 68.9396 43.0246 68.9396H43.7621L41.5614 73.3408C41.43 73.6037 41.368 73.8958 41.3813 74.1894C41.3945 74.483 41.4826 74.7683 41.6371 75.0183C41.7916 75.2683 42.0074 75.4746 42.2641 75.6178C42.5207 75.7609 42.8097 75.8361 43.1036 75.8361H56.8968C57.1907 75.8361 57.4797 75.7609 57.7363 75.6178C57.993 75.4746 58.2088 75.2683 58.3633 75.0183C58.5178 74.7683 58.6059 74.483 58.6191 74.1894C58.6324 73.8958 58.5704 73.6037 58.439 73.3408L56.2383 68.9396H56.4656C56.5545 68.9396 56.6311 68.9021 56.7164 68.8889C56.803 68.9023 56.8887 68.9404 56.975 68.9404C57.3168 68.9404 57.6509 68.8388 57.935 68.6486C58.219 68.4584 58.4401 68.1881 58.5703 67.872C59.1133 66.554 59.6232 65.2225 60.0994 63.8789L69.7258 70.3689C69.9391 70.5127 70.1819 70.6069 70.4364 70.6447C70.6909 70.6824 70.9506 70.6627 71.1965 70.5869C71.4425 70.5113 71.6684 70.3817 71.8578 70.2075C72.0472 70.0333 72.1952 69.8189 72.291 69.5801L75.7393 60.9594C75.8474 60.6884 75.8851 60.3945 75.8489 60.1051C75.8127 59.8157 75.7038 59.5401 75.5322 59.3042L64.9672 44.7798C65.8534 37.834 65.798 29.8699 63.3807 21.6949C61.1287 14.0843 57.0582 6.96822 51.2821 0.545528C50.6271 -0.181843 49.3727 -0.181843 48.7177 0.545528C42.9399 6.97064 38.8695 14.087 36.6193 21.6949C34.2018 29.8699 34.1466 37.8342 35.0328 44.7798L24.468 59.3044ZM45.8933 72.3878L47.6174 68.9394H52.3822L54.1063 72.3878H45.8933ZM64.1968 49.5831L72.1831 60.5629L69.8824 66.3154L61.2651 60.5062C62.2414 57.5751 63.3552 53.8554 64.1968 49.5831ZM39.9262 22.6732C41.86 16.1343 45.2451 9.96943 49.9999 4.32382C54.7531 9.96761 58.1382 16.1327 60.0736 22.6732C62.4226 30.6157 62.4226 38.2771 61.5008 44.9582C61.4952 44.9897 61.4922 45.0198 61.4881 45.0516C60.449 52.5017 58.2657 58.7225 56.8661 62.6794C56.5323 63.6233 56.1806 64.5607 55.8112 65.4913H44.1886C43.819 64.5605 43.4673 63.6228 43.1337 62.6786C41.7341 58.7221 39.5508 52.5017 38.5117 45.0516C38.5076 45.0198 38.5048 44.9899 38.4991 44.9584C37.5772 38.2771 37.5772 30.6157 39.9262 22.6732ZM38.7349 60.506L30.1176 66.3154L27.8167 60.5629L35.803 49.5831C36.6448 53.8552 37.7588 57.5751 38.7349 60.506ZM48.2758 84.4567V89.6291C48.2758 90.0864 48.4575 90.5249 48.7808 90.8482C49.1041 91.1715 49.5426 91.3532 49.9999 91.3532C50.4571 91.3532 50.8957 91.1715 51.219 90.8482C51.5423 90.5249 51.724 90.0864 51.724 89.6291V84.4567C51.724 83.9994 51.5423 83.5609 51.219 83.2376C50.8957 82.9143 50.4571 82.7326 49.9999 82.7326C49.5426 82.7326 49.1041 82.9143 48.7808 83.2376C48.4575 83.5609 48.2758 83.9994 48.2758 84.4567ZM41.3793 81.0085V86.181C41.3793 86.6382 41.561 87.0767 41.8843 87.4001C42.2076 87.7234 42.6462 87.905 43.1034 87.905C43.5607 87.905 43.9992 87.7234 44.3225 87.4001C44.6458 87.0767 44.8275 86.6382 44.8275 86.181V81.0085C44.8275 80.5513 44.6458 80.1128 44.3225 79.7894C43.9992 79.4661 43.5607 79.2845 43.1034 79.2845C42.6462 79.2845 42.2076 79.4661 41.8843 79.7894C41.561 80.1128 41.3793 80.5513 41.3793 81.0085ZM56.8966 79.2843C56.4393 79.2843 56.0008 79.4659 55.6775 79.7892C55.3542 80.1126 55.1725 80.5511 55.1725 81.0083V86.1808C55.1725 86.638 55.3542 87.0765 55.6775 87.3999C56.0008 87.7232 56.4393 87.9048 56.8966 87.9048C57.3538 87.9048 57.7924 87.7232 58.1157 87.3999C58.439 87.0765 58.6207 86.638 58.6207 86.1808V81.0083C58.6206 80.5511 58.4389 80.1126 58.1156 79.7893C57.7923 79.466 57.3538 79.2843 56.8966 79.2843Z" fill="black"/>
<path d="M49.9999 39.6292C54.7531 39.6292 58.6207 35.7616 58.6207 31.0085C58.6207 26.2553 54.7531 22.3877 49.9999 22.3877C45.2467 22.3877 41.3792 26.2553 41.3792 31.0085C41.3794 35.7616 45.2467 39.6292 49.9999 39.6292ZM49.9999 25.836C52.8522 25.836 55.1723 28.1562 55.1723 31.0085C55.1723 33.8608 52.8522 36.1809 49.9999 36.1809C47.1476 36.1809 44.8275 33.8608 44.8275 31.0085C44.8275 28.1562 47.1478 25.836 49.9999 25.836Z" fill="black"/>
</svg>
