<svg width="100" height="107" viewBox="0 0 100 107" fill="none" xmlns="http://www.w3.org/2000/svg">
<path d="M68.6329 41.1804L61.2536 48.5555V48.5576C57.7951 60.1584 47.0279 68.6407 34.3178 68.6407C26.8711 68.6407 20.1273 65.7406 15.1134 61.0336L34.4269 41.7201L44.6578 51.9512C45.8717 53.1651 47.8407 53.1658 49.0553 51.952L77.9575 23.0693L81.9584 27.0703C83.9132 29.0254 87.2651 27.6368 87.2678 24.8742L87.2885 3.11364C87.2889 2.70451 87.2086 2.29932 87.0522 1.92129C86.8957 1.54326 86.6662 1.19981 86.3768 0.910628C85.3795 -0.0858569 84.1966 0.0051662 84.1734 0.000397334L62.4284 0.0366822C59.6649 0.0410363 58.282 3.39334 60.2343 5.34588L64.179 9.29056L46.761 26.7085L36.3703 16.3176C35.1565 15.1038 33.1864 15.103 31.972 16.3176L6.25845 42.0309C5.07909 19.6463 29.3319 5.11366 48.4274 16.2456L52.9558 11.7173C30.8417 -2.61232 0.837085 12.6113 0.0151822 39.4781C-0.556252 58.9396 15.0777 74.8608 34.3178 74.8608C53.0284 74.861 68.2929 59.81 68.6329 41.1804ZM99.0894 92.0531L68.8278 61.7916C65.5122 67.1527 61.001 71.6739 55.6473 75.0013L85.8941 105.248C87.1083 106.462 89.0776 106.463 90.2925 105.248L99.0894 96.4513C100.303 95.2377 100.304 93.2673 99.0894 92.0531Z" fill="black"/>
</svg>
