<svg width="100" height="100" viewBox="0 0 100 100" fill="none" xmlns="http://www.w3.org/2000/svg">
<path d="M43.6798 65.0303H43.6173C31.8081 65.0303 22.2051 55.4242 22.2051 43.6181C22.2051 31.812 31.8081 22.2059 43.6173 22.2059C55.4265 22.2059 65.0295 31.8089 65.0295 43.6181C65.0295 44.2493 64.7788 44.8545 64.3325 45.3008C63.8862 45.7471 63.2809 45.9978 62.6498 45.9978C62.0187 45.9978 61.4134 45.7471 60.9671 45.3008C60.5209 44.8545 60.2702 44.2493 60.2702 43.6181C60.2702 34.4339 52.8015 26.9621 43.6141 26.9621C34.4268 26.9621 26.9613 34.4339 26.9613 43.6181C26.9613 52.8024 34.4299 60.2741 43.6173 60.2741C44.9298 60.2741 46.0266 61.3366 46.0266 62.6491C46.0266 63.9616 44.9954 65.0303 43.6798 65.0303Z" fill="black"/>
<path d="M43.6806 87.2331H37.7182C37.155 87.2334 36.6101 87.0337 36.1803 86.6698C35.7505 86.3058 35.4639 85.8012 35.3714 85.2457L34.0026 77.0208C31.5027 76.2895 29.0933 75.2833 26.809 74.0177L20.006 78.8926C19.5473 79.2206 18.9871 79.3751 18.4252 79.3288C17.8633 79.2824 17.336 79.0382 16.9373 78.6395L8.59363 70.2959C8.19542 69.8968 7.95174 69.3693 7.90596 68.8074C7.86018 68.2454 8.01527 67.6855 8.34363 67.2272L13.2186 60.4241C11.9533 58.1453 10.9461 55.7325 10.2155 53.2305L1.98748 51.868C1.43142 51.7754 0.926343 51.4883 0.562323 51.0579C0.198302 50.6275 -0.000986042 50.0817 3.66867e-06 49.518V37.7182C3.66867e-06 36.5557 0.843742 35.562 1.98748 35.3714L10.2155 34.0026C10.9436 31.5027 11.9498 29.0933 13.2154 26.809L8.34363 20.0091C8.01527 19.5508 7.86018 18.9908 7.90596 18.4289C7.95174 17.867 8.19542 17.3395 8.59363 16.9404L16.9373 8.59675C17.3373 8.20022 17.8646 7.95771 18.426 7.91197C18.9874 7.86623 19.547 8.02021 20.006 8.34676L26.8121 13.2154C29.0933 11.9498 31.5058 10.9405 34.0058 10.2124L35.3745 1.9906C35.4662 1.43503 35.7522 0.93005 36.1813 0.565532C36.6105 0.201015 37.1551 0.00061386 37.7182 0H49.5212C50.6837 0 51.6774 0.843738 51.8649 1.9906L53.2336 10.2155C55.7336 10.9436 58.1429 11.953 60.4273 13.2186L67.2303 8.34363C67.689 8.01567 68.2491 7.86111 68.8111 7.90746C69.373 7.95381 69.9003 8.19807 70.299 8.59675L78.6426 16.9404C79.0408 17.3395 79.2845 17.867 79.3303 18.4289C79.3761 18.9908 79.221 19.5508 78.8926 20.0091L74.0177 26.809C75.2864 29.0933 76.2927 31.5027 77.0208 34.0026L85.2488 35.3714C85.8038 35.4638 86.308 35.75 86.6719 36.1791C87.0358 36.6082 87.2358 37.1525 87.2363 37.7151V43.6181C87.2363 44.2488 86.9857 44.8537 86.5397 45.2997C86.0938 45.7457 85.4889 45.9962 84.8582 45.9962C84.2275 45.9962 83.6226 45.7457 83.1766 45.2997C82.7306 44.8537 82.4801 44.2488 82.4801 43.6181V39.7338L74.7302 38.4463C74.27 38.3704 73.8424 38.1608 73.5007 37.8435C73.1589 37.5261 72.9181 37.1152 72.8083 36.662C72.0563 33.5765 70.8246 30.6282 69.1584 27.9246C68.9136 27.5254 68.7919 27.0629 68.8085 26.5949C68.8252 26.1268 68.9795 25.6742 69.2521 25.2934L73.8458 18.8779L68.3615 13.3904L61.946 17.9841C61.5646 18.2566 61.1114 18.4108 60.6429 18.4275C60.1745 18.4442 59.7115 18.3226 59.3117 18.0779C56.609 16.4119 53.6618 15.1803 50.5774 14.4279C50.1246 14.3184 49.714 14.0781 49.3967 13.7369C49.0794 13.3957 48.8695 12.9688 48.7931 12.5092L47.5025 4.75931H39.7369L38.4495 12.5092C38.373 12.9688 38.1631 13.3957 37.8458 13.7369C37.5285 14.0781 37.1179 14.3184 36.6651 14.4279C33.5796 15.18 30.6313 16.4116 27.9277 18.0779C27.5278 18.3222 27.0648 18.4436 26.5965 18.4269C26.1281 18.4102 25.675 18.2563 25.2934 17.9841L18.8747 13.3936L13.3873 18.8779L17.9841 25.2934C18.5435 26.0715 18.5779 27.109 18.0779 27.9246C16.4116 30.6282 15.18 33.5765 14.4279 36.662C14.3176 37.1147 14.0766 37.5249 13.7349 37.8416C13.3932 38.1583 12.9658 38.3675 12.5061 38.4432L4.75619 39.7338V47.4993L12.5061 48.7899C13.4467 48.9462 14.2029 49.6462 14.4279 50.5712C15.1779 53.6555 16.406 56.5929 18.0779 59.3085C18.5779 60.1273 18.5435 61.1647 17.9841 61.9429L13.3904 68.3584L18.8747 73.8458L25.2903 69.249C25.6712 68.9753 26.1245 68.8204 26.5933 68.8037C27.062 68.7871 27.5252 68.9094 27.9246 69.1553C30.6402 70.8302 33.5808 72.0552 36.662 72.8083C37.1142 72.9184 37.5242 73.159 37.8409 73.5001C38.1575 73.8412 38.367 74.2679 38.4432 74.7271L39.7338 82.4769H43.6806C44.3118 82.4769 44.917 82.7277 45.3633 83.1739C45.8096 83.6202 46.0603 84.2255 46.0603 84.8566C46.0603 85.4877 45.8096 86.093 45.3633 86.5393C44.917 86.9855 44.3118 87.2331 43.6806 87.2331Z" fill="black"/>
<path d="M91.2764 99.9235H59.555C57.2415 99.9219 55.0232 99.0021 53.3874 97.3663C51.7515 95.7304 50.8317 93.5121 50.8301 91.1987V59.4804C50.8317 57.1669 51.7515 54.9487 53.3874 53.3128C55.0232 51.6769 57.2415 50.7571 59.555 50.7555H91.2732C93.5862 50.7571 95.804 51.6765 97.4397 53.3117C99.0755 54.9469 99.9956 57.1643 99.9981 59.4772V91.1987C99.9965 93.5121 99.0767 95.7304 97.4408 97.3663C95.805 99.0021 93.5898 99.9219 91.2764 99.9235ZM59.555 55.5148C57.3675 55.5148 55.5863 57.2898 55.5863 59.4772V91.1987C55.5863 93.3861 57.3675 95.1674 59.555 95.1674H91.2732C93.4607 95.1674 95.2419 93.3861 95.2419 91.1987V59.4804C95.2419 57.2929 93.4607 55.5117 91.2732 55.5117L59.555 55.5148Z" fill="black"/>
<path d="M87.6618 99.9236C87.2439 99.9246 86.8332 99.8153 86.4711 99.6068C86.1089 99.3984 85.8082 99.098 85.5993 98.7361L78.8431 87.0238C78.7244 86.8082 78.6213 86.6488 78.5213 86.4926L78.2619 86.0769C73.1339 78.1395 62.9621 74.9865 54.1185 78.6427C53.8298 78.7621 53.5204 78.8235 53.208 78.8233C52.8956 78.8232 52.5862 78.7615 52.2976 78.6418C52.0091 78.5221 51.7469 78.3467 51.5261 78.1257C51.3053 77.9047 51.1302 77.6423 51.0107 77.3536C50.8913 77.0649 50.8299 76.7555 50.8301 76.4431C50.8302 76.1307 50.8919 75.8214 51.0116 75.5328C51.1313 75.2442 51.3067 74.982 51.5277 74.7612C51.7487 74.5404 52.0111 74.3653 52.2998 74.2459C63.2684 69.7084 75.8869 73.6302 82.2993 83.5613L82.5337 83.9363C82.69 84.1801 82.8462 84.4301 82.99 84.6926L89.718 96.3487C89.9279 96.7103 90.0387 97.1209 90.0393 97.539C90.0399 97.9571 89.9303 98.368 89.7214 98.7302C89.5126 99.0924 89.2119 99.3932 88.8498 99.6022C88.4876 99.8111 88.0768 99.9209 87.6586 99.9205L87.6618 99.9236Z" fill="black"/>
<path d="M80.2993 87.2331C79.8516 87.2321 79.4133 87.1048 79.0346 86.8659C78.6559 86.6271 78.3523 86.2863 78.1585 85.8827C77.9647 85.4791 77.8886 85.029 77.9389 84.5842C77.9893 84.1393 78.164 83.7176 78.4431 83.3676C80.7382 80.486 83.6557 78.1612 86.9769 76.5674C90.2982 74.9736 93.9371 74.1521 97.6209 74.1646C98.2521 74.1646 98.8573 74.4153 99.3036 74.8616C99.7499 75.3078 100.001 75.9131 100.001 76.5442C100.001 77.1753 99.7499 77.7806 99.3036 78.2269C98.8573 78.6732 98.2521 78.9239 97.6209 78.9239C91.5585 78.9239 85.9242 81.627 82.1587 86.3394C81.9359 86.6186 81.653 86.8439 81.3311 86.9987C81.0092 87.1534 80.6565 87.2336 80.2993 87.2331Z" fill="black"/>
<path d="M81.7578 68.9959C83.5095 68.9959 84.9296 67.5758 84.9296 65.824C84.9296 64.0723 83.5095 62.6522 81.7578 62.6522C80.006 62.6522 78.5859 64.0723 78.5859 65.824C78.5859 67.5758 80.006 68.9959 81.7578 68.9959Z" fill="black"/>
</svg>
