<svg width="100" height="100" viewBox="0 0 100 100" fill="none" xmlns="http://www.w3.org/2000/svg">
<path d="M68.75 3.125C72.0652 3.125 75.2446 4.44196 77.5888 6.78617C79.933 9.13037 81.25 12.3098 81.25 15.625V55.9953L79.4922 48.2672C79.2209 47.0738 78.673 45.9608 77.8928 45.018C77.1125 44.0751 76.1216 43.3288 75 42.8391V15.625C75 13.9674 74.3415 12.3777 73.1694 11.2056C71.9973 10.0335 70.4076 9.375 68.75 9.375H15.625C13.9674 9.375 12.3777 10.0335 11.2056 11.2056C10.0335 12.3777 9.375 13.9674 9.375 15.625V68.75C9.375 70.4076 10.0335 71.9973 11.2056 73.1694C12.3777 74.3415 13.9674 75 15.625 75H42.8391C43.3286 76.1219 44.0748 77.1131 45.0177 77.8937C45.9605 78.6742 47.0736 79.2223 48.2672 79.4937L55.9953 81.25H15.625C12.3098 81.25 9.13037 79.933 6.78617 77.5888C4.44196 75.2446 3.125 72.0652 3.125 68.75V15.625C3.125 12.3098 4.44196 9.13037 6.78617 6.78617C9.13037 4.44196 12.3098 3.125 15.625 3.125H68.75Z" fill="black"/>
<path d="M60.5188 43.1781L63.9485 49.6234L61.9485 58.4172C61.9258 58.5185 61.8998 58.6191 61.8704 58.7187C61.6437 58.4954 61.4525 58.2388 61.3032 57.9578L55.0016 46.114C54.7542 45.6488 54.3931 45.2537 53.9519 44.9655C53.5108 44.6773 53.0039 44.5053 52.4785 44.4656C51.953 44.4258 51.4261 44.5196 50.9466 44.7381C50.4671 44.9567 50.0507 45.2929 49.736 45.7156L40.3188 58.3562C40.0632 58.6997 39.7397 58.9869 39.3685 59.2002C38.9972 59.4134 38.5861 59.5481 38.1606 59.5958C37.7352 59.6436 37.3044 59.6034 36.8951 59.4778C36.4858 59.3522 36.1067 59.1438 35.7813 58.8656L32.6719 56.2047C32.3223 55.9053 31.9108 55.6868 31.467 55.5649C31.0231 55.443 30.5578 55.4207 30.1042 55.4995C29.6507 55.5783 29.2202 55.7563 28.8435 56.0209C28.4668 56.2854 28.1532 56.6299 27.9251 57.0297L25.6954 60.9375H48.2032C48.9467 60.9375 49.6658 61.2026 50.2314 61.6851C50.797 62.1677 51.172 62.8361 51.2891 63.5703L48.2673 64.2578C46.4079 64.6797 44.8313 65.7453 43.7501 67.1875H20.3126C19.7652 67.1876 19.2274 67.0439 18.753 66.7708C18.2786 66.4977 17.8843 66.1048 17.6094 65.6315C17.3346 65.1581 17.1889 64.6208 17.187 64.0734C17.1851 63.5261 17.327 62.9878 17.5985 62.5125L22.4985 53.9312C25.4141 48.8219 32.261 47.6312 36.7329 51.4547L37.3032 51.9437L44.7251 41.9828C48.8344 36.4672 57.2876 37.1078 60.5188 43.1781Z" fill="black"/>
<path fill-rule="evenodd" clip-rule="evenodd" d="M21.875 29.6875C21.875 27.2011 22.8627 24.8165 24.6209 23.0584C26.379 21.3002 28.7636 20.3125 31.25 20.3125C33.7364 20.3125 36.121 21.3002 37.8791 23.0584C39.6373 24.8165 40.625 27.2011 40.625 29.6875C40.625 32.1739 39.6373 34.5585 37.8791 36.3166C36.121 38.0748 33.7364 39.0625 31.25 39.0625C28.7636 39.0625 26.379 38.0748 24.6209 36.3166C22.8627 34.5585 21.875 32.1739 21.875 29.6875ZM31.25 26.5625C30.4212 26.5625 29.6263 26.8917 29.0403 27.4778C28.4542 28.0638 28.125 28.8587 28.125 29.6875C28.125 30.5163 28.4542 31.3112 29.0403 31.8972C29.6263 32.4833 30.4212 32.8125 31.25 32.8125C32.0788 32.8125 32.8737 32.4833 33.4597 31.8972C34.0458 31.3112 34.375 30.5163 34.375 29.6875C34.375 28.8587 34.0458 28.0638 33.4597 27.4778C32.8737 26.8917 32.0788 26.5625 31.25 26.5625ZM74.9219 49.3062C74.7645 48.6158 74.3774 47.9993 73.8238 47.5577C73.2702 47.1161 72.5831 46.8756 71.875 46.8756C71.1669 46.8756 70.4798 47.1161 69.9262 47.5577C69.3726 47.9993 68.9855 48.6158 68.8281 49.3062L66.5203 59.4562C66.1284 61.1794 65.2575 62.7567 64.0079 64.0063C62.7583 65.2559 61.181 66.1268 59.4578 66.5187L49.3078 68.8281C48.6174 68.9855 48.0009 69.3726 47.5593 69.9262C47.1177 70.4798 46.8772 71.1669 46.8772 71.875C46.8772 72.5831 47.1177 73.2702 47.5593 73.8238C48.0009 74.3774 48.6174 74.7645 49.3078 74.9219L59.4562 77.2297C61.1794 77.6216 62.7567 78.4925 64.0063 79.7421C65.2559 80.9917 66.1268 82.569 66.5187 84.2922L68.8281 94.4422C68.9855 95.1326 69.3726 95.7491 69.9262 96.1907C70.4798 96.6323 71.1669 96.8728 71.875 96.8728C72.5831 96.8728 73.2702 96.6323 73.8238 96.1907C74.3774 95.7491 74.7645 95.1326 74.9219 94.4422L77.2297 84.2938C77.6216 82.5706 78.4925 80.9933 79.7421 79.7437C80.9917 78.4941 82.569 77.6232 84.2922 77.2313L94.4422 74.9219C95.1326 74.7645 95.7491 74.3774 96.1907 73.8238C96.6323 73.2702 96.8728 72.5831 96.8728 71.875C96.8728 71.1669 96.6323 70.4798 96.1907 69.9262C95.7491 69.3726 95.1326 68.9855 94.4422 68.8281L84.2938 66.5203C82.5706 66.1284 80.9933 65.2575 79.7437 64.0079C78.4941 62.7583 77.6232 61.181 77.2313 59.4578L74.9219 49.3062ZM63.2094 71.875C65.1631 71.0889 66.9378 69.9161 68.4269 68.4269C69.9161 66.9378 71.0889 65.1631 71.875 63.2094C72.6611 65.1631 73.8339 66.9378 75.3231 68.4269C76.8122 69.9161 78.5869 71.0889 80.5406 71.875C78.5869 72.6611 76.8122 73.8339 75.3231 75.3231C73.8339 76.8122 72.6611 78.5869 71.875 80.5406C71.0889 78.5869 69.9161 76.8122 68.4269 75.3231C66.9378 73.8339 65.1631 72.6611 63.2094 71.875Z" fill="black"/>
</svg>
