<svg width="100" height="100" viewBox="0 0 100 100" fill="none" xmlns="http://www.w3.org/2000/svg">
<path d="M77.142 25.7158C62.9551 25.7158 53.5664 37.3152 45.2833 47.5514C38.2065 56.2957 31.5238 64.5527 23.3846 64.5527C14.9245 64.5527 9.7302 55.8577 9.7302 49.6243C9.7302 43.8449 15.4284 35.446 24.3591 35.446C33.0249 35.446 37.5395 42.3817 37.7672 42.7372C38.443 43.8295 39.5233 44.6102 40.7726 44.9089C42.0218 45.2075 43.3385 45 44.4353 44.3315C44.9809 43.9991 45.4557 43.5624 45.8325 43.0465C46.2093 42.5306 46.4809 41.9455 46.6316 41.3246C46.7823 40.7037 46.8092 40.0593 46.7108 39.428C46.6124 38.7967 46.3907 38.191 46.0582 37.6454C45.7613 37.1595 38.6246 25.7165 24.3591 25.7165C10.0045 25.7165 0 38.3177 0 49.6249C0 61.2883 9.60372 74.2836 23.3839 74.2836C36.1642 74.2836 44.6456 63.8059 52.8461 53.6723C60.4322 44.3009 67.5982 35.4467 77.142 35.4467C82.8202 35.4467 86.5513 37.3732 88.5457 41.3313C90.2738 44.7662 90.2725 48.6531 90.2711 49.9997C90.2711 50.7719 89.8631 54.6448 87.9739 58.1323C85.8197 62.1051 82.7616 63.9543 78.3422 63.9543C69.4428 63.9543 64.6346 58.1696 62.8239 55.9908C62.3533 55.4237 62.0145 55.0156 61.5618 54.6282C60.5817 53.7891 59.3085 53.3735 58.022 53.4727C56.7356 53.572 55.5412 54.1779 54.7013 55.1574C53.894 56.0994 53.4773 57.3144 53.5364 58.5536C53.5956 59.7929 54.1261 60.9626 55.0195 61.8235C55.1074 61.9233 55.2133 62.0545 55.3391 62.2069C57.6989 65.0467 64.8742 73.6832 78.3402 73.6832C94.7065 73.6832 99.9993 57.7249 99.9993 49.9332C100.001 44.9705 99.0714 40.605 97.2341 36.9551C94.6546 31.8294 89.0736 25.7158 77.142 25.7158Z" fill="black"/>
</svg>
