<svg width="100" height="100" viewBox="0 0 100 100" fill="none" xmlns="http://www.w3.org/2000/svg">
<path d="M70.2422 72.7621C70.6669 72.506 71.1206 72.3015 71.5937 72.1527C72.1009 71.9955 72.6259 71.9037 73.1562 71.8792L73.4375 71.8714L73.2891 71.7777L73.4609 71.6761V68.8246C73.4609 68.5433 73.4609 68.2699 73.5078 67.9964L69.4609 70.4574L69.375 70.5277L61.3125 75.3089C61.0763 75.4453 60.88 75.641 60.7429 75.8768C60.6059 76.1125 60.5329 76.38 60.5312 76.6527V86.223C60.5312 86.6374 60.6959 87.0348 60.9889 87.3278C61.2819 87.6209 61.6793 87.7855 62.0938 87.7855C62.5082 87.7855 62.9056 87.6209 63.1986 87.3278C63.4916 87.0348 63.6562 86.6374 63.6562 86.223V77.5433L68.0703 74.9105C68.585 74.0539 69.2977 73.3332 70.1484 72.8089L70.2422 72.7621Z" fill="black"/>
<path d="M67.1876 93.5902C58.1061 97.182 48.1279 97.8402 38.6533 95.4722C29.1787 93.1043 20.6833 87.8291 14.3595 80.3871L27.5626 73.473L35.547 77.6058V86.1996C35.547 86.614 35.7116 87.0114 36.0046 87.3044C36.2976 87.5974 36.6951 87.7621 37.1095 87.7621C37.5239 87.7621 37.9213 87.5974 38.2143 87.3044C38.5074 87.0114 38.672 86.614 38.672 86.1996V76.6527C38.6726 76.3658 38.5942 76.0842 38.4453 75.8389C38.2965 75.5936 38.083 75.394 37.8282 75.2621L26.6173 69.473L16.836 63.5355L27.3829 56.1214L48.4376 75.3089V85.9339C48.4376 86.3483 48.6022 86.7458 48.8952 87.0388C49.1883 87.3318 49.5857 87.4964 50.0001 87.4964C50.4145 87.4964 50.8119 87.3318 51.1049 87.0388C51.398 86.7458 51.5626 86.3483 51.5626 85.9339V76.0589L71.6251 57.0746L77.0079 60.8558C77.8337 60.0996 78.7653 59.4679 79.7735 58.9808L71.1407 52.9183C70.8773 52.7344 70.5636 52.6362 70.2423 52.6371H62.9376C65.5979 48.6838 67.701 44.383 69.1876 39.8558L81.4767 36.5511C83.1954 36.0589 84.0392 35.2386 83.9767 34.1136C83.9142 32.9886 83.0079 32.2777 81.2813 31.973L69.8438 29.1839C69.7632 29.1042 69.6741 29.0335 69.5782 28.973L61.0626 12.7621C60.7378 12.1837 60.2997 11.6769 59.7745 11.2718C59.2492 10.8668 58.6476 10.572 58.0057 10.4049C57.3638 10.2379 56.6948 10.2021 56.0387 10.2997C55.3827 10.3973 54.7531 10.6263 54.1876 10.973L52.3438 12.1058C51.6389 12.445 50.8704 12.6321 50.0884 12.655C49.3064 12.6779 48.5284 12.536 47.8048 12.2386L44.9845 10.7464C44.2328 10.3521 43.3958 10.1482 42.547 10.1527C41.6375 10.1509 40.7431 10.3854 39.9515 10.8332C39.1599 11.2811 38.4983 11.9269 38.0313 12.7074L28.8282 28.3324L18.672 30.6214C16.5392 31.1058 16.0548 32.1449 16.0157 32.9652C15.9767 33.7855 16.3751 34.8324 18.4688 35.5042L30.297 39.1761C31.6026 43.9271 33.5949 48.4619 36.211 52.6371H27.4142C27.0929 52.6362 26.7792 52.7344 26.5157 52.9183L13.086 62.3558C12.8729 62.5048 12.7003 62.7047 12.5839 62.9372C12.4676 63.1698 12.4111 63.4278 12.4196 63.6877C12.4281 63.9476 12.5014 64.2013 12.6328 64.4257C12.7642 64.6502 12.9495 64.8383 13.172 64.973L24.2188 71.6917L12.5001 77.848L12.3907 77.9183C7.63189 71.5195 4.58417 64.0124 3.53586 56.1072C2.48755 48.202 3.47331 40.1601 6.39989 32.7421C9.32648 25.3241 14.0971 18.7754 20.2605 13.7154C26.424 8.6554 33.7764 5.25145 41.6223 3.82553C49.4681 2.39961 57.5481 2.99887 65.0978 5.56663C72.6475 8.13439 79.4173 12.5857 84.7668 18.4996C90.1163 24.4135 93.8687 31.5943 95.669 39.3629C97.4692 47.1314 97.2578 55.2308 95.0548 62.8949C95.9988 64.2972 96.596 65.9039 96.797 67.5824C100.808 56.9039 101.048 45.1749 97.4752 34.3417C93.9029 23.5086 86.7338 14.2225 77.1576 8.02461C67.5813 1.82668 56.1737 -0.910485 44.8277 0.267321C33.4817 1.44513 22.8795 6.46709 14.7805 14.4998C6.68146 22.5326 1.57259 33.0932 0.301637 44.4291C-0.969313 55.7651 1.67407 67.1948 7.79314 76.8217C13.9122 86.4485 23.139 93.6937 33.9425 97.3548C44.746 101.016 56.4766 100.873 67.1876 96.9496C67.1876 96.9496 67.1876 96.8949 67.1876 96.8714V93.5902ZM68.4688 55.7542L50.3907 72.8636L31.6407 55.7542H38.5782C41.7657 59.2855 45.797 61.223 49.8282 61.223C51.6409 61.2016 53.4299 60.8093 55.0852 60.0703C56.7405 59.3313 58.2271 58.2613 59.4532 56.9261C59.8204 56.5511 60.172 56.1449 60.5235 55.7542H68.4688ZM53.9063 14.7777L55.7735 13.6449C56.1881 13.3981 56.683 13.3237 57.1518 13.4376C57.6207 13.5516 58.0262 13.8447 58.2813 14.2542L66.1563 29.2542L51.5626 32.4339V15.6214C52.387 15.4787 53.1802 15.1932 53.9063 14.7777ZM40.7188 14.2933C41.006 13.8447 41.448 13.5173 41.9607 13.3732C42.4735 13.2292 43.0214 13.2786 43.5001 13.5121L46.3204 15.0042C46.9839 15.3376 47.6957 15.5643 48.4298 15.6761V32.3714L32.4376 28.3714L40.7188 14.2933ZM30.7032 31.1371L30.8751 31.1996L49.6251 35.8871C49.8589 35.9417 50.1022 35.9417 50.336 35.8871L68.2423 31.9808L77.7345 34.3246L52.5548 41.098C51.6814 41.3165 50.7831 41.419 49.8829 41.4027C48.8271 41.4195 47.7744 41.2826 46.7579 40.9964L21.5938 33.1839L30.7032 31.1371ZM45.8126 43.9808C47.1322 44.3632 48.5013 44.5475 49.8751 44.5277C51.0579 44.5423 52.2374 44.4005 53.3829 44.1058L65.5001 40.848C63.336 46.5277 60.461 51.3871 57.1954 54.7464C56.2581 55.7792 55.1199 56.6098 53.8504 57.1875C52.581 57.7651 51.207 58.0776 49.8126 58.1058C46.0079 58.1058 42.2579 55.8714 39.5235 51.973C37.089 48.3619 35.1966 44.4138 33.9063 40.2542L45.8126 43.9808Z" fill="black"/>
<path d="M96.875 74.9964H93.75V68.8246C93.75 64.4652 90.0156 60.9339 85.4141 60.9339H84.8906C80.2969 60.9339 76.5625 64.4652 76.5625 68.8246V74.9964H73.4375C72.6087 74.9964 71.8138 75.3257 71.2278 75.9117C70.6417 76.4978 70.3125 77.2926 70.3125 78.1214V96.8714C70.3125 97.7002 70.6417 98.4951 71.2278 99.0811C71.8138 99.6672 72.6087 99.9964 73.4375 99.9964H96.875C97.7038 99.9964 98.4987 99.6672 99.0847 99.0811C99.6708 98.4951 100 97.7002 100 96.8714V78.1214C100 77.2926 99.6708 76.4978 99.0847 75.9117C98.4987 75.3257 97.7038 74.9964 96.875 74.9964ZM79.6875 68.8246C79.7503 67.5029 80.3337 66.2599 81.31 65.367C82.2864 64.474 83.5765 64.0038 84.8984 64.0589H85.4219C86.7425 64.0059 88.0306 64.4771 89.0052 65.3698C89.9799 66.2625 90.5621 67.5043 90.625 68.8246V74.9964H79.6875V68.8246ZM85.1562 90.6214C84.8472 90.6214 84.5451 90.5298 84.2882 90.3581C84.0312 90.1864 83.831 89.9424 83.7127 89.6569C83.5944 89.3714 83.5635 89.0572 83.6238 88.7541C83.6841 88.451 83.8329 88.1726 84.0514 87.9541C84.2699 87.7356 84.5483 87.5867 84.8514 87.5265C85.1545 87.4662 85.4687 87.4971 85.7542 87.6154C86.0397 87.7336 86.2837 87.9339 86.4554 88.1909C86.6271 88.4478 86.7188 88.7499 86.7188 89.0589C86.7188 89.4733 86.5541 89.8708 86.2611 90.1638C85.9681 90.4568 85.5707 90.6214 85.1562 90.6214ZM96.875 96.8714H86.7188V93.473C87.7613 93.1044 88.6399 92.3791 89.1994 91.4254C89.7589 90.4716 89.9632 89.3507 89.7762 88.2609C89.5893 87.1711 89.023 86.1824 88.1776 85.4697C87.3322 84.757 86.262 84.3661 85.1562 84.3661C84.0505 84.3661 82.9803 84.757 82.1349 85.4697C81.2895 86.1824 80.7232 87.1711 80.5363 88.2609C80.3493 89.3507 80.5536 90.4716 81.1131 91.4254C81.6726 92.3791 82.5512 93.1044 83.5938 93.473V96.8714H73.4375V78.1214H96.875V96.8714Z" fill="black"/>
</svg>
