<svg width="100" height="100" viewBox="0 0 100 100" fill="none" xmlns="http://www.w3.org/2000/svg">
<mask id="mask0_25_24" style="mask-type:luminance" maskUnits="userSpaceOnUse" x="0" y="0" width="100" height="100">
<path d="M0 0H100V100H0V0Z" fill="white"/>
</mask>
<g mask="url(#mask0_25_24)">
<path d="M89.5833 100H47.9167C45.155 99.9967 42.5074 98.8982 40.5546 96.9454C38.6018 94.9926 37.5033 92.345 37.5 89.5833V72.9167C37.5 72.3641 37.7195 71.8342 38.1102 71.4435C38.5009 71.0528 39.0308 70.8333 39.5833 70.8333C40.1359 70.8333 40.6658 71.0528 41.0565 71.4435C41.4472 71.8342 41.6667 72.3641 41.6667 72.9167V89.5833C41.6667 93.0292 44.4708 95.8333 47.9167 95.8333H89.5833C93.0292 95.8333 95.8333 93.0292 95.8333 89.5833V47.9167C95.8333 44.4708 93.0292 41.6667 89.5833 41.6667H68.75C68.1975 41.6667 67.6676 41.4472 67.2769 41.0565C66.8862 40.6658 66.6667 40.1359 66.6667 39.5833C66.6667 39.0308 66.8862 38.5009 67.2769 38.1102C67.6676 37.7195 68.1975 37.5 68.75 37.5H89.5833C95.325 37.5 100 42.175 100 47.9167V89.5833C100 95.325 95.325 100 89.5833 100ZM31.25 62.5H29.1667C28.6141 62.5 28.0842 62.2805 27.6935 61.8898C27.3028 61.4991 27.0833 60.9692 27.0833 60.4167C27.0833 59.8641 27.3028 59.3342 27.6935 58.9435C28.0842 58.5528 28.6141 58.3333 29.1667 58.3333H31.25C31.8025 58.3333 32.3324 58.5528 32.7231 58.9435C33.1138 59.3342 33.3333 59.8641 33.3333 60.4167C33.3333 60.9692 33.1138 61.4991 32.7231 61.8898C32.3324 62.2805 31.8025 62.5 31.25 62.5ZM20.7458 62.5H16.5333C15.9808 62.5 15.4509 62.2805 15.0602 61.8898C14.6695 61.4991 14.45 60.9692 14.45 60.4167C14.45 59.8641 14.6695 59.3342 15.0602 58.9435C15.4509 58.5528 15.9808 58.3333 16.5333 58.3333H20.7458C21.2984 58.3333 21.8283 58.5528 22.219 58.9435C22.6097 59.3342 22.8292 59.8641 22.8292 60.4167C22.8292 60.9692 22.6097 61.4991 22.219 61.8898C21.8283 62.2805 21.2984 62.5 20.7458 62.5ZM8.14167 62.1833C7.94865 62.1834 7.75656 62.1567 7.57083 62.1042C5.87462 61.6213 4.329 60.7151 3.07917 59.4708C2.87972 59.2792 2.72043 59.0498 2.61058 58.7959C2.50074 58.5421 2.44254 58.2689 2.43939 57.9923C2.43623 57.7157 2.48819 57.4413 2.59221 57.185C2.69624 56.9287 2.85026 56.6957 3.04529 56.4996C3.24031 56.3035 3.47244 56.1481 3.72814 56.0426C3.98383 55.9372 4.25797 55.8837 4.53455 55.8853C4.81114 55.8868 5.08465 55.9435 5.33911 56.0519C5.59358 56.1603 5.82391 56.3183 6.01667 56.5167C6.76667 57.2625 7.7 57.8083 8.70833 58.0958C9.19183 58.2331 9.60942 58.5405 9.88412 58.9613C10.1588 59.3822 10.2721 59.8882 10.2031 60.3861C10.1341 60.8839 9.8874 61.34 9.50857 61.6703C9.12973 62.0006 8.64427 62.1828 8.14167 62.1833ZM2.08333 52.3208C1.5308 52.3208 1.0009 52.1013 0.610194 51.7106C0.219493 51.3199 0 50.79 0 50.2375V46.025C0 45.4725 0.219493 44.9426 0.610194 44.5519C1.0009 44.1612 1.5308 43.9417 2.08333 43.9417C2.63587 43.9417 3.16577 44.1612 3.55647 44.5519C3.94717 44.9426 4.16667 45.4725 4.16667 46.025V50.2375C4.16667 50.79 3.94717 51.3199 3.55647 51.7106C3.16577 52.1013 2.63587 52.3208 2.08333 52.3208ZM2.08333 39.6833C1.5308 39.6833 1.0009 39.4638 0.610194 39.0731C0.219493 38.6824 0 38.1525 0 37.6V33.3875C0 32.835 0.219493 32.3051 0.610194 31.9144C1.0009 31.5237 1.5308 31.3042 2.08333 31.3042C2.63587 31.3042 3.16577 31.5237 3.55647 31.9144C3.94717 32.3051 4.16667 32.835 4.16667 33.3875V37.6C4.16667 38.1525 3.94717 38.6824 3.55647 39.0731C3.16577 39.4638 2.63587 39.6833 2.08333 39.6833ZM2.08333 27.05C1.5308 27.05 1.0009 26.8305 0.610194 26.4398C0.219493 26.0491 0 25.5192 0 24.9667V20.7542C0 20.2016 0.219493 19.6717 0.610194 19.281C1.0009 18.8903 1.5308 18.6708 2.08333 18.6708C2.63587 18.6708 3.16577 18.8903 3.55647 19.281C3.94717 19.6717 4.16667 20.2016 4.16667 20.7542V24.9667C4.16667 25.5192 3.94717 26.0491 3.55647 26.4398C3.16577 26.8305 2.63587 27.05 2.08333 27.05ZM60.4167 22.7542C59.8641 22.7542 59.3342 22.5347 58.9435 22.144C58.5528 21.7533 58.3333 21.2234 58.3333 20.6708V16.4583C58.3333 15.9058 58.5528 15.3759 58.9435 14.9852C59.3342 14.5945 59.8641 14.375 60.4167 14.375C60.9692 14.375 61.4991 14.5945 61.8898 14.9852C62.2805 15.3759 62.5 15.9058 62.5 16.4583V20.6708C62.5 21.2234 62.2805 21.7533 61.8898 22.144C61.4991 22.5347 60.9692 22.7542 60.4167 22.7542ZM2.08333 14.4125C1.5308 14.4125 1.0009 14.193 0.610194 13.8023C0.219493 13.4116 0 12.8817 0 12.3292V10.4167C0 9.45833 0.133333 8.50417 0.391667 7.58333C0.46083 7.3143 0.583097 7.06182 0.751275 6.84073C0.919453 6.61965 1.13015 6.43443 1.37096 6.29597C1.61177 6.15751 1.87784 6.06861 2.15352 6.03449C2.4292 6.00038 2.70892 6.02174 2.97622 6.09731C3.24352 6.17289 3.49301 6.30116 3.71001 6.47458C3.92701 6.648 4.10713 6.86306 4.23979 7.10712C4.37245 7.35117 4.45497 7.61929 4.48248 7.89571C4.50999 8.17212 4.48195 8.45125 4.4 8.71667C4.24495 9.27002 4.16644 9.842 4.16667 10.4167V12.3292C4.16667 12.8817 3.94717 13.4116 3.55647 13.8023C3.16577 14.193 2.63587 14.4125 2.08333 14.4125ZM60.0792 10.15C59.6284 10.15 59.1898 10.0038 58.8292 9.73333C58.4685 9.46287 58.2054 9.08274 58.0792 8.65C57.7793 7.63675 57.229 6.71536 56.4792 5.97083C56.0968 5.58018 55.8834 5.05493 55.8848 4.50832C55.8862 3.96172 56.1023 3.43756 56.4866 3.04887C56.871 2.66018 57.3926 2.4381 57.9392 2.43052C58.4857 2.42294 59.0134 2.63046 59.4083 3.00833C60.6625 4.25 61.5875 5.79583 62.0792 7.47917C62.1705 7.78992 62.1881 8.11769 62.1306 8.43644C62.0732 8.75519 61.9421 9.05615 61.748 9.31542C61.5538 9.57468 61.3019 9.78511 61.0122 9.92998C60.7225 10.0749 60.4031 10.1502 60.0792 10.15ZM8.075 4.5C7.57351 4.5 7.08885 4.31911 6.71 3.99053C6.33114 3.66195 6.08353 3.20774 6.0126 2.71129C5.94168 2.21484 6.05222 1.70947 6.32392 1.28796C6.59561 0.866447 7.01024 0.557084 7.49167 0.416667C8.4375 0.141667 9.42083 0 10.4167 0H12.2542C12.8067 8.2334e-09 13.3366 0.219493 13.7273 0.610194C14.118 1.0009 14.3375 1.5308 14.3375 2.08333C14.3375 2.63587 14.118 3.16577 13.7273 3.55647C13.3366 3.94717 12.8067 4.16667 12.2542 4.16667H10.4167C9.81667 4.16667 9.22917 4.25 8.6625 4.41667C8.47177 4.47291 8.27385 4.50098 8.075 4.5ZM50.1625 4.16667H45.95C45.3975 4.16667 44.8676 3.94717 44.4769 3.55647C44.0862 3.16577 43.8667 2.63587 43.8667 2.08333C43.8667 1.5308 44.0862 1.0009 44.4769 0.610194C44.8676 0.219493 45.3975 0 45.95 0L50.1625 0C50.715 0 51.2449 0.219493 51.6356 0.610194C52.0263 1.0009 52.2458 1.5308 52.2458 2.08333C52.2458 2.63587 52.0263 3.16577 51.6356 3.55647C51.2449 3.94717 50.715 4.16667 50.1625 4.16667ZM37.525 4.16667H33.3167C32.7641 4.16667 32.2342 3.94717 31.8435 3.55647C31.4528 3.16577 31.2333 2.63587 31.2333 2.08333C31.2333 1.5308 31.4528 1.0009 31.8435 0.610194C32.2342 0.219493 32.7641 0 33.3167 0L37.5292 0C38.0817 0.000552534 38.6114 0.220576 39.0017 0.611667C39.392 1.00276 39.611 1.53288 39.6104 2.08542C39.6099 2.63795 39.3898 3.16764 38.9987 3.55795C38.6077 3.94826 38.0775 4.16722 37.525 4.16667ZM24.8917 4.16667H20.6792C20.1266 4.16667 19.5967 3.94717 19.206 3.55647C18.8153 3.16577 18.5958 2.63587 18.5958 2.08333C18.5958 1.5308 18.8153 1.0009 19.206 0.610194C19.5967 0.219493 20.1266 0 20.6792 0L24.8917 0C25.4442 0 25.9741 0.219493 26.3648 0.610194C26.7555 1.0009 26.975 1.5308 26.975 2.08333C26.975 2.63587 26.7555 3.16577 26.3648 3.55647C25.9741 3.94717 25.4442 4.16667 24.8917 4.16667ZM60.4167 33.3333C59.8641 33.3333 59.3342 33.1138 58.9435 32.7231C58.5528 32.3324 58.3333 31.8025 58.3333 31.25V29.1667C58.3333 28.6141 58.5528 28.0842 58.9435 27.6935C59.3342 27.3028 59.8641 27.0833 60.4167 27.0833C60.9692 27.0833 61.4991 27.3028 61.8898 27.6935C62.2805 28.0842 62.5 28.6141 62.5 29.1667V31.25C62.5 31.8025 62.2805 32.3324 61.8898 32.7231C61.4991 33.1138 60.9692 33.3333 60.4167 33.3333Z" fill="black"/>
<path d="M52.2875 75.0001H43.7458C40.9842 74.9968 38.3366 73.8982 36.3838 71.9455C34.431 69.9927 33.3325 67.3451 33.3292 64.5834V57.1126L31.4625 55.2459C30.2334 54.0209 29.5583 52.3834 29.5583 50.6459C29.5583 48.9084 30.2334 47.2709 31.4625 46.0459C32.4792 45.0292 33.775 44.3917 35.1792 44.2001C35.1088 43.2328 35.2563 42.262 35.6107 41.3592C35.965 40.4564 36.5173 39.6445 37.2269 38.9833C37.9364 38.3221 38.7852 37.8284 39.7108 37.5386C40.6363 37.2487 41.6151 37.1701 42.575 37.3084C42.8125 36.0751 43.4042 34.8917 44.3584 33.9417C45.2303 33.0888 46.3207 32.4932 47.5095 32.2204C48.6983 31.9477 49.9393 32.0084 51.0958 32.3959C51.4374 31.3353 52.0454 30.3801 52.8617 29.6216C53.6779 28.8632 54.6751 28.3268 55.7579 28.0638C56.8406 27.8009 57.9727 27.8201 59.0459 28.1197C60.1192 28.4193 61.0975 28.9893 61.8875 29.7751L68.3459 36.2334C70.4604 38.3379 72.1368 40.8406 73.2782 43.5969C74.4197 46.3532 75.0035 49.3085 74.9959 52.2917C74.9892 58.3123 72.5946 64.0844 68.3374 68.3417C64.0802 72.5989 58.3081 74.9935 52.2875 75.0001ZM37.4958 61.2792V64.5834C37.4958 68.0293 40.3 70.8334 43.7458 70.8334H52.2875C57.2034 70.8279 61.9163 68.8726 65.3924 65.3966C68.8684 61.9206 70.8237 57.2076 70.8292 52.2917C70.8357 49.8564 70.3592 47.4439 69.4273 45.1939C68.4954 42.9439 67.1266 40.901 65.4 39.1834L58.9417 32.7251C58.5041 32.2864 57.9101 32.0395 57.2905 32.0387C56.6708 32.0379 56.0762 32.2833 55.6375 32.7209C55.1988 33.1585 54.9519 33.7525 54.9511 34.3721C54.9503 34.9918 55.1957 35.5864 55.6334 36.0251C55.8326 36.217 55.9916 36.4466 56.1011 36.7007C56.2107 36.9547 56.2685 37.228 56.2713 37.5046C56.2741 37.7812 56.2218 38.0556 56.1174 38.3117C56.013 38.5679 55.8586 38.8007 55.6633 38.9966C55.468 39.1925 55.2356 39.3475 54.9797 39.4526C54.7238 39.5577 54.4496 39.6108 54.173 39.6088C53.8964 39.6068 53.6229 39.5498 53.3686 39.441C53.1143 39.3321 52.8842 39.1738 52.6917 38.9751L50.6084 36.8918C50.1634 36.4667 49.5717 36.2294 48.9563 36.2294C48.3409 36.2294 47.7492 36.4667 47.3042 36.8918C47.0869 37.1085 46.9144 37.366 46.7968 37.6495C46.6792 37.933 46.6186 38.2369 46.6186 38.5438C46.6186 38.8508 46.6792 39.1547 46.7968 39.4382C46.9144 39.7217 47.0869 39.9792 47.3042 40.1959L49.3875 42.2793C49.5819 42.4721 49.7362 42.7016 49.8415 42.9544C49.9468 43.2072 50.001 43.4783 50.001 43.7522C50.001 44.026 49.9468 44.2971 49.8415 44.5499C49.7362 44.8027 49.5819 45.0322 49.3875 45.2251C48.9968 45.6156 48.467 45.8351 47.9146 45.8351C47.3622 45.8351 46.8324 45.6156 46.4417 45.2251L43.3167 42.1001C42.8717 41.675 42.28 41.4378 41.6646 41.4378C41.0492 41.4378 40.4575 41.675 40.0125 42.1001C39.7952 42.3168 39.6228 42.5743 39.5051 42.8578C39.3875 43.1413 39.3269 43.4452 39.3269 43.7522C39.3269 44.0591 39.3875 44.363 39.5051 44.6465C39.6228 44.93 39.7952 45.1875 40.0125 45.4042L45.2208 50.6126C45.4152 50.8055 45.5695 51.0349 45.6748 51.2877C45.7801 51.5405 45.8343 51.8117 45.8343 52.0855C45.8343 52.3593 45.7801 52.6305 45.6748 52.8833C45.5695 53.1361 45.4152 53.3655 45.2208 53.5584C44.8302 53.949 44.3004 54.1684 43.7479 54.1684C43.1955 54.1684 42.6657 53.949 42.275 53.5584L37.7084 48.9959C37.2634 48.5708 36.6717 48.3336 36.0563 48.3336C35.4409 48.3336 34.8492 48.5708 34.4042 48.9959C34.186 49.2117 34.0128 49.4687 33.8945 49.7519C33.7763 50.0352 33.7155 50.339 33.7155 50.6459C33.7155 50.9528 33.7763 51.2567 33.8945 51.5399C34.0128 51.8231 34.186 52.0801 34.4042 52.2959L45.2167 63.1084C45.6065 63.5003 45.8253 64.0306 45.8253 64.5834C45.8253 65.1362 45.6065 65.6665 45.2167 66.0584C44.826 66.449 44.2962 66.6684 43.7438 66.6684C43.1913 66.6684 42.6615 66.449 42.2709 66.0584L37.4958 61.2792Z" fill="black"/>
</g>
</svg>
