<svg width="100" height="100" viewBox="0 0 100 100" fill="none" xmlns="http://www.w3.org/2000/svg">
<g clip-path="url(#clip0_242_62)">
<path d="M81.6689 23.6602L65.4854 39.8438H76.5625C78.7201 39.8438 80.4688 41.5924 80.4688 43.75C80.4688 45.9076 78.7201 47.6562 76.5625 47.6562H61.9141C56.5293 47.6562 52.1484 43.2754 52.1484 37.8906V23.2422C52.1484 21.0846 53.8971 19.3359 56.0547 19.3359C58.2123 19.3359 59.9609 21.0846 59.9609 23.2422V34.3193L76.1436 18.1365C77.6695 16.6107 80.143 16.6107 81.6682 18.1365C83.1939 19.6617 83.1939 22.135 81.6689 23.6602ZM44.1406 80.0781C46.2982 80.0781 48.0469 78.3295 48.0469 76.1719V61.5234C48.0469 56.1387 43.666 51.7578 38.2812 51.7578H23.6328C21.4752 51.7578 19.7266 53.5064 19.7266 55.6641C19.7266 57.8217 21.4752 59.5703 23.6328 59.5703H34.71L18.5264 75.7539C17.0014 77.2789 17.0014 79.7523 18.5264 81.2773C19.2895 82.0404 20.2896 82.4219 21.2891 82.4219C22.2885 82.4219 23.2887 82.0404 24.0518 81.2773L40.2344 65.0949V76.1719C40.2344 78.3295 41.983 80.0781 44.1406 80.0781ZM96.0938 68.75C98.2514 68.75 100 67.0014 100 64.8438V15.625C100 7.00918 92.9908 0 84.375 0H15.625C7.00918 0 0 7.00918 0 15.625V84.375C0 92.9908 7.00918 100 15.625 100H84.375C92.9908 100 100 92.9908 100 84.375C100 82.2174 98.2514 80.4688 96.0938 80.4688C93.9361 80.4688 92.1875 82.2174 92.1875 84.375C92.1875 88.6826 88.6826 92.1875 84.375 92.1875H15.625C11.3174 92.1875 7.8125 88.6826 7.8125 84.375V15.625C7.8125 11.3174 11.3174 7.8125 15.625 7.8125H84.375C88.6826 7.8125 92.1875 11.3174 92.1875 15.625V64.8438C92.1875 67.0014 93.9361 68.75 96.0938 68.75Z" fill="black"/>
</g>
<defs>
<clipPath id="clip0_242_62">
<rect width="100" height="100" fill="white"/>
</clipPath>
</defs>
</svg>
