<svg width="100" height="97" viewBox="0 0 100 97" fill="none" xmlns="http://www.w3.org/2000/svg">
<path d="M22.4283 51.6116H13.1873C11.9474 51.6116 10.9386 52.6202 10.9386 53.8603V65.0501C10.9386 66.29 11.9472 67.2989 13.1873 67.2989H22.4283C23.6682 67.2989 24.6771 66.29 24.6771 65.0501V53.8603C24.6771 52.6204 23.6682 51.6116 22.4283 51.6116ZM21.4483 64.0701H14.1675V54.8406H21.4483V64.0701ZM39.0017 44.4679H29.7607C28.5208 44.4679 27.5119 45.4768 27.5119 46.7167V65.0501C27.5119 66.29 28.5208 67.2989 29.7607 67.2989H39.0017C40.2416 67.2989 41.2504 66.29 41.2504 65.0501V46.7167C41.2504 45.4768 40.2416 44.4679 39.0017 44.4679ZM38.0216 64.0701H30.7409V47.6969H38.0216V64.0701ZM20.8787 43.7835C24.924 43.7835 28.9833 42.1621 32.4923 39.1091L34.3683 40.9887C34.8316 41.454 35.4229 41.7709 36.0669 41.8991C36.7109 42.0274 37.3785 41.9611 37.9847 41.7089C38.592 41.4586 39.1111 41.0332 39.4759 40.4869C39.8407 39.9407 40.0347 39.2983 40.0333 38.6414V27.1258C40.0333 25.2966 38.545 23.8083 36.7158 23.8083H25.2003C24.5434 23.8068 23.9009 24.0008 23.3546 24.3656C22.8084 24.7304 22.383 25.2496 22.1328 25.8569C21.8804 26.4631 21.8141 27.1307 21.9423 27.7748C22.0706 28.4188 22.3876 29.0101 22.8529 29.4734L24.5041 31.1246C19.6362 34.6989 15.6534 34.4824 11.744 30.503C10.2101 28.9431 8.64222 29.03 7.68618 29.6312C6.48902 30.3844 6.04931 32.0094 6.61664 33.5822C8.42831 38.6122 12.5369 42.2909 17.607 43.423C18.6811 43.663 19.7784 43.7839 20.8789 43.7837L20.8787 43.7835ZM9.97264 33.2874C15.3363 38.3476 21.388 38.0823 27.9708 32.4943C28.1409 32.35 28.2793 32.1719 28.3771 31.9714C28.475 31.7709 28.5302 31.5523 28.5393 31.3294C28.5484 31.1065 28.5112 30.8841 28.4301 30.6762C28.3489 30.4684 28.2255 30.2797 28.0677 30.122L25.1359 27.1901C25.1101 27.1643 25.093 27.1474 25.1156 27.0926C25.1386 27.0373 25.163 27.0373 25.2 27.0373H36.7156C36.7612 27.0373 36.8041 27.0803 36.8041 27.1258V38.6414C36.8041 38.6785 36.8041 38.7029 36.7489 38.7259C36.6942 38.7482 36.6771 38.7315 36.6523 38.7067L33.6747 35.7235C33.5248 35.5733 33.3467 35.4542 33.1507 35.3728C32.9547 35.2915 32.7446 35.2496 32.5324 35.2495H32.532C32.3199 35.2495 32.1099 35.2913 31.914 35.3725C31.718 35.4536 31.54 35.5727 31.3901 35.7227C27.5117 39.6037 22.7434 41.2615 18.31 40.2714C14.5968 39.4424 11.5339 36.8594 9.97224 33.2872L9.97264 33.2874ZM96.6242 22.0942L92.8047 21.2235C92.4508 20.1302 92.01 19.0669 91.4868 18.0437L93.5751 14.72C94.7097 12.9129 94.6233 10.999 93.3483 9.72426L90.2747 6.65636C88.9983 5.38017 87.0836 5.29408 85.2788 6.43156L81.9601 8.51944C80.9355 7.99652 79.871 7.55569 78.7767 7.20111L77.9064 3.37858C77.4352 1.29454 76.0215 0 74.2171 0H69.8738C68.0658 0 66.6501 1.29454 66.1793 3.37636L65.3084 7.20111C64.2151 7.55504 63.1518 7.99574 62.1288 8.51903L58.8107 6.43438C57.0065 5.29105 55.0903 5.37613 53.8101 6.65656L50.7412 9.72547C49.4608 11.0057 49.3757 12.9218 50.5156 14.7206L52.2218 17.4362H6.08358C2.72899 17.4362 0 20.1679 0 23.5255V70.3823C0 73.7399 2.72899 76.4715 6.08358 76.4715H30.7709C30.3076 79.0731 29.2772 81.5497 27.693 83.8609H23.0456C17.1562 83.8609 12.1345 87.7254 11.1069 93.0408C10.9252 93.9529 10.7373 94.8962 11.4174 95.7251C12.1395 96.6053 13.3036 96.6053 14.2405 96.6053C33.1028 96.5884 52.2333 96.5884 71.1026 96.6053C72.0381 96.6053 73.2022 96.6053 73.924 95.722C74.6046 94.8892 74.4046 93.9039 74.2312 93.0517C73.2084 87.7262 68.1865 83.8609 62.2902 83.8609H57.6494C56.0837 81.5694 55.0381 79.0533 54.5718 76.4715H79.2521C82.6097 76.4715 85.3413 73.7399 85.3413 70.3823V49.5257C87.1328 50.6172 89.0181 50.5207 90.2749 49.2644L93.3495 46.1899C94.6192 44.9199 94.7065 43.0075 93.5735 41.1926L91.4812 37.8743C92.0037 36.8501 92.4451 35.7866 92.8015 34.6935L96.6289 33.8255C98.7083 33.3449 100 31.9298 100 30.1322V25.789C100 23.9811 98.7055 22.5652 96.624 22.0946L96.6242 22.0942ZM70.9986 93.3761C52.1958 93.3594 33.1328 93.3594 14.3371 93.3761C15.1935 89.7723 18.8798 87.0897 23.0456 87.0897H62.29C66.4551 87.0897 70.1373 89.7649 70.9984 93.3761H70.9986ZM53.8557 83.8609H31.4852C32.7854 81.5279 33.6528 79.0283 34.0433 76.4715H51.2971C51.685 79.0253 52.5529 81.5247 53.8559 83.8609H53.8557ZM79.2521 73.2425H6.08358C4.50961 73.2425 3.22899 71.9593 3.22899 70.3821V23.5255C3.22899 21.9483 4.50961 20.665 6.08358 20.665H51.4793C51.4136 20.8507 51.3469 21.036 51.2862 21.2233L47.4636 22.0936C45.3796 22.5648 44.0851 23.9805 44.0851 25.7885V30.1318C44.0851 31.9294 45.3768 33.3445 47.4626 33.8265L51.2831 34.6929C51.5769 35.5917 51.9284 36.4706 52.3355 37.3241H46.3395C45.0963 37.3241 44.0849 38.3329 44.0849 39.5728V65.0499C44.0849 66.2898 45.0963 67.2986 46.3395 67.2986H55.5748C56.8147 67.2986 57.8236 66.2898 57.8236 65.0499V49.982C58.1666 49.85 58.4959 49.6847 58.8066 49.4884L60.6637 48.3189V65.0497C60.6637 66.2896 61.6725 67.2984 62.9124 67.2984H72.1534C73.3933 67.2984 74.4022 66.2896 74.4022 65.0497V55.9061C76.1169 55.8198 77.4509 54.5474 77.9051 52.5386L78.7759 48.7193C79.8709 48.3655 80.9358 47.9247 81.9605 47.4011L82.1117 47.4963V70.3817C82.1117 71.9589 80.8285 73.2421 79.2513 73.2421L79.2521 73.2425ZM50.7408 46.1885L53.8107 49.2642C54.0432 49.4978 54.3072 49.6977 54.5952 49.858V64.0701H47.3143V40.5531H50.9198L50.5174 41.1926C49.3795 42.9986 49.4656 44.9133 50.7408 46.1885ZM63.8932 48.1977C64.359 48.3858 64.8301 48.561 65.3084 48.7169L66.1791 52.5364C66.6503 54.6204 68.0662 55.9149 69.874 55.9149H71.1742V64.0701H63.8932V48.1977ZM96.7714 30.1318C96.7714 30.4058 96.2029 30.6096 95.9085 30.6776L91.1707 31.752C90.8862 31.8164 90.6246 31.9568 90.4135 32.1581C90.2024 32.3593 90.0498 32.614 89.9719 32.8951C89.5605 34.3774 88.9684 35.8036 88.209 37.1414C88.0649 37.3954 87.9924 37.6837 87.9991 37.9757C88.0059 38.2676 88.0918 38.5522 88.2475 38.7992L90.8382 42.9079C91.0013 43.1689 91.2586 43.7135 91.0661 43.9058L87.9915 46.9804C87.7992 47.1725 87.2544 46.9155 86.9982 46.7556L82.8833 44.1667C82.6359 44.0111 82.351 43.9255 82.0588 43.9191C81.7666 43.9127 81.4782 43.9858 81.2243 44.1304C79.8902 44.8902 78.4662 45.4796 76.9854 45.8848C76.7035 45.962 76.4478 46.1142 76.2456 46.3252C76.0435 46.5363 75.9024 46.7982 75.8374 47.0832L74.7568 51.8237C74.6895 52.1218 74.4899 52.6855 74.2169 52.6855H69.8736C69.5962 52.6855 69.3954 52.1218 69.3274 51.8208L68.2474 47.083C68.1827 46.7989 68.0422 46.5376 67.841 46.3269C67.6398 46.1162 67.3853 45.9638 67.1045 45.886C65.6245 45.4759 64.2009 44.8843 62.8662 44.1246C62.6122 43.9799 62.3237 43.9069 62.0315 43.9133C61.7392 43.9197 61.4542 44.0054 61.2068 44.1611L57.0881 46.7546C56.7867 46.9437 56.2732 47.1598 56.0946 46.9814L53.0247 43.9056C52.8301 43.7111 53.0863 43.1714 53.2495 42.9123L55.8383 38.7974C55.994 38.5501 56.0795 38.2652 56.0859 37.973C56.0923 37.6809 56.0193 37.3925 55.8746 37.1386C55.1147 35.8019 54.523 34.3764 54.1131 32.8945C54.0352 32.6135 53.8826 32.3588 53.6715 32.1575C53.4604 31.9562 53.1988 31.8159 52.9144 31.7514L48.1832 30.6784C47.8824 30.6088 47.3139 30.4052 47.3139 30.1312V25.7879C47.3139 25.5107 47.8775 25.3099 48.1781 25.242L52.9214 24.162C53.2065 24.0971 53.4685 23.956 53.6796 23.7538C53.8908 23.5516 54.043 23.2959 54.1202 23.014C54.5257 21.535 55.1151 20.1128 55.8746 18.7806C56.0192 18.5268 56.0922 18.2386 56.0859 17.9466C56.0796 17.6546 55.9943 17.3698 55.8389 17.1225L53.2468 12.9968C53.0843 12.7405 52.8289 12.2039 53.0247 12.0081L56.0936 8.93899C56.2891 8.74282 56.8258 8.99866 57.0877 9.16459L61.2082 11.7535C61.4555 11.9088 61.7403 11.9942 62.0323 12.0005C62.3243 12.0068 62.6125 11.9337 62.8662 11.7891C64.1985 11.0297 65.6207 10.4403 67.0997 10.0347C67.3816 9.95758 67.6373 9.80532 67.8395 9.59419C68.0417 9.38306 68.1827 9.12099 68.2476 8.83596L69.3283 4.09026C69.3956 3.79208 69.5964 3.22838 69.8738 3.22838H74.2171C74.4901 3.22838 74.6895 3.79208 74.7574 4.09268L75.8374 8.83596C75.9023 9.12099 76.0434 9.38304 76.2456 9.59417C76.4478 9.80529 76.7035 9.95756 76.9854 10.0347C78.4666 10.4416 79.8913 11.0314 81.2267 11.7906C81.4804 11.9346 81.7684 12.0071 82.0601 12.0005C82.3518 11.9939 82.6362 11.9083 82.8831 11.7529L86.999 9.16338C87.257 9.00068 87.7965 8.74464 87.9923 8.9402L91.0661 12.0081C91.2457 12.1879 91.0296 12.7012 90.8404 13.0022L88.2516 17.1227C88.0962 17.37 88.0109 17.6549 88.0046 17.9468C87.9983 18.2388 88.0713 18.527 88.2159 18.7808C88.9754 20.113 89.5648 21.5353 89.9703 23.0142C90.0474 23.2961 90.1996 23.5518 90.4107 23.754C90.6217 23.9561 90.8837 24.0972 91.1687 24.1622L95.9091 25.2428C96.2073 25.3101 96.771 25.5109 96.771 25.7883V30.1316L96.7714 30.1318ZM72.0458 14.5329C64.6418 14.5329 58.6185 20.5562 58.6185 27.9601C58.6185 35.364 64.6418 41.3815 72.0458 41.3815C79.4497 41.3815 85.4673 35.3606 85.4673 27.9601C85.4673 20.5596 79.4465 14.5329 72.0458 14.5329ZM72.0458 38.1527C66.4222 38.1527 61.8475 33.5804 61.8475 27.9601C61.8475 22.3398 66.4224 17.7618 72.0458 17.7618C77.6691 17.7618 82.2384 22.3368 82.2384 27.9601C82.2384 33.5834 77.666 38.1527 72.0458 38.1527Z" fill="black"/>
</svg>
