<svg width="100" height="96" viewBox="0 0 100 96" fill="none" xmlns="http://www.w3.org/2000/svg">
<path d="M99.4136 28.5863L71.4138 0.5864C71.2282 0.40051 71.0078 0.253035 70.7652 0.152414C70.5225 0.0517927 70.2624 0 69.9998 0C69.7371 0 69.477 0.0517927 69.2344 0.152414C68.9918 0.253035 68.7714 0.40051 68.5858 0.5864L0.586216 68.5861C0.273703 68.8984 0.0734068 69.3055 0.0166016 69.7436C-0.0402035 70.1818 0.04968 70.6264 0.272218 71.0081L14.2721 95.008C14.6301 95.622 15.2901 96 16.0001 96H34C34.532 96 35.04 95.79 35.414 95.414L99.4136 31.4143C99.5995 31.2287 99.747 31.0083 99.8476 30.7657C99.9482 30.523 100 30.2629 100 30.0003C100 29.7376 99.9482 29.4775 99.8476 29.2349C99.747 28.9923 99.5995 28.7719 99.4136 28.5863ZM33.172 92H17.1481L4.50419 70.3241L16.0001 58.8282L41.172 84L33.172 92ZM43.9999 81.1721L18.8281 56.0002L59.9998 14.8283L85.1717 40.0002L43.9999 81.1721ZM87.9997 37.1722L62.8278 12.0004L69.9998 4.82838L95.1716 30.0003L87.9997 37.1722ZM61.9998 94C61.9998 94.5304 61.7891 95.0391 61.4141 95.4142C61.039 95.7893 60.5303 96 59.9998 96H43.9999C43.4695 96 42.9608 95.7893 42.5857 95.4142C42.2107 95.0391 42 94.5304 42 94C42 93.4696 42.2107 92.9609 42.5857 92.5858C42.9608 92.2107 43.4695 92 43.9999 92H59.9998C60.5303 92 61.039 92.2107 61.4141 92.5858C61.7891 92.9609 61.9998 93.4696 61.9998 94ZM37.414 48.5862C37.2284 48.4003 37.008 48.2528 36.7654 48.1522C36.5227 48.0516 36.2627 47.9998 36 47.9998C35.7373 47.9998 35.4772 48.0516 35.2346 48.1522C34.992 48.2528 34.7716 48.4003 34.586 48.5862L28.586 54.5862C28.4001 54.7717 28.2527 54.9922 28.1521 55.2348C28.0514 55.4774 27.9996 55.7375 27.9996 56.0002C27.9996 56.2628 28.0514 56.5229 28.1521 56.7656C28.2527 57.0082 28.4001 57.2286 28.586 57.4142L32.586 61.4141C32.7713 61.6005 32.9916 61.7484 33.2343 61.8493C33.477 61.9503 33.7372 62.0022 34 62.0022C34.2628 62.0022 34.523 61.9503 34.7657 61.8493C35.0084 61.7484 35.2287 61.6005 35.414 61.4141L41.414 55.4142C41.5999 55.2286 41.7473 55.0082 41.8479 54.7656C41.9486 54.5229 42.0004 54.2628 42.0004 54.0002C42.0004 53.7375 41.9486 53.4774 41.8479 53.2348C41.7473 52.9922 41.5999 52.7718 41.414 52.5862L37.414 48.5862ZM34 57.1722L32.828 56.0002L36 52.8282L37.172 54.0002L34 57.1722ZM59.4139 29.4143L43.414 45.4142C43.2286 45.6006 43.0083 45.7485 42.7657 45.8494C42.523 45.9503 42.2628 46.0023 42 46.0023C41.7371 46.0023 41.4769 45.9503 41.2343 45.8494C40.9916 45.7485 40.7713 45.6006 40.586 45.4142C40.4001 45.2286 40.2526 45.0082 40.152 44.7656C40.0514 44.523 39.9996 44.2629 39.9996 44.0002C39.9996 43.7376 40.0514 43.4775 40.152 43.2348C40.2526 42.9922 40.4001 42.7718 40.586 42.5862L56.5859 26.5863C56.9609 26.2113 57.4695 26.0006 57.9999 26.0006C58.5302 26.0006 59.0388 26.2113 59.4139 26.5863C59.7889 26.9613 59.9995 27.4699 59.9995 28.0003C59.9995 28.5306 59.7889 29.0393 59.4139 29.4143ZM44.5859 46.5862L60.5858 30.5863C60.7715 30.4006 60.992 30.2533 61.2346 30.1528C61.4772 30.0523 61.7372 30.0006 61.9998 30.0006C62.2624 30.0006 62.5225 30.0523 62.7651 30.1528C63.0077 30.2533 63.2281 30.4006 63.4138 30.5863C63.5995 30.772 63.7468 30.9924 63.8473 31.235C63.9478 31.4776 63.9995 31.7377 63.9995 32.0003C63.9995 32.2629 63.9478 32.5229 63.8473 32.7655C63.7468 33.0081 63.5995 33.2286 63.4138 33.4143L47.4139 49.4142C47.2286 49.6006 47.0083 49.7485 46.7656 49.8494C46.523 49.9503 46.2627 50.0023 45.9999 50.0023C45.7371 50.0023 45.4769 49.9503 45.2342 49.8494C44.9916 49.7485 44.7712 49.6006 44.5859 49.4142C44.4001 49.2286 44.2526 49.0082 44.152 48.7656C44.0513 48.523 43.9995 48.2629 43.9995 48.0002C43.9995 47.7375 44.0513 47.4774 44.152 47.2348C44.2526 46.9922 44.4001 46.7718 44.5859 46.5862Z" fill="black"/>
</svg>
