<svg width="100" height="100" viewBox="0 0 100 100" fill="none" xmlns="http://www.w3.org/2000/svg">
<path d="M89.4458 74.5291L84.8083 79.1666L95.4625 89.825C95.6966 89.0717 95.8215 88.2887 95.8333 87.5V76.475L93.8875 74.5291C93.5961 74.2371 93.2499 74.0054 92.8688 73.8474C92.4878 73.6893 92.0792 73.6079 91.6667 73.6079C91.2541 73.6079 90.8456 73.6893 90.4645 73.8474C90.0834 74.0054 89.7373 74.2371 89.4458 74.5291ZM77.2208 74.5291C76.9294 74.2371 76.5832 74.0054 76.2022 73.8474C75.8211 73.6893 75.4126 73.6079 75 73.6079C74.5874 73.6079 74.1789 73.6893 73.7978 73.8474C73.4168 74.0054 73.0706 74.2371 72.7792 74.5291L62.5 84.8041V87.5C62.5 89.7101 63.378 91.8297 64.9408 93.3925C66.5036 94.9553 68.6232 95.8333 70.8333 95.8333H87.5C88.9382 95.8308 90.351 95.4547 91.6001 94.7418C92.8491 94.0289 93.8915 93.0037 94.625 91.7666C94.5333 91.7208 94.425 91.7291 94.35 91.6541L77.2208 74.5291Z" fill="black"/>
<path d="M78.6957 73.0542L83.3333 77.6917L87.9708 73.0542C88.9518 72.0757 90.2809 71.5261 91.6666 71.5261C93.0523 71.5261 94.3814 72.0757 95.3624 73.0542L95.8333 73.5251V70.8334C95.8333 68.6233 94.9553 66.5037 93.3925 64.9409C91.8297 63.3781 89.7101 62.5001 87.4999 62.5001H70.8333C68.6231 62.5001 66.5035 63.3781 64.9407 64.9409C63.3779 66.5037 62.4999 68.6233 62.4999 70.8334V81.8626L71.3041 73.0542C72.2851 72.0757 73.6142 71.5261 74.9999 71.5261C76.3856 71.5261 77.7147 72.0757 78.6957 73.0542ZM66.1958 23.0542L72.9166 29.7751L79.6374 23.0542C80.6185 22.0757 81.9476 21.5261 83.3333 21.5261C84.7189 21.5261 86.048 22.0757 87.0291 23.0542L95.8333 31.8584V12.5001C95.8333 10.2899 94.9553 8.17033 93.3925 6.60752C91.8297 5.04472 89.7101 4.16675 87.4999 4.16675H54.1666C51.9564 4.16675 49.8368 5.04472 48.274 6.60752C46.7112 8.17033 45.8333 10.2899 45.8333 12.5001V36.0251L58.8041 23.0542C59.7851 22.0757 61.1142 21.5261 62.4999 21.5261C63.8856 21.5261 65.2147 22.0757 66.1958 23.0542Z" fill="black"/>
<path d="M81.1124 24.5292L74.3916 31.25L94.0583 50.9167C95.2015 49.4682 95.8264 47.6785 95.8333 45.8333V34.8083L85.5541 24.5292C85.2627 24.2371 84.9165 24.0054 84.5354 23.8474C84.1543 23.6893 83.7458 23.6079 83.3333 23.6079C82.9207 23.6079 82.5122 23.6893 82.1311 23.8474C81.75 24.0054 81.4039 24.2371 81.1124 24.5292ZM60.2791 24.5292L45.8333 38.975V45.8333C45.8333 48.0435 46.7112 50.1631 48.274 51.7259C49.8368 53.2887 51.9565 54.1667 54.1666 54.1667H87.4999C89.3451 54.1598 91.1349 53.5349 92.5833 52.3917L64.7208 24.5292C64.4293 24.2371 64.0832 24.0054 63.7021 23.8474C63.321 23.6893 62.9125 23.6079 62.4999 23.6079C62.0874 23.6079 61.6789 23.6893 61.2978 23.8474C60.9167 24.0054 60.5705 24.2371 60.2791 24.5292ZM27.5249 53.0292C27.9513 53.1667 28.4112 53.1596 28.8332 53.0089C29.2551 52.8582 29.6155 52.5724 29.8583 52.1958C30.2573 51.6505 30.7789 51.2067 31.3811 50.9002C31.9833 50.5938 32.6492 50.4332 33.3249 50.4316C34.0006 50.43 34.6672 50.5873 35.2709 50.8909C35.8745 51.1945 36.3983 51.6358 36.7999 52.1791C37.0459 52.5539 37.4062 52.8393 37.8273 52.993C38.2484 53.1467 38.7079 53.1605 39.1374 53.0323C39.567 52.9041 39.9437 52.6407 40.2117 52.2813C40.4797 51.922 40.6246 51.4858 40.6249 51.0375V37.5H26.0416V51.0375C26.0334 51.4869 26.1746 51.9263 26.443 52.2867C26.7115 52.6472 27.092 52.9083 27.5249 53.0292Z" fill="black"/>
<path d="M43.75 45.8333V37.5H42.7083V51.0375C42.7198 51.9344 42.4366 52.8103 41.9022 53.5306C41.3678 54.251 40.6117 54.776 39.75 55.025C39.342 55.1489 38.918 55.2121 38.4916 55.2125C37.8121 55.2109 37.1438 55.0397 36.5472 54.7144C35.9505 54.3892 35.4445 53.9202 35.075 53.35C34.8787 53.0724 34.6189 52.8457 34.3172 52.6888C34.0155 52.5319 33.6807 52.4495 33.3407 52.4482C33.0007 52.447 32.6653 52.5271 32.3625 52.6818C32.0597 52.8365 31.7982 53.0613 31.6 53.3375C31.1058 54.0844 30.3841 54.6523 29.5419 54.9568C28.6996 55.2614 27.7817 55.2865 26.9241 55.0283C26.0665 54.7702 25.3149 54.2426 24.7807 53.5238C24.2465 52.805 23.9581 51.9331 23.9583 51.0375V37.5H8.33329C7.22822 37.5 6.16842 37.939 5.38701 38.7204C4.60561 39.5018 4.16663 40.5616 4.16663 41.6667V91.6667C4.16663 92.7717 4.60561 93.8316 5.38701 94.613C6.16842 95.3944 7.22822 95.8333 8.33329 95.8333H58.3333C59.154 95.8333 59.9564 95.5908 60.6399 95.1364C61.3233 94.682 61.8573 94.0359 62.175 93.2792C61.0275 91.5704 60.4153 89.5583 60.4166 87.5V70.8333C60.4232 68.5997 61.1543 66.4286 62.5 64.6458V56.25H54.1666C51.4046 56.2478 48.7564 55.1496 46.8034 53.1966C44.8503 51.2436 43.7522 48.5953 43.75 45.8333ZM29.1666 88.5417H12.5C12.2237 88.5417 11.9587 88.4319 11.7634 88.2366C11.568 88.0412 11.4583 87.7763 11.4583 87.5C11.4583 87.2237 11.568 86.9588 11.7634 86.7634C11.9587 86.5681 12.2237 86.4583 12.5 86.4583H29.1666C29.4429 86.4583 29.7078 86.5681 29.9032 86.7634C30.0985 86.9588 30.2083 87.2237 30.2083 87.5C30.2083 87.7763 30.0985 88.0412 29.9032 88.2366C29.7078 88.4319 29.4429 88.5417 29.1666 88.5417ZM29.1666 80.2083H12.5C12.2237 80.2083 11.9587 80.0986 11.7634 79.9032C11.568 79.7079 11.4583 79.4429 11.4583 79.1667C11.4583 78.8904 11.568 78.6254 11.7634 78.4301C11.9587 78.2347 12.2237 78.125 12.5 78.125H29.1666C29.4429 78.125 29.7078 78.2347 29.9032 78.4301C30.0985 78.6254 30.2083 78.8904 30.2083 79.1667C30.2083 79.4429 30.0985 79.7079 29.9032 79.9032C29.7078 80.0986 29.4429 80.2083 29.1666 80.2083ZM37.5 71.875H12.5C12.2237 71.875 11.9587 71.7653 11.7634 71.5699C11.568 71.3746 11.4583 71.1096 11.4583 70.8333C11.4583 70.5571 11.568 70.2921 11.7634 70.0968C11.9587 69.9014 12.2237 69.7917 12.5 69.7917H37.5C37.7762 69.7917 38.0412 69.9014 38.2365 70.0968C38.4319 70.2921 38.5416 70.5571 38.5416 70.8333C38.5416 71.1096 38.4319 71.3746 38.2365 71.5699C38.0412 71.7653 37.7762 71.875 37.5 71.875Z" fill="black"/>
</svg>
