<svg width="100" height="104" viewBox="0 0 100 104" fill="none" xmlns="http://www.w3.org/2000/svg">
<path d="M82.3339 45.1273C84.8785 45.1273 86.9487 43.0571 86.9487 40.5125C86.9487 37.9679 84.8785 35.8977 82.3339 35.8977C79.7893 35.8977 77.719 37.9679 77.719 40.5125C77.719 43.0573 79.7893 45.1273 82.3339 45.1273ZM82.3339 38.9245C83.2096 38.9245 83.922 39.637 83.922 40.5127C83.922 41.3884 83.2096 42.1009 82.3339 42.1009C81.4581 42.1009 80.7457 41.3884 80.7457 40.5127C80.7457 39.6368 81.4581 38.9245 82.3339 38.9245ZM55.6203 15.4466V18.5927L53.0244 14.6189C52.8461 14.346 52.5845 14.1379 52.2784 14.0257C51.9723 13.9135 51.6381 13.9031 51.3257 13.9961C51.0132 14.0892 50.7392 14.2806 50.5443 14.5419C50.3494 14.8033 50.2441 15.1206 50.2441 15.4466V23.6763C50.2441 24.512 50.9215 25.1896 51.7575 25.1896C52.5934 25.1896 53.2708 24.512 53.2708 23.6763V20.5302L55.8666 24.5039C56.045 24.7768 56.3067 24.9848 56.6128 25.097C56.9188 25.2092 57.2529 25.2196 57.5654 25.1266C57.8778 25.0336 58.1519 24.8422 58.3468 24.5809C58.5416 24.3195 58.6469 24.0023 58.6469 23.6763V15.4466C58.6469 14.6108 57.9696 13.9333 57.1336 13.9333C56.2976 13.9333 55.6203 14.6108 55.6203 15.4466ZM63.3362 16.9599H66.6445C67.4805 16.9599 68.1579 16.2824 68.1579 15.4466C68.1579 14.6108 67.4805 13.9333 66.6445 13.9333H63.3362C61.3616 13.9333 59.7553 15.5396 59.7553 17.5144V21.6087C59.7553 23.5832 61.3616 25.1898 63.3362 25.1898H64.5769C66.5515 25.1898 68.1579 23.5834 68.1579 21.6087V19.7085C68.1579 19.3072 67.9984 18.9222 67.7146 18.6384C67.4308 18.3546 67.0459 18.1952 66.6445 18.1952H65.1972C64.8014 18.195 64.4214 18.3499 64.1384 18.6266C63.8555 18.9033 63.6922 19.2799 63.6836 19.6755C63.675 20.0712 63.8217 20.4545 64.0923 20.7433C64.3629 21.032 64.7358 21.2033 65.1312 21.2204V21.6087C65.1311 21.7556 65.0727 21.8966 64.9688 22.0005C64.8648 22.1045 64.7239 22.163 64.5769 22.1631H63.3362C63.1892 22.163 63.0483 22.1045 62.9444 22.0005C62.8405 21.8966 62.782 21.7556 62.7819 21.6087V17.5144C62.782 17.3674 62.8405 17.2265 62.9444 17.1225C63.0483 17.0186 63.1892 16.9601 63.3362 16.9599Z" fill="black"/>
<path d="M98.4867 60.432C98.888 60.432 99.273 60.2726 99.5568 59.9888C99.8406 59.705 100 59.3201 100 58.9187V23.6762H99.9964C99.9971 23.4778 99.9586 23.2811 99.8832 23.0975C99.8078 22.9138 99.6969 22.7469 99.5569 22.6062L77.394 0.443303C77.1105 0.161303 76.7268 0.00313262 76.327 0.0034302L36.0887 0C34.6844 0 33.5415 1.14266 33.5415 2.54723V22.3308H2.54723C1.14266 22.3308 0 23.4735 0 24.878V100.763C0 102.167 1.14266 103.31 2.54723 103.31H63.9111C65.3156 103.31 66.4583 102.167 66.4583 100.763V96.8527C66.4583 96.0169 65.7809 95.3394 64.945 95.3394C64.109 95.3394 63.4316 96.0169 63.4316 96.8527V100.283H3.02665V25.3572H41.2689V45.3866C41.2689 46.5631 42.2262 47.5202 43.4025 47.5202H63.4316V89.7905C63.4316 90.6263 64.109 91.3038 64.945 91.3038C65.7809 91.3038 66.4583 90.6263 66.4583 89.7905L66.4575 80.9789H97.4526C98.8571 80.9789 99.9998 79.8363 99.9998 78.4317V65.9809C99.9998 65.1451 99.3224 64.4676 98.4865 64.4676C97.6505 64.4676 96.9732 65.1451 96.9732 65.9809V77.9523H66.4575L66.4567 67.469H90.5012C91.6777 67.469 92.6348 66.5118 92.6348 65.3354V32.5282C92.6348 31.3516 91.6777 30.3946 90.5012 30.3946H64.9315C64.0955 30.3946 63.4181 31.0722 63.4181 31.9079C63.4181 32.7437 64.0955 33.4212 64.9315 33.4212H89.6081V62.9999L78.4872 48.003C78.2497 47.6841 77.941 47.425 77.5858 47.2462C77.2306 47.0674 76.8386 46.9739 76.441 46.9732C75.6381 46.9732 74.8732 47.3581 74.395 48.003L68.5081 55.9415L66.4553 53.1731L66.4547 46.0034C66.455 45.6037 66.297 45.2201 66.0152 44.9366L54.4996 33.4212H57.8693C58.7052 33.4212 59.3826 32.7437 59.3826 31.9079C59.3826 31.0722 58.7052 30.3946 57.8693 30.3946H51.473L43.9334 22.855V21.3687H45.7286C47.7032 21.3687 49.3095 19.7624 49.3095 17.7876V17.5144C49.3095 15.5398 47.7032 13.9333 45.7286 13.9333H42.4201C42.0187 13.9333 41.6338 14.0927 41.35 14.3765C41.0662 14.6603 40.9067 15.0452 40.9067 15.4466V22.3306H36.5683V3.02665H74.8104V23.056C74.8104 24.2325 75.7675 25.1896 76.944 25.1896H96.9734V58.9187C96.9734 59.3201 97.1328 59.705 97.4166 59.9888C97.7004 60.2726 98.0853 60.432 98.4867 60.432ZM67.2926 59.3836C67.4334 59.5734 67.6167 59.7276 67.8277 59.8338C68.0388 59.9401 68.2718 59.9954 68.5081 59.9954C68.7445 59.9954 68.9775 59.9401 69.1885 59.8338C69.3996 59.7276 69.5829 59.5734 69.7236 59.3836L76.4408 50.3251L86.9096 64.4421H66.4563L66.4557 58.2549L67.2926 59.3836ZM43.9334 16.9599H45.7286C45.8756 16.9601 46.0165 17.0186 46.1204 17.1225C46.2243 17.2265 46.2828 17.3674 46.2829 17.5144V17.7876C46.2828 17.9346 46.2243 18.0755 46.1204 18.1795C46.0165 18.2834 45.8756 18.3419 45.7286 18.3421H43.9334V16.9599ZM44.2956 27.4975L61.2916 44.4935H44.2956V27.4975ZM77.8371 22.1629V5.16669L94.8331 22.1627L77.8371 22.1629Z" fill="black"/>
<path d="M9.65782 41.8484C9.25646 41.8484 8.87154 42.0078 8.58774 42.2916C8.30393 42.5754 8.14449 42.9604 8.14449 43.3617V43.9392C8.14449 45.9138 9.75084 47.5201 11.7256 47.5201H12.9665C14.9411 47.5201 16.5475 45.9138 16.5475 43.9392V37.7774C16.5475 37.376 16.388 36.9911 16.1042 36.7073C15.8204 36.4235 15.4355 36.264 15.0342 36.264C14.6328 36.264 14.2479 36.4235 13.9641 36.7073C13.6803 36.9911 13.5208 37.376 13.5208 37.7774V43.9392C13.5207 44.0862 13.4622 44.2271 13.3583 44.331C13.2544 44.4349 13.1135 44.4933 12.9665 44.4935H11.7256C11.5786 44.4934 11.4377 44.435 11.3337 44.331C11.2298 44.2271 11.1713 44.0862 11.1711 43.9392V43.3617C11.1711 42.9604 11.0117 42.5754 10.7279 42.2916C10.4441 42.0078 10.0592 41.8484 9.65782 41.8484ZM20.8399 46.0068V43.6993H22.6351C24.6097 43.6993 26.2162 42.093 26.2162 40.1184V39.845C26.2162 37.8704 24.6099 36.264 22.6351 36.264H19.3265C18.9252 36.264 18.5403 36.4235 18.2565 36.7073C17.9727 36.9911 17.8132 37.376 17.8132 37.7774V46.0068C17.8132 46.4082 17.9727 46.7931 18.2565 47.0769C18.5403 47.3607 18.9252 47.5201 19.3265 47.5201C19.7279 47.5201 20.1128 47.3607 20.3966 47.0769C20.6804 46.7931 20.8399 46.4082 20.8399 46.0068ZM20.8399 39.2907H22.6351C22.7821 39.2908 22.923 39.3492 23.027 39.4531C23.1309 39.5571 23.1894 39.698 23.1896 39.845V40.1184C23.1894 40.2654 23.1309 40.4063 23.027 40.5102C22.923 40.6141 22.7821 40.6725 22.6351 40.6727H20.8399V39.2907ZM30.7477 39.2907H34.0562C34.4576 39.2907 34.8425 39.1312 35.1263 38.8474C35.4101 38.5636 35.5695 38.1787 35.5695 37.7774C35.5695 37.376 35.4101 36.9911 35.1263 36.7073C34.8425 36.4235 34.4576 36.264 34.0562 36.264H30.7477C28.7731 36.264 27.1666 37.8704 27.1666 39.845V43.9392C27.1666 45.9138 28.7729 47.5201 30.7477 47.5201H31.9886C33.9632 47.5201 35.5695 45.9138 35.5695 43.9392V42.0391C35.5695 41.6377 35.4101 41.2528 35.1263 40.969C34.8425 40.6852 34.4576 40.5258 34.0562 40.5258H32.6089C32.2131 40.5256 31.8331 40.6805 31.5501 40.9572C31.2672 41.2339 31.1039 41.6104 31.0953 42.0061C31.0867 42.4017 31.2334 42.785 31.504 43.0738C31.7746 43.3626 32.1475 43.5339 32.5429 43.551V43.9392C32.5427 44.0862 32.4843 44.2271 32.3804 44.331C32.2765 44.4349 32.1356 44.4933 31.9886 44.4935H30.7477C30.6007 44.4934 30.4598 44.435 30.3558 44.331C30.2518 44.2271 30.1934 44.0862 30.1932 43.9392V39.845C30.1935 39.698 30.252 39.5571 30.3559 39.4533C30.4599 39.3494 30.6007 39.2909 30.7477 39.2907ZM59.0932 87.666V54.8589C59.0932 53.6824 58.1362 52.7254 56.9597 52.7254H9.49882C8.32226 52.7254 7.36523 53.6826 7.36523 54.8589V87.666C7.36523 88.8425 8.32246 89.7996 9.49882 89.7996H56.9597C58.1362 89.7996 59.0932 88.8423 59.0932 87.666ZM56.0666 55.752V85.3308L44.9455 70.3336C44.46 69.6792 43.7142 69.3037 42.8995 69.3037C42.0847 69.3037 41.3389 69.679 40.8535 70.3336L34.9666 78.2721L26.038 66.2319C25.8006 65.9129 25.492 65.6538 25.1368 65.4749C24.7816 65.2961 24.3897 65.2026 23.992 65.2018H23.9918C23.1889 65.2018 22.424 65.5868 21.9458 66.2317L10.3915 81.8129V55.752H56.0666ZM10.4819 86.7729L23.9922 68.5541L33.7513 81.7144C33.8921 81.9042 34.0754 82.0584 34.2864 82.1646C34.4975 82.2709 34.7305 82.3262 34.9668 82.3262C35.2031 82.3262 35.4362 82.2709 35.6472 82.1646C35.8583 82.0584 36.0416 81.9042 36.1823 81.7144L42.8997 72.6558L53.3682 86.7729H10.4819Z" fill="black"/>
<path d="M48.7924 67.4581C51.337 67.4581 53.4072 65.3878 53.4072 62.8432C53.4072 60.2986 51.337 58.2284 48.7924 58.2284C46.2478 58.2284 44.1775 60.2986 44.1775 62.8432C44.1777 65.3878 46.2478 67.4581 48.7924 67.4581ZM48.7924 61.255C49.6681 61.255 50.3805 61.9675 50.3805 62.8432C50.3805 63.7189 49.6681 64.4314 48.7924 64.4314C47.9166 64.4314 47.2042 63.7189 47.2042 62.8432C47.2044 61.9675 47.9166 61.255 48.7924 61.255ZM8.87856 92.8379C8.4772 92.8379 8.09228 92.9973 7.80848 93.2811C7.52467 93.5649 7.36523 93.9499 7.36523 94.3512C7.36523 94.7526 7.52467 95.1375 7.80848 95.4213C8.09228 95.7051 8.4772 95.8645 8.87856 95.8645H17.7218C18.1232 95.8645 18.5081 95.7051 18.7919 95.4213C19.0757 95.1375 19.2351 94.7526 19.2351 94.3512C19.2351 93.9499 19.0757 93.5649 18.7919 93.2811C18.5081 92.9973 18.1232 92.8379 17.7218 92.8379H8.87856Z" fill="black"/>
</svg>
