<svg width="83" height="83" viewBox="0 0 83 83" fill="none" xmlns="http://www.w3.org/2000/svg">
<path d="M0.5 13V0.5H13M69.25 0.5H81.75V13M81.75 69.25V81.75H69.25M13 81.75H0.5V69.25" fill="black"/>
<path d="M0.5 13V0.5H13M69.25 0.5H81.75V13M81.75 69.25V81.75H69.25M13 81.75H0.5V69.25" stroke="black" stroke-miterlimit="10" stroke-linecap="round" stroke-linejoin="round"/>
<path d="M13 75.5C12.0625 75.5 11.125 75.1875 10.5 74.25C9.875 73.625 9.875 72.6875 9.875 71.75C11.4375 64.25 16.75 58 24.25 56.125C27.6875 55.1875 30.1875 52.375 30.8125 48.9375C26.4375 45.5 23.9375 39.875 23.9375 34.25V24.875C23.9375 20.8125 25.8125 16.75 28.9375 14.25C31.125 12.6875 33.3125 11.75 35.8125 12.0625C39.25 8.3125 43.9375 6.75 48.9375 7.0625C57.0625 8 63.3125 15.1875 63.3125 24.25V29.875C63.3125 31.75 62.0625 33 60.1875 33C59.25 33 58.625 33.9375 58.625 34.875C58.625 40.5 56.125 45.8125 51.75 49.25C52.375 52.6875 54.875 55.5 58 56.4375C65.1875 58.3125 71.125 64.5625 72.375 72.0625C72.6875 73 72.375 73.9375 71.75 74.5625C71.125 75.1875 70.1875 75.5 69.25 75.5H13Z" fill="black"/>
</svg>
