<svg width="100" height="85" viewBox="0 0 100 85" fill="none" xmlns="http://www.w3.org/2000/svg">
<path d="M100 34.3501C100 35.4924 99.0628 36.4238 97.9173 36.4238C96.7719 36.4238 95.8334 35.4924 95.8334 34.3501C95.8334 33.2115 96.7719 32.2776 97.9173 32.2776C99.0628 32.2776 100 33.2115 100 34.3501ZM100 8.29238V26.0577C100 27.2 99.0628 28.1314 97.9173 28.1314C96.7719 28.1314 95.8334 27.2 95.8334 26.0577V8.29238C95.8305 7.19364 95.3906 6.14075 94.6098 5.36382C93.8291 4.58689 92.771 4.14912 91.6669 4.14619H16.6663C15.562 4.1488 14.5038 4.58646 13.7229 5.36346C12.9421 6.14046 12.5023 7.19354 12.4997 8.29238V10.3661H24.9994C26.6564 10.3677 28.2451 11.0234 29.4169 12.1892C30.5887 13.3551 31.2479 14.9359 31.2498 16.5848V37.3169H60.417C62.6265 37.3189 64.7449 38.1932 66.3073 39.7479C67.8696 41.3026 68.7482 43.4107 68.7502 45.6093L69.4964 55.9754H95.8334V42.6227C95.8545 41.4829 96.7719 40.57 97.9173 40.57C99.0628 40.57 100 41.5038 100 42.6437V68.414C99.9977 70.6127 99.1191 72.7207 97.5568 74.2755C95.9946 75.8303 93.8764 76.705 91.6669 76.7076H75.0006V78.7801C74.9987 80.4291 74.3395 82.01 73.1677 83.1761C71.996 84.3421 70.4073 84.998 68.7502 85H6.24923C4.59222 84.998 3.00366 84.3421 1.83209 83.176C0.660527 82.0099 0.00164078 80.429 3.68981e-07 78.7801V74.6339C-0.00016249 74.3616 0.0535878 74.092 0.158178 73.8404C0.262769 73.5888 0.41615 73.3602 0.609559 73.1676C0.802969 72.9751 1.03262 72.8223 1.28538 72.7181C1.53814 72.6138 1.80906 72.5602 2.08266 72.5602H4.31037L5.21037 60.0279C3.75509 59.7827 2.43382 59.0333 1.48029 57.9122C0.526759 56.7911 0.00241135 55.3705 3.68981e-07 53.9017V16.5848C0.00196884 14.9361 0.661 13.3555 1.83253 12.1897C3.00406 11.0239 4.59243 10.3681 6.24923 10.3661H8.33313V8.29238C8.3328 7.20332 8.54812 6.12487 8.96679 5.11864C9.38545 4.11242 9.99925 3.19814 10.7731 2.42806C11.547 1.65798 12.4658 1.04718 13.4769 0.63056C14.4881 0.213944 15.5718 -0.000323807 16.6663 3.67291e-07H91.6669C92.7613 -0.000323807 93.845 0.213944 94.8562 0.63056C95.8674 1.04718 96.7861 1.65798 97.56 2.42806C98.3339 3.19814 98.9477 4.11242 99.3663 5.11864C99.785 6.12487 100 7.20332 100 8.29238ZM24.9994 14.5123H6.24923C5.10004 14.5123 4.16656 15.4412 4.16656 16.5848V53.9017C4.16656 54.7862 4.7269 55.5363 5.51162 55.8336C5.7422 55.9211 5.98889 55.9742 6.25047 55.9742H25.0006C26.1498 55.9742 27.0845 55.044 27.0845 53.9005V16.5848C27.0835 16.035 26.8635 15.508 26.4726 15.1195C26.0817 14.731 25.5519 14.5126 24.9994 14.5123ZM60.417 41.4631H31.2498V53.9017C31.2498 54.6295 31.1172 55.3253 30.8854 55.9754C30.6122 56.7406 30.191 57.4451 29.6457 58.0491C29.0614 58.7006 28.3456 59.2219 27.5449 59.579C26.7442 59.9362 25.8768 60.1211 24.9994 60.1216H9.37694L8.62941 70.5741L8.48809 72.5602H66.5125L65.62 60.1216L65.4712 58.0491L65.3224 55.9754L64.5898 45.7574C64.5836 43.3234 62.7142 41.4631 60.417 41.4631ZM69.794 60.1216L70.689 72.5602H91.6669C92.7715 72.5589 93.8305 72.1216 94.6116 71.3444C95.3927 70.5671 95.8321 69.5132 95.8334 68.414V60.1216H69.794ZM70.8341 76.7064H4.16656V78.7789C4.16656 79.9224 5.10004 80.8513 6.24923 80.8513H68.7502C69.8993 80.8513 70.8341 79.9224 70.8341 78.7789V76.7064ZM17.7076 47.6818H13.541C13.1592 47.6818 12.8071 47.7916 12.4997 47.9692C11.8799 48.3282 11.4584 48.9894 11.4584 49.7555C11.4584 50.5228 11.8799 51.1828 12.4997 51.5418C12.8071 51.7194 13.1592 51.8292 13.541 51.8292H17.7076C17.9812 51.8292 18.2521 51.7756 18.5049 51.6714C18.7576 51.5671 18.9873 51.4144 19.1807 51.2218C19.3741 51.0292 19.5275 50.8006 19.6321 50.549C19.7367 50.2974 19.7904 50.0278 19.7902 49.7555C19.7906 49.4832 19.7369 49.2135 19.6324 48.9618C19.5279 48.7102 19.3745 48.4815 19.1811 48.2889C18.9876 48.0963 18.7579 47.9435 18.5051 47.8394C18.2522 47.7352 17.9812 47.6816 17.7076 47.6818ZM52.0839 58.0479C52.0839 58.8127 51.6599 59.5171 50.9806 59.8774L50.5231 60.1204L39.2619 66.0973C38.9444 66.2662 38.5883 66.3501 38.2284 66.3408C37.8685 66.3315 37.5172 66.2293 37.209 66.0442C36.9007 65.8598 36.6455 65.5992 36.4683 65.2878C36.291 64.9763 36.1977 64.6245 36.1974 64.2666V51.828C36.1969 51.4697 36.2897 51.1174 36.4669 50.8054C36.644 50.4935 36.8994 50.2326 37.2081 50.0482C37.5168 49.8637 37.8683 49.7621 38.2283 49.7532C38.5882 49.7443 38.9444 49.8284 39.2619 49.9973L50.5231 55.9742L50.9806 56.2172C51.6599 56.5774 52.0839 57.2831 52.0839 58.0479ZM45.5731 58.0479L41.6669 55.9742L40.3652 55.2834V60.8112L41.6656 60.1204L45.5731 58.0479ZM63.4815 16.8278C63.8153 17.0043 64.0945 17.2679 64.2892 17.5903C64.4839 17.9127 64.5868 18.2817 64.5868 18.6579C64.5868 19.034 64.4839 19.403 64.2892 19.7254C64.0945 20.0478 63.8153 20.3114 63.4815 20.4879L51.7628 26.7066C51.4453 26.8747 51.0894 26.9582 50.7299 26.949C50.3703 26.9398 50.0192 26.8382 49.7108 26.6541C49.4023 26.4699 49.147 26.2095 48.9696 25.8982C48.7922 25.5868 48.6988 25.2351 48.6983 24.8771V12.4386C48.698 12.0804 48.791 11.7282 48.9683 11.4164C49.1455 11.1047 49.4009 10.8439 49.7096 10.6596C50.0183 10.4754 50.3697 10.3739 50.7295 10.365C51.0894 10.3561 51.4454 10.4403 51.7628 10.6091L63.4815 16.8278ZM58.0728 18.6585L52.8649 15.8952V21.4218L58.0728 18.6585ZM12.4997 21.6303L21.9051 27.2457C22.2129 27.4305 22.4674 27.6912 22.6441 28.0027C22.8208 28.3141 22.9136 28.6657 22.9136 29.0233C22.9136 29.381 22.8208 29.7326 22.6441 30.044C22.4674 30.3555 22.2129 30.6162 21.9051 30.801L12.4997 36.4176L11.4881 37.0209C11.1723 37.2106 10.8114 37.3132 10.4425 37.3184C10.0736 37.3236 9.71 37.231 9.38892 37.0502C9.06783 36.8694 8.80084 36.6069 8.61531 36.2896C8.42978 35.9723 8.33239 35.6116 8.33313 35.2445V22.8047C8.33295 22.4378 8.43067 22.0774 8.61629 21.7603C8.80191 21.4433 9.06878 21.181 9.38964 21.0002C9.71049 20.8194 10.0738 20.7267 10.4425 20.7314C10.8112 20.7361 11.172 20.8381 11.4881 21.027L12.4997 21.6303ZM16.784 29.0233L12.4997 26.466V31.5794L16.784 29.0233Z" fill="black"/>
</svg>
