<svg width="100" height="100" viewBox="0 0 100 100" fill="none" xmlns="http://www.w3.org/2000/svg">
<g clip-path="url(#clip0_31_6)">
<path d="M83.0648 99.818C82.8273 99.818 82.5921 99.7713 82.3726 99.6805C82.1532 99.5896 81.9538 99.4564 81.7858 99.2884C81.6178 99.1205 81.4846 98.9211 81.3938 98.7016C81.3029 98.4821 81.2562 98.2469 81.2563 98.0094V90.275H73.8506V98.0094C73.8507 98.2469 73.8039 98.4821 73.7131 98.7016C73.6222 98.9211 73.489 99.1205 73.321 99.2884C73.1531 99.4564 72.9537 99.5896 72.7342 99.6805C72.5147 99.7713 72.2795 99.818 72.042 99.818C71.8045 99.818 71.5692 99.7713 71.3498 99.6805C71.1303 99.5896 70.9309 99.4564 70.763 99.2884C70.595 99.1205 70.4618 98.9211 70.3709 98.7016C70.28 98.4821 70.2333 98.2469 70.2334 98.0094V90.275H62.8492V98.0094C62.8493 98.2469 62.8026 98.4821 62.7117 98.7016C62.6208 98.9211 62.4876 99.1205 62.3197 99.2884C62.1517 99.4564 61.9523 99.5896 61.7328 99.6805C61.5134 99.7713 61.2782 99.818 61.0406 99.818C60.8031 99.818 60.5679 99.7713 60.3484 99.6805C60.129 99.5896 59.9295 99.4564 59.7616 99.2884C59.5936 99.1205 59.4604 98.9211 59.3695 98.7016C59.2787 98.4821 59.232 98.2469 59.232 98.0094V90.275H51.8262V98.0094C51.8263 98.2469 51.7795 98.4821 51.6887 98.7016C51.5978 98.9211 51.4646 99.1205 51.2966 99.2884C51.1287 99.4564 50.9293 99.5896 50.7098 99.6805C50.4903 99.7713 50.2551 99.818 50.0176 99.818C49.78 99.818 49.5448 99.7713 49.3254 99.6805C49.1059 99.5896 48.9065 99.4564 48.7385 99.2884C48.5706 99.1205 48.4374 98.9211 48.3465 98.7016C48.2556 98.4821 48.2089 98.2469 48.209 98.0094V90.275H40.8602V98.0094C40.8602 98.2469 40.8135 98.4821 40.7226 98.7016C40.6318 98.9211 40.4986 99.1205 40.3306 99.2884C40.1626 99.4564 39.9632 99.5896 39.7438 99.6805C39.5243 99.7713 39.2891 99.818 39.0516 99.818C38.814 99.818 38.5788 99.7713 38.3594 99.6805C38.1399 99.5896 37.9405 99.4564 37.7725 99.2884C37.6046 99.1205 37.4713 98.9211 37.3805 98.7016C37.2896 98.4821 37.2429 98.2469 37.243 98.0094V90.275H29.8562V98.0094C29.8563 98.2469 29.8096 98.4821 29.7187 98.7016C29.6279 98.9211 29.4947 99.1205 29.3267 99.2884C29.1587 99.4564 28.9593 99.5896 28.7399 99.6805C28.5204 99.7713 28.2852 99.818 28.0477 99.818C27.8101 99.8181 27.5749 99.7714 27.3554 99.6805C27.1359 99.5897 26.9365 99.4565 26.7685 99.2885C26.6005 99.1205 26.4673 98.9211 26.3764 98.7016C26.2855 98.4822 26.2388 98.2469 26.2389 98.0094V90.275H18.8359V98.0094C18.836 98.2469 18.7893 98.4821 18.6984 98.7016C18.6076 98.9211 18.4743 99.1205 18.3064 99.2884C18.1384 99.4564 17.939 99.5896 17.7196 99.6805C17.5001 99.7713 17.2649 99.818 17.0273 99.818C16.7898 99.8181 16.5546 99.7714 16.3351 99.6805C16.1156 99.5897 15.9162 99.4565 15.7482 99.2885C15.5802 99.1205 15.447 98.9211 15.3561 98.7016C15.2652 98.4822 15.2185 98.2469 15.2186 98.0094V90.2697C12.2342 90.1365 9.82793 87.7307 9.69492 84.7459H1.80859C0.80918 84.7459 9.49846e-08 83.9367 9.49846e-08 82.9373C9.49846e-08 81.9379 0.80918 81.1287 1.80859 81.1287H9.68945V73.742H1.80859C1.57106 73.7421 1.33585 73.6953 1.11638 73.6045C0.89692 73.5136 0.697512 73.3804 0.529553 73.2124C0.361594 73.0445 0.228377 72.8451 0.137514 72.6256C0.0466512 72.4061 -7.68959e-05 72.1709 9.49846e-08 71.9334C-7.68959e-05 71.6959 0.0466512 71.4607 0.137514 71.2412C0.228377 71.0217 0.361594 70.8223 0.529553 70.6544C0.697512 70.4864 0.89692 70.3532 1.11638 70.2623C1.33585 70.1715 1.57106 70.1247 1.80859 70.1248H9.68945V62.7188H1.80859C1.57106 62.7188 1.33585 62.6721 1.11638 62.5812C0.89692 62.4904 0.697512 62.3572 0.529553 62.1892C0.361594 62.0212 0.228377 61.8218 0.137514 61.6024C0.0466512 61.3829 -7.68959e-05 61.1477 9.49846e-08 60.9102C-7.68959e-05 60.6726 0.0466512 60.4374 0.137514 60.218C0.228377 59.9985 0.361594 59.7991 0.529553 59.6311C0.697512 59.4632 0.89692 59.3299 1.11638 59.2391C1.33585 59.1482 1.57106 59.1015 1.80859 59.1016H9.68945V51.7527H1.80859C1.57106 51.7528 1.33585 51.7061 1.11638 51.6152C0.89692 51.5244 0.697512 51.3911 0.529553 51.2232C0.361594 51.0552 0.228377 50.8558 0.137514 50.6364C0.0466512 50.4169 -7.68959e-05 50.1817 9.49846e-08 49.9441C-7.68959e-05 49.7066 0.0466512 49.4714 0.137514 49.2519C0.228377 49.0325 0.361594 48.8331 0.529553 48.6651C0.697512 48.4971 0.89692 48.3639 1.11638 48.2731C1.33585 48.1822 1.57106 48.1355 1.80859 48.1356H9.68945V40.7516H1.80859C0.80918 40.7516 9.49846e-08 39.9422 9.49846e-08 38.943C9.49846e-08 37.9438 0.80918 37.1344 1.80859 37.1344H9.68945V29.7285H1.80859C0.80918 29.7285 9.49846e-08 28.9191 9.49846e-08 27.9199C9.49846e-08 26.9207 0.80918 26.1113 1.80859 26.1113H9.68945V18.7082H1.80859C0.80918 18.7082 9.49846e-08 17.899 9.49846e-08 16.8996C9.49846e-08 15.9002 0.80918 15.091 1.80859 15.091H9.69531C9.82812 12.1065 12.2344 9.7004 15.2189 9.56719V1.99063C15.2189 1.7531 15.2656 1.51788 15.3565 1.29842C15.4473 1.07896 15.5805 0.879549 15.7485 0.711591C15.9165 0.543632 16.1159 0.410415 16.3353 0.319552C16.5548 0.228689 16.79 0.181961 17.0275 0.182038C17.2651 0.181961 17.5003 0.228689 17.7197 0.319552C17.9392 0.410415 18.1386 0.543632 18.3066 0.711591C18.4745 0.879549 18.6078 1.07896 18.6986 1.29842C18.7895 1.51788 18.8362 1.7531 18.8361 1.99063V9.56192H26.2393V1.99063C26.2392 1.7531 26.2859 1.51788 26.3768 1.29842C26.4676 1.07896 26.6009 0.879549 26.7688 0.711591C26.9368 0.543632 27.1362 0.410415 27.3556 0.319552C27.5751 0.228689 27.8103 0.181961 28.0479 0.182038C28.2854 0.181961 28.5206 0.228689 28.7401 0.319552C28.9595 0.410415 29.1589 0.543632 29.3269 0.711591C29.4949 0.879549 29.6281 1.07896 29.7189 1.29842C29.8098 1.51788 29.8565 1.7531 29.8564 1.99063V9.56192H37.2432V1.99063C37.2431 1.7531 37.2898 1.51788 37.3807 1.29842C37.4715 1.07896 37.6048 0.879549 37.7727 0.711591C37.9407 0.543632 38.1401 0.410415 38.3595 0.319552C38.579 0.228689 38.8142 0.181961 39.0518 0.182038C39.2893 0.181961 39.5245 0.228689 39.744 0.319552C39.9634 0.410415 40.1628 0.543632 40.3308 0.711591C40.4988 0.879549 40.632 1.07896 40.7228 1.29842C40.8137 1.51788 40.8604 1.7531 40.8604 1.99063V9.56192H48.2092V1.99063C48.2091 1.7531 48.2558 1.51788 48.3467 1.29842C48.4376 1.07896 48.5708 0.879549 48.7387 0.711591C48.9067 0.543632 49.1061 0.410415 49.3256 0.319552C49.545 0.228689 49.7802 0.181961 50.0178 0.182038C50.2553 0.181961 50.4905 0.228689 50.71 0.319552C50.9294 0.410415 51.1289 0.543632 51.2968 0.711591C51.4648 0.879549 51.598 1.07896 51.6889 1.29842C51.7797 1.51788 51.8264 1.7531 51.8264 1.99063V9.56192H59.2322V1.99063C59.2322 1.7531 59.2789 1.51788 59.3697 1.29842C59.4606 1.07896 59.5938 0.879549 59.7618 0.711591C59.9297 0.543632 60.1291 0.410415 60.3486 0.319552C60.5681 0.228689 60.8033 0.181961 61.0408 0.182038C61.2783 0.181961 61.5136 0.228689 61.733 0.319552C61.9525 0.410415 62.1519 0.543632 62.3199 0.711591C62.4878 0.879549 62.621 1.07896 62.7119 1.29842C62.8028 1.51788 62.8495 1.7531 62.8494 1.99063V9.56192H70.2334V1.99063C70.2333 1.7531 70.28 1.51788 70.3709 1.29842C70.4618 1.07896 70.595 0.879549 70.763 0.711591C70.9309 0.543632 71.1303 0.410415 71.3498 0.319552C71.5692 0.228689 71.8045 0.181961 72.042 0.182038C72.2795 0.181935 72.5148 0.228644 72.7343 0.319496C72.9537 0.410347 73.1532 0.54356 73.3212 0.711522C73.4891 0.879483 73.6224 1.0789 73.7132 1.29838C73.8041 1.51785 73.8509 1.75309 73.8508 1.99063V9.56192H81.2564V1.99063C81.2564 0.991217 82.0658 0.182038 83.065 0.182038C84.0643 0.182038 84.8736 0.991217 84.8736 1.99063V9.56739C87.8584 9.7004 90.2643 12.1065 90.3975 15.091H98.1916C98.4291 15.0909 98.6644 15.1377 98.8838 15.2285C99.1033 15.3194 99.3027 15.4526 99.4706 15.6206C99.6386 15.7885 99.7718 15.9879 99.8627 16.2074C99.9535 16.4269 100 16.6621 100 16.8996C100 17.1372 99.9536 17.3724 99.8627 17.5919C99.7719 17.8114 99.6387 18.0108 99.4707 18.1788C99.3027 18.3468 99.1033 18.48 98.8839 18.5709C98.6644 18.6617 98.4291 18.7085 98.1916 18.7084H90.4029V26.1113H98.1916C99.1908 26.1113 100 26.9207 100 27.9199C100 28.9191 99.1908 29.7285 98.1916 29.7285H90.4029V37.1344H98.1916C99.1908 37.1344 100 37.9438 100 38.943C100 39.9422 99.1908 40.7516 98.1916 40.7516H90.4029V48.1004H98.1916C98.4291 48.1003 98.6644 48.147 98.8838 48.2379C99.1033 48.3288 99.3027 48.462 99.4706 48.63C99.6386 48.7979 99.7718 48.9973 99.8627 49.2168C99.9535 49.4362 100 49.6715 100 49.909C100 50.1465 99.9535 50.3817 99.8627 50.6012C99.7718 50.8207 99.6386 51.0201 99.4706 51.188C99.3027 51.356 99.1033 51.4892 98.8838 51.5801C98.6644 51.6709 98.4291 51.7177 98.1916 51.7176H90.4029V59.1016H98.1916C98.4291 59.1015 98.6644 59.1482 98.8838 59.2391C99.1033 59.3299 99.3027 59.4632 99.4706 59.6311C99.6386 59.7991 99.7718 59.9985 99.8627 60.218C99.9535 60.4374 100 60.6726 100 60.9102C100 61.1477 99.9536 61.3829 99.8627 61.6024C99.7719 61.8219 99.6387 62.0213 99.4707 62.1893C99.3027 62.3573 99.1033 62.4905 98.8839 62.5814C98.6644 62.6723 98.4291 62.719 98.1916 62.719H90.4029V70.1246H98.1916C98.4291 70.1245 98.6644 70.1713 98.8838 70.2621C99.1033 70.353 99.3027 70.4862 99.4706 70.6542C99.6386 70.8221 99.7718 71.0215 99.8627 71.241C99.9535 71.4605 100 71.6957 100 71.9332C100 72.1707 99.9535 72.406 99.8627 72.6254C99.7718 72.8449 99.6386 73.0443 99.4706 73.2122C99.3027 73.3802 99.1033 73.5134 98.8838 73.6043C98.6644 73.6951 98.4291 73.7419 98.1916 73.7418H90.4029V81.1285H98.1916C99.1908 81.1285 100 81.9379 100 82.9371C100 83.9363 99.1908 84.7459 98.1916 84.7459H90.3975C90.2645 87.7305 87.8584 90.1365 84.8738 90.2697V98.0094C84.8739 98.2469 84.8272 98.4821 84.7363 98.7016C84.6454 98.9211 84.5122 99.1205 84.3443 99.2884C84.1763 99.4564 83.9769 99.5896 83.7574 99.6805C83.538 99.7713 83.3028 99.818 83.0652 99.818H83.0648ZM15.4768 13.1793C14.2791 13.1793 13.3068 14.1516 13.3068 15.3492V84.4879C13.3068 85.6856 14.2791 86.6578 15.4768 86.6578H84.6154C85.8133 86.6578 86.7854 85.6856 86.7854 84.4879V15.3492C86.7854 14.1516 85.8133 13.1793 84.6154 13.1793H15.4768Z" fill="black"/>
<path fill-rule="evenodd" clip-rule="evenodd" d="M28.0118 23.5774H72.0063C74.4331 23.5774 76.4222 25.5664 76.4222 27.9934V72.0059C76.4222 74.4328 74.4331 76.4219 72.0061 76.4219H28.0118C25.5665 76.4219 23.5776 74.4328 23.5776 72.0059V27.9932C23.5776 25.5664 25.5667 23.5774 28.0118 23.5774Z" fill="#1DEBC4"/>
<path d="M61.5865 60.166C61.349 60.1661 61.1138 60.1194 60.8943 60.0285C60.6748 59.9376 60.4754 59.8044 60.3075 59.6365C60.1395 59.4685 60.0063 59.2691 59.9154 59.0496C59.8246 58.8302 59.7778 58.595 59.7779 58.3574V41.6426C59.7778 41.405 59.8245 41.1698 59.9154 40.9503C60.0062 40.7308 60.1394 40.5314 60.3074 40.3634C60.4754 40.1954 60.6748 40.0622 60.8943 39.9713C61.1137 39.8805 61.349 39.8337 61.5865 39.8338C61.824 39.8337 62.0593 39.8805 62.2787 39.9713C62.4982 40.0622 62.6976 40.1954 62.8656 40.3634C63.0335 40.5313 63.1667 40.7307 63.2576 40.9502C63.3485 41.1696 63.3952 41.4049 63.3951 41.6424V58.3576C63.3952 58.5952 63.3485 58.8304 63.2576 59.0498C63.1667 59.2693 63.0335 59.4687 62.8656 59.6367C62.6976 59.8046 62.4982 59.9378 62.2787 60.0287C62.0593 60.1196 61.824 60.1663 61.5865 60.1662V60.166ZM38.4135 59.6557C38.1586 59.6556 37.9068 59.601 37.6748 59.4955C36.7623 59.0881 36.3551 58.0182 36.765 57.1084L43.8449 41.3057C43.9869 40.9871 44.2182 40.7165 44.5107 40.5267C44.8033 40.3368 45.1446 40.2357 45.4934 40.2358C45.842 40.2363 46.1831 40.3376 46.4755 40.5274C46.768 40.7172 46.9993 40.9875 47.1418 41.3057L54.2053 57.1111C54.6127 58.0234 54.2025 59.0908 53.29 59.4981C52.3885 59.9082 51.3103 59.5008 50.9029 58.583L48.9394 54.1807H42.0361L40.0619 58.5858C39.9199 58.9043 39.6886 59.1748 39.3961 59.3647C39.1035 59.5546 38.7622 59.6556 38.4135 59.6557ZM43.6547 50.5635H47.3291L45.4932 46.4654L43.6547 50.5635ZM76.4957 82.7201H50.1264C49.8888 82.7202 49.6536 82.6735 49.4342 82.5826C49.2147 82.4918 49.0153 82.3585 48.8473 82.1906C48.6794 82.0226 48.5461 81.8232 48.4553 81.6037C48.3644 81.3843 48.3177 81.1491 48.3178 80.9115C48.3177 80.674 48.3644 80.4387 48.4552 80.2193C48.5461 79.9998 48.6793 79.8003 48.8473 79.6324C49.0152 79.4644 49.2146 79.3312 49.4341 79.2403C49.6536 79.1494 49.8888 79.1027 50.1264 79.1027H76.4955C77.935 79.1027 79.1027 77.9242 79.1027 76.4766V50.0367C79.1027 49.7992 79.1494 49.564 79.2402 49.3445C79.3311 49.1251 79.4643 48.9256 79.6323 48.7577C79.8002 48.5897 79.9997 48.4565 80.2191 48.3657C80.4386 48.2748 80.6738 48.2281 80.9113 48.2281C81.1489 48.2281 81.3841 48.2748 81.6035 48.3657C81.823 48.4565 82.0224 48.5897 82.1904 48.7577C82.3583 48.9256 82.4915 49.1251 82.5824 49.3445C82.6733 49.564 82.72 49.7992 82.7199 50.0367V76.4766C82.7199 79.9174 79.9283 82.7201 76.4957 82.7201Z" fill="black"/>
</g>
<defs>
<clipPath id="clip0_31_6">
<rect width="100" height="100" fill="white"/>
</clipPath>
</defs>
</svg>
