<svg width="100" height="100" viewBox="0 0 100 100" fill="none" xmlns="http://www.w3.org/2000/svg">
<path d="M1.5625 18.125C2.5 18.125 3.125 17.5 3.125 16.5625V3.125H19.8437C20.7812 3.125 21.4062 2.5 21.4062 1.5625C21.4062 0.625 20.7812 0 19.8437 0H1.5625C0.625 0 0 0.625 0 1.5625V16.5625C0 17.5 0.625 18.125 1.5625 18.125ZM19.8437 96.875H3.125V83.4375C3.125 82.5 2.5 81.875 1.5625 81.875C0.625 81.875 0 82.5 0 83.4375V98.4375C0 99.375 0.625 100 1.5625 100H19.8437C20.7812 100 21.4062 99.375 21.4062 98.4375C21.4062 97.5 20.7812 96.875 19.8437 96.875ZM98.4375 0H80.1562C79.2187 0 78.5937 0.625 78.5937 1.5625C78.5937 2.5 79.2187 3.125 80.1562 3.125H96.875V16.5625C96.875 17.5 97.5 18.125 98.4375 18.125C99.375 18.125 100 17.5 100 16.5625V1.5625C100 0.625 99.375 0 98.4375 0ZM98.4375 81.875C97.5 81.875 96.875 82.5 96.875 83.4375V96.875H80.1562C79.2187 96.875 78.5937 97.5 78.5937 98.4375C78.5937 99.375 79.2187 100 80.1562 100H98.4375C99.375 100 100 99.375 100 98.4375V83.4375C100 82.5 99.375 81.875 98.4375 81.875ZM49.8438 51.0938C51.4063 51.0938 53.125 50.625 54.8437 49.2188C55.4687 48.75 55.625 47.6563 55.1562 47.0313C54.6875 46.4063 53.5938 46.25 52.9688 46.7187C49.5313 49.2187 47.3438 47.1875 47.1875 46.875C46.5625 46.25 45.625 46.25 45 46.875C44.375 47.5 44.375 48.4375 45 49.0625C45.7812 50 47.6563 51.0938 49.8438 51.0938Z" fill="black"/>
<path d="M89.2187 90.9375C90.1562 90.9375 90.7812 90.3125 90.7812 89.375V88.9063C90.625 75.3125 80.9375 64.8438 66.7188 62.8125L63.4375 62.3438C62.8125 62.3438 62.1875 62.5 62.0313 63.125C59.8438 66.5625 55.4688 72.3438 49.8438 72.3438C44.2188 72.3438 39.8438 66.5625 37.6563 63.125C37.3438 62.6563 36.7188 62.3438 36.0938 62.3438C35 62.5 34.0625 62.6563 32.9688 62.8125C19.0625 64.8438 9.375 75.3125 9.21875 88.9063V89.2188C9.21875 90.1563 9.84375 90.7813 10.7813 90.7813H89.2187V90.9375ZM98.4375 26.5625H71.0938C69.8437 15.7813 60.9375 7.5 50 7.5C39.0625 7.5 30.1563 15.7812 28.9062 26.4063H1.5625C0.78125 26.4063 0 27.0313 0 27.9688V40C0 40.7813 0.78125 41.5625 1.5625 41.5625H31.25C32.3437 44.5313 33.5938 47.3438 35.1562 49.6875C39.375 56.7188 44.6875 60.4688 50 60.4688C55.3125 60.4688 60.4688 56.7188 64.8438 49.6875C66.4062 47.1875 67.8125 44.375 68.75 41.4063H98.4375C99.2188 41.4063 100 40.625 100 39.8438V28.125C100 27.1875 99.2188 26.5625 98.4375 26.5625ZM62.0313 48.2813C59.8438 51.7188 55.4688 57.5 49.8438 57.5C44.2188 57.5 39.8438 51.7188 37.6563 48.2813C36.4063 46.25 35.3125 44.0625 34.375 41.7188H65.1563C64.375 43.9063 63.2813 46.25 62.0313 48.2813ZM32.0312 26.5625C32.5 23.5938 33.5938 20.7813 35.1562 18.5937L41.5625 23.125C41.875 23.2813 42.1875 23.4375 42.5 23.4375C42.6563 23.4375 42.9688 23.4375 43.125 23.2813C47.0313 21.5625 51.0938 20.4688 55.4688 20.1563L65.4688 19.375C66.7188 21.5625 67.6562 23.9063 67.9688 26.5625H32.0312Z" fill="black"/>
</svg>
