<svg width="100" height="97" viewBox="0 0 100 97" fill="none" xmlns="http://www.w3.org/2000/svg">
<path d="M43.8027 21.1375C43.7214 22.6975 43.6382 24.3293 43.7667 25.8926C43.8312 26.6758 43.6948 28.8391 44.2702 29.41C44.58 29.7174 45.6609 29.9709 46.0972 30.141C46.9072 30.4568 47.7605 30.716 48.6148 30.8529C49.2853 30.9604 49.8782 30.8818 50.4962 30.5877C51.3423 30.185 51.5566 29.3178 52.0327 28.5025C52.8636 27.0799 53.3493 25.4848 54.198 24.0678C54.9234 22.8564 55.4708 21.5791 55.906 20.2322C56.3716 18.7912 56.6681 17.2615 57.297 15.8865C58.0101 14.3273 59.7421 12.1412 58.7439 10.334C58.1829 9.31856 56.7406 9.30606 55.6472 9.20079C55.3347 9.17071 55.0365 9.1084 54.7411 9.05098C54.4765 8.99961 54.256 9.07657 53.9909 9.07442C53.6587 9.07168 53.2866 9.07793 52.9558 9.04004C52.4695 8.98418 52.0197 8.84844 51.5204 8.84629C50.8855 8.84356 50.2515 8.82461 49.6167 8.81914C48.9491 8.81348 48.2698 8.86348 47.6073 8.76446C46.9997 8.67364 46.4124 8.53164 45.7956 8.50801C45.3337 8.49024 44.8197 8.42754 44.381 8.61133C43.8663 8.82715 43.8931 9.34532 43.8474 9.84297C43.7355 11.058 43.9093 12.2746 43.9187 13.4898C43.938 16.0393 43.9355 18.5906 43.8027 21.1375Z" fill="#FF3535"/>
<path d="M27.7484 11.0863C27.4718 11.7725 27.8011 12.6939 28.1517 13.4209C28.4427 14.0242 28.7515 14.627 28.9896 15.2529C29.4722 16.5215 29.9347 17.81 30.4968 19.0457C30.9343 20.0076 31.3757 20.9574 31.7873 21.9334C31.9753 22.3804 32.1538 22.8312 32.3228 23.2857C32.5486 23.8908 32.8775 24.4307 33.155 25.0129C33.724 26.2061 34.3146 27.3914 34.9923 28.5273C35.2929 29.0311 35.6246 29.5053 35.864 30.0326C36.0794 30.507 36.5345 30.8607 37.0578 30.9252C37.955 31.0356 38.6359 30.9352 39.5064 30.733C40.3003 30.5486 41.1166 30.4545 41.9125 30.2762C42.3242 30.184 43.1431 29.9084 43.3957 29.5389C43.5709 29.2826 43.6251 28.85 43.6675 28.5506C43.7869 27.707 43.64 26.8176 43.7019 25.9662C43.808 24.5088 44.0195 23.0633 44.0507 21.598C44.0742 20.4912 44.0828 19.3811 44.0242 18.2834C43.9609 17.0992 43.7501 15.9391 43.6466 14.759C43.5457 13.6057 43.6302 12.449 43.6906 11.2959C43.7168 10.7955 43.7406 10.3047 43.8062 9.81289C43.8466 9.50977 43.7945 9.02168 43.463 8.88184C43.2917 8.80957 43.0511 8.84766 42.8689 8.84727C42.4847 8.84649 42.1121 8.81114 41.7291 8.78321C40.8539 8.71953 39.9841 8.77676 39.1095 8.74434C38.049 8.70489 37.0373 8.63672 35.9753 8.73379C34.7451 8.84629 33.5822 9.02735 32.3693 9.25899C31.3806 9.44785 30.4296 9.71348 29.4794 10.0457C29.1779 10.1512 28.8437 10.2195 28.55 10.3393C28.1226 10.5137 27.8734 10.7758 27.7484 11.0863Z" fill="#FF8225"/>
<path d="M13.7749 20.3762C13.7974 20.5799 14.0479 20.7252 14.1968 20.8545C14.5464 21.1582 14.7927 21.551 15.1419 21.8559C15.9423 22.5545 16.7339 23.293 17.456 24.0711C18.3743 25.0609 19.228 26.1213 20.2013 27.0582C21.0677 27.8924 21.745 28.8568 22.5735 29.723C22.8868 30.0508 23.1917 30.4184 23.5337 30.7154C23.8567 30.9961 24.2265 31.2221 24.5429 31.5105C25.1522 32.066 25.6233 32.7217 26.1976 33.3059C26.7075 33.8246 27.3331 34.2059 27.9106 34.6393C28.0663 34.7561 28.2603 34.9295 28.4378 35.007C28.7417 35.1397 28.9925 34.9725 29.2753 34.8654C29.7634 34.6809 30.211 34.4863 30.6708 34.2373C31.3222 33.8844 32.0075 33.6455 32.6142 33.2121C33.0952 32.8684 33.6364 32.6516 34.1265 32.3311C34.4831 32.0979 34.7565 31.7557 35.0591 31.4625C35.3675 31.1639 35.5614 30.9076 35.5048 30.4525C35.4665 30.1447 35.2972 29.9148 35.1556 29.6465C34.9587 29.2731 34.8171 28.8734 34.6546 28.4846C34.4323 27.9523 34.079 27.4639 33.7583 26.9838C33.422 26.4803 33.2358 26.0137 32.9972 25.4645C32.4851 24.2861 31.969 23.115 31.4899 21.9238C31.1312 21.0324 30.9136 20.0455 30.6456 19.1217C30.3804 18.207 30.0937 17.3299 29.6763 16.4729C29.2536 15.6049 28.6952 14.817 28.3188 13.9281C28.1343 13.4924 28.0696 12.9793 27.8659 12.5611C27.7524 12.3279 27.5454 11.84 27.3493 11.6994C27.0718 11.5004 26.3931 11.5699 26.0886 11.6506C25.237 11.8762 24.4634 12.299 23.6952 12.7186C21.7134 13.8012 19.6403 14.785 17.7419 16.0147C16.9276 16.542 16.1786 17.167 15.4069 17.7545C14.9966 18.0668 14.6454 18.4668 14.3681 18.8992C14.2782 19.0395 14.1466 19.1828 14.1001 19.3453C14.0386 19.5596 14.1243 19.7943 13.7749 20.3762Z" fill="#FFA100"/>
<path d="M22.9588 42.2662C22.9274 42.25 22.8956 42.2343 22.8637 42.2191C21.5454 41.5871 20.1803 41.0586 18.817 40.5307L12.3961 38.0447L9.18578 36.8017C8.69828 36.6131 8.17328 36.3252 7.65395 36.2492C7.31352 36.1994 6.86137 36.1891 6.5602 36.0107C6.30414 35.8592 6.14145 35.6547 5.83383 35.559C5.24399 35.3754 4.55551 35.4758 4.07309 35.8725C3.40063 36.4254 3.20395 37.3572 3.06098 38.2158C2.48109 41.6984 2.09535 45.21 1.70981 48.7195C1.67406 49.0449 1.65668 49.4228 1.89672 49.6453C2.03774 49.776 2.23676 49.8193 2.42699 49.8474C3.41156 49.9928 4.41293 49.8646 5.40668 49.8107C10.4141 49.5396 15.4067 51.1648 20.3981 50.6807C20.7899 50.6426 21.2139 50.5756 21.4848 50.2898C21.6954 50.0678 21.7727 49.7543 21.842 49.4562L23.2946 43.2072C23.3471 42.9816 23.3959 42.7297 23.2776 42.5305C23.2055 42.4101 23.085 42.3316 22.9588 42.2662Z" fill="#71D182"/>
<path d="M27.687 34.1775C28.0761 34.6473 28.5241 35.0318 28.287 35.6811C28.0771 36.2557 27.6566 36.7231 27.3034 37.2227C26.7552 37.9986 26.3624 38.8674 25.8874 39.6869C25.3575 40.6014 24.7173 41.2379 23.9144 41.915C23.7503 42.0533 23.579 42.1947 23.3726 42.2535C23.1499 42.317 22.9118 42.2772 22.6859 42.2273C21.1202 41.8824 19.6989 41.0863 18.2579 40.384C16.3516 39.4549 14.3752 38.6771 12.347 38.0576C10.4177 37.4684 8.42785 37.0172 6.62824 36.1061C6.32082 35.9504 6.01378 35.7772 5.78273 35.5215C5.13351 34.8037 5.26398 33.6887 5.5216 32.7559C6.16339 30.4324 7.33292 28.2941 8.52863 26.2012C9.32531 24.8066 10.1786 23.3869 11.3882 22.3068C11.8929 21.8563 12.5978 21.2598 13.2872 21.1465C14.0528 21.0205 14.7023 21.8182 15.2249 22.2607C18.0392 24.6439 20.8491 27.0393 23.4794 29.627C24.9523 31.0762 26.3683 32.5855 27.687 34.1775Z" fill="#FFDC0F"/>
<path d="M21.9834 58.7387C22.0125 59.0525 22.0389 59.3826 21.9094 59.6701C21.6799 60.1797 21.066 60.365 20.5272 60.5137C18.9922 60.9373 17.5053 61.5156 16.0213 62.0928L3.24493 67.0633C2.88243 67.2043 2.45236 67.34 2.1254 67.1293C1.91935 66.9965 1.81193 66.757 1.72228 66.5289C0.568372 63.5912 0.546301 60.3406 0.718958 57.1893C0.831848 55.1275 1.02931 53.0354 1.79669 51.1186C1.8629 50.9531 1.93556 50.7855 2.05724 50.6551C2.4045 50.2826 2.99532 50.3369 3.50294 50.3787C5.07872 50.509 6.65665 50.2398 8.23517 50.1492C10.2717 50.0322 12.3123 50.2127 14.3443 50.3932C15.3914 50.4861 16.4385 50.5789 17.484 50.6897C18.4402 50.7908 19.5061 50.8092 20.4297 51.0891C20.9912 51.2592 21.2516 51.6387 21.3602 52.1998C21.5443 53.1518 21.56 54.1588 21.649 55.1236L21.9834 58.7387Z" fill="#00935F"/>
<path d="M23.2583 71.1463C22.2525 72.1926 21.4292 73.3998 20.4665 74.4861C19.3558 75.7393 18.0685 76.8215 16.7862 77.8986L12.0708 81.86C11.6484 82.2148 11.1892 82.5857 10.64 82.6385C9.72746 82.726 8.99562 81.9262 8.46671 81.1775C6.69699 78.6734 5.35304 75.898 4.0591 73.1184C3.36593 71.6293 2.67765 70.1125 2.40949 68.492C2.3339 68.0355 2.30031 67.5352 2.5421 67.1406C2.77668 66.7578 3.21632 66.5609 3.6298 66.3861C5.05024 65.7856 6.4718 65.1877 7.89445 64.5924C12.1355 62.8176 16.4388 61.0506 20.9862 60.3746C21.2101 60.3414 21.4466 60.3121 21.6562 60.3977C21.8679 60.484 22.0175 60.6734 22.1513 60.8588C23.1247 62.2076 23.7939 63.7412 24.6648 65.1529C25.0964 65.8525 25.5796 66.5262 26.1665 67.1049C26.4443 67.3789 26.8226 67.5891 26.5648 67.9916C26.331 68.3568 25.9181 68.6791 25.604 68.9742C24.8273 69.7039 23.9976 70.3771 23.2583 71.1463Z" fill="#14DDF7"/>
<path d="M33.6296 71.9115C34.0585 72.1375 34.5118 72.3869 34.7417 72.8139C35.0081 73.3088 34.9071 73.9146 34.7731 74.4605C33.6682 78.9633 30.8528 82.8385 29.1282 87.142C28.4997 88.7103 28.0051 90.358 27.0493 91.7512C26.8782 92.0004 26.6653 92.258 26.3678 92.3115C26.1356 92.3533 25.9026 92.2601 25.6848 92.1691L21.371 90.3631C19.2755 89.4857 17.1749 88.6058 15.1921 87.4974C14.0313 86.8486 12.8999 86.1115 12.0036 85.1291C11.4809 84.5562 11.0235 83.8254 11.1231 83.0562C11.2143 82.3519 11.7458 81.7965 12.2505 81.2967C14.31 79.2565 16.3886 77.2355 18.4858 75.234C20.9417 72.8902 23.4497 70.5531 26.3762 68.8326C26.5776 68.7142 26.7969 68.5951 27.0297 68.6146C27.196 68.6285 27.3471 68.7121 27.4924 68.7937C27.9835 69.0695 28.4848 69.4301 29.0176 69.6164C29.4835 69.7793 29.896 69.9449 30.3387 70.1781L31.9997 71.0529C32.1784 71.1471 33.6296 71.7695 33.6296 71.9115Z" fill="#0087C3"/>
<path d="M40.4658 73.7283C41.3653 73.8109 42.257 73.9637 43.1328 74.1852C43.4502 74.2654 43.8011 74.383 43.9459 74.6768C44.0466 74.8814 44.0207 75.1228 43.9931 75.3492C43.5685 78.8476 43.3777 82.3785 43.5267 85.8996C43.6539 88.9025 44.0281 91.9088 43.7902 94.9049C43.7613 95.2699 43.6955 95.683 43.391 95.8865C43.1461 96.0504 42.8248 96.0223 42.5324 95.9861C37.9097 95.4146 33.3578 94.3836 28.8152 93.3543C28.5681 93.2984 28.3168 93.2406 28.0984 93.1125C27.8125 92.9445 27.6052 92.6678 27.4511 92.374C26.8621 91.2521 26.9797 89.8725 27.4197 88.6842C27.8597 87.4959 28.591 86.4426 29.232 85.3496C29.799 84.3827 30.2989 83.3779 30.7281 82.3424C31.3304 80.8889 31.7925 79.3771 32.464 77.9541C33.0379 76.7381 33.7589 75.5982 34.4783 74.4621C34.8093 73.9391 35.1947 73.3748 35.7929 73.2162C36.1246 73.1283 36.4752 73.1809 36.8142 73.2338L39.5576 73.6629C39.9019 73.7166 40.1183 73.6965 40.4658 73.7283Z" fill="#008EE5"/>
<path d="M53.3984 74.1402C56.5785 79.1951 57.4972 85.3533 60.2082 90.6744C60.5132 91.2732 60.8484 91.9629 60.5963 92.5857C60.3386 93.2221 59.5925 93.4803 58.9316 93.6658C54.1791 94.9992 49.2953 96.3457 44.3802 95.89C44.1617 95.8697 43.9341 95.8428 43.7509 95.7219C43.2713 95.4051 43.3607 94.6922 43.4658 94.1268C43.5269 93.7973 43.574 93.4654 43.6097 93.1322C43.8498 90.8973 43.5759 88.6506 43.6416 86.4107C43.6574 85.8717 43.657 85.2967 43.7685 84.7674C43.8363 84.4459 44.0265 84.1711 44.0568 83.8412C44.1552 82.7744 43.7045 81.651 43.673 80.5783C43.6556 79.9855 43.7222 79.3953 43.7965 78.8082C43.8617 78.2918 44.0287 77.6813 43.9322 77.168C43.7754 76.3346 43.7107 75.3705 44.4588 74.767C44.7709 74.5152 45.1687 74.3994 45.5593 74.3086C46.6695 74.0502 47.8068 73.9457 48.9363 73.8098C49.5049 73.7412 50.073 73.6658 50.6357 73.558C51.1914 73.4516 51.7214 73.2385 52.2701 73.1258C52.7964 73.0178 53.1509 73.7469 53.3984 74.1402Z" fill="#857DAF"/>
<path d="M73.9628 81.474C74.5013 82.0842 75.0413 82.6965 75.4972 83.3705C75.6222 83.5555 75.7449 83.7572 75.7495 83.9805C75.7574 84.3477 75.4538 84.6373 75.1739 84.8754C71.4187 88.0715 67.4917 91.2584 62.8273 92.8586C62.422 92.9977 61.9452 93.116 61.5898 92.8768C61.4273 92.7676 61.3171 92.5982 61.2113 92.4336C59.924 90.4303 58.6241 88.4018 57.8546 86.1482C57.4648 85.0066 57.2165 83.8227 56.9177 82.6539C56.1988 79.8437 55.1856 77.1171 53.895 74.5193C53.7277 74.1824 53.5511 73.8275 53.5726 73.4521C53.6226 72.5785 54.6247 72.148 55.4417 71.835C56.9419 71.2588 58.3365 70.4385 59.5691 69.4072C60.0413 69.0121 60.6769 68.375 61.3611 68.5156C61.954 68.6375 62.4894 69.3506 62.9079 69.7404C65.4378 72.0969 67.8163 74.6102 70.1353 77.1729C71.4232 78.5957 72.6931 80.0348 73.9628 81.474Z" fill="#954EA5"/>
<path d="M75.3346 63.2527C78.485 64.4435 81.7104 65.4832 84.6752 67.0809C84.8549 67.1777 85.0453 67.2889 85.1285 67.4752C85.2053 67.6469 85.1742 67.8455 85.1393 68.0303C84.7815 69.9297 84.1897 71.776 83.5992 73.6166C83.1453 75.0314 82.6914 76.4467 82.1885 77.8447C81.911 78.6162 81.6141 79.3912 81.144 80.0629C80.2569 81.3305 78.8332 82.1172 77.3885 82.6715C77.0047 82.8187 76.6049 82.9547 76.194 82.9435C75.1727 82.9162 74.4154 82.0314 73.7537 81.2529C70.0258 76.8664 64.9963 73.5566 62.0795 68.5935C61.9152 68.3142 61.7547 68.0182 61.7338 67.6949C61.7098 67.3238 61.8729 66.9674 62.0553 66.6433C63.1424 64.7111 65.0336 63.2404 65.5348 60.9998C65.6332 60.5594 65.6592 59.9777 66.1237 59.7535C66.5014 59.5711 66.9797 59.7246 67.3461 59.8596C68.5885 60.3168 69.777 60.9699 70.9932 61.4953C72.4266 62.1146 73.8741 62.7005 75.3346 63.2527Z" fill="#F3429E"/>
<path d="M68.4216 50.5393C72.8689 50.3309 77.3246 50.2969 81.7662 49.9906C82.5998 49.9332 83.449 49.8674 84.2611 50.0635C85.0732 50.2596 85.8582 50.7678 86.1607 51.5465C86.2822 51.8592 86.3205 52.1971 86.3509 52.5311C86.5033 54.2055 86.482 55.8902 86.4605 57.5713L86.3775 64.074C86.3666 64.9256 86.3392 65.8322 85.8605 66.5365C85.7164 66.7486 85.5269 66.94 85.2875 67.0318C84.9578 67.1582 84.588 67.0793 84.2486 66.9828C82.3908 66.4555 80.7099 65.4551 78.9984 64.5604C75.9707 62.9777 72.7919 61.7029 69.5097 60.7551C68.8763 60.5723 68.2332 60.3992 67.6531 60.0859C67.073 59.7727 66.5521 59.299 66.3224 58.681C66.1715 58.275 66.1541 57.8332 66.1439 57.4C66.1125 56.0709 66.1329 54.741 66.2052 53.4135C66.2435 52.7105 66.0806 51.2861 66.7769 50.8207C67.2248 50.5215 67.9103 50.5633 68.4216 50.5393Z" fill="#A00056"/>
<path d="M68.0653 25.742C68.8664 26.4609 69.0438 27.6305 69.1448 28.7021C69.3121 30.4781 69.476 32.4252 70.7264 33.6979C71.3631 34.3459 72.2106 34.7346 73.034 35.1186C73.6028 35.3838 74.2701 35.8391 74.1461 36.4541C74.0828 36.768 73.8219 36.9975 73.5776 37.2045C69.3133 40.8191 65.5803 45.0096 61.5772 48.9115C60.5235 49.9387 59.4264 50.9629 58.0959 51.5914C56.7655 52.2199 55.145 52.402 53.8383 51.725C53.1807 51.3844 52.6225 50.8414 51.9117 50.6334C50.5979 50.2486 49.2594 51.1162 48.2543 52.0461C47.6264 52.627 47.0242 53.2611 46.2612 53.648C45.4981 54.0348 44.5125 54.1242 43.825 53.6152C42.9041 52.9338 42.9225 51.4914 43.4795 50.4902C44.0367 49.4893 44.9819 48.776 45.7705 47.9453C47.0766 46.5695 47.9791 44.815 48.3387 42.9525C48.4819 42.2105 48.541 41.4529 48.7153 40.7178C49.2932 38.2807 51.06 36.3285 52.7635 34.4922C54.7606 32.3391 56.76 30.1838 58.8948 28.165C59.8621 27.2504 60.8635 26.3713 61.8524 25.4805C62.491 24.9049 63.0951 24.4637 63.9842 24.4326C65.2719 24.3877 67.0926 24.8693 68.0653 25.742ZM39.1324 63.5227C38.9158 64.2871 38.6989 65.0533 38.5631 65.8363C38.5102 66.141 38.4705 66.459 38.5578 66.7557C38.702 67.2451 39.1545 67.5711 39.5916 67.8344C40.3178 68.2715 41.1348 68.6531 41.9787 68.5732C43.2444 68.4533 44.2178 67.2842 44.4881 66.0418C44.7584 64.7996 44.468 63.5068 44.0959 62.2912C43.71 61.0306 43.2358 59.7988 42.6768 58.6049C42.3209 57.8449 41.791 57.2033 40.8971 57.5838C40.3649 57.8104 40.0983 58.1789 40.0096 58.7367C39.9155 59.3287 40.0262 59.9424 39.9369 60.5398C39.7866 61.5467 39.4096 62.5447 39.1324 63.5227Z" fill="#71D182"/>
<path d="M69.1349 19.5057C69.5968 19.0953 70.0626 18.6812 70.4296 18.1842C70.7451 17.757 71.004 17.2541 71.4677 16.9951C71.9458 16.7279 72.5546 16.7867 73.048 17.0244C73.5414 17.2623 73.9398 17.6572 74.3087 18.0619C76.1415 20.0734 77.5009 22.5139 79.5462 24.3092C80.0912 24.7875 80.6855 25.2207 81.1349 25.7896C81.9359 26.8033 82.197 28.173 82.0359 29.4549C81.971 29.9701 81.8378 30.4881 81.5494 30.9197C81.3521 31.215 81.0892 31.4598 80.8289 31.7016L78.7955 33.59C77.8228 34.4934 76.846 35.4 75.7548 36.1559C75.5966 36.2654 75.4261 36.3754 75.2339 36.3881C75.0574 36.3996 74.8872 36.3273 74.7259 36.2547C73.1127 35.5284 71.583 34.6292 70.1636 33.573C69.9523 33.4156 69.7392 33.2504 69.5953 33.0297C69.4451 32.799 69.381 32.5244 69.3197 32.256C68.9939 30.8332 68.6665 29.3945 68.681 27.9351C68.6839 27.6412 68.699 27.3369 68.588 27.0648C68.4775 26.7937 68.2548 26.5867 68.038 26.3898C67.3054 25.7244 66.4581 25.0275 65.4691 25.0639C64.9966 25.0812 63.2029 26.0098 62.9216 25.4369C62.689 24.9627 63.8328 24.21 64.1119 23.965C65.7949 22.4881 67.4611 20.9922 69.1349 19.5057Z" fill="#F4F4F4"/>
<path d="M79.2234 15.7121C81.2404 17.2363 83.048 19.0799 84.3027 21.2748C85.2611 22.9514 85.8792 24.7969 86.4794 26.6324C86.6585 27.1803 86.8388 27.7477 86.783 28.3213C86.7271 28.8949 86.3709 29.4807 85.8115 29.6189C85.3222 29.74 84.8234 29.5029 84.3751 29.2727C83.4585 28.802 82.5248 28.3186 81.8046 27.5816C81.2353 26.999 80.8253 26.284 80.3634 25.6131C79.0447 23.698 77.2828 22.1209 75.9587 20.2096C75.2595 19.2002 74.6777 18.0926 73.7988 17.2352C73.2148 16.6654 72.5105 16.2182 71.9941 15.5865C70.9052 14.2543 70.8457 11.2785 73.2287 12.1361C75.3394 12.8961 77.4455 14.3687 79.2234 15.7121Z" fill="#BDBDB5"/>
<path d="M91.887 1.65607C92.5778 1.71075 93.2793 1.76974 93.9268 2.01642C94.9788 2.41739 95.7838 3.27071 96.5286 4.11486C97.2186 4.89728 97.9065 5.72286 98.2307 6.71447C98.5047 7.55216 98.5004 8.45216 98.4815 9.33341C98.4456 11.0018 98.3614 12.6961 97.82 14.2746C97.5749 14.9895 97.2278 15.6863 96.6872 16.2143C95.2127 17.6545 92.8342 17.4504 90.9094 18.1873C88.8635 18.9705 87.4256 20.7791 85.7641 22.2068C85.6401 22.3135 85.5036 22.4229 85.3407 22.4379C85.0499 22.4647 84.8307 22.1928 84.6584 21.9568C84.1532 21.2647 83.5604 20.6395 82.9264 20.0629C82.1186 19.3283 81.2424 18.6705 80.4553 17.9139C79.3926 16.892 78.5065 15.7035 77.6258 14.5213C77.5559 14.4276 77.4823 14.3184 77.5045 14.2037C77.5198 14.1252 77.5776 14.0625 77.6346 14.0063C79.1145 12.5477 81.6889 12.2934 82.6471 10.4494C82.9819 9.80509 83.0543 9.06271 83.1891 8.34923C83.5795 6.28165 84.5547 4.33126 85.9588 2.76564C87.4143 1.14278 89.884 1.49728 91.887 1.65607Z" fill="#777973"/>
<path d="M87.1709 50.4102C86.7684 49.8086 86.1071 49.3793 85.0262 49.2424C83.7284 49.0779 82.394 49.4986 81.1215 49.6371C79.5416 49.8092 77.9395 49.8344 76.352 49.8629C73.2702 49.9182 70.1832 49.851 67.1092 50.1234C64.2905 50.3732 65.5002 53.5434 65.4119 55.5225C65.3025 57.9514 64.7364 60.3379 63.7432 62.5572C59.5348 71.9637 47.4774 74.2971 38.261 72.4707C33.461 71.5195 29.0862 69.7203 26.1059 65.615C23.077 61.443 21.8436 56.5943 22.3756 51.49C22.9198 46.2705 25.2291 40.1393 29.1246 36.4709C34.8438 31.0853 43.7946 29.6184 51.108 32.2359C51.1883 32.2646 51.275 32.2937 51.3571 32.2709C51.4444 32.2467 51.5051 32.1701 51.559 32.0975C53.1403 29.967 53.8752 27.4203 54.7994 24.9734C55.8842 22.1018 56.8522 19.1879 57.9287 16.3133C58.4827 14.8348 60.1619 12.4478 59.695 10.7918C59.2403 9.17929 56.8311 9.11054 55.3856 8.77089C51.7573 7.91816 47.6534 7.16191 43.8838 7.65683C40.1143 7.16191 36.0104 7.91816 32.3821 8.77089C27.801 9.84746 23.6543 11.2035 19.668 13.7764C11.9264 18.7732 5.81527 27.1658 2.86019 35.8453C1.28773 40.4637 0.685192 45.374 0.271324 50.2156C0.24691 50.5016 0.228942 50.7879 0.207653 51.074C0.199449 51.0914 0.195348 51.1078 0.186949 51.1252L0.203942 51.1254C-0.125941 55.5855 -0.0790661 60.0738 0.517614 64.5072C1.19515 69.5414 2.36019 73.9203 5.00394 78.292C7.46078 82.3549 11.1143 85.7158 14.9643 88.4537C19.1825 91.4535 23.9813 93.5043 29.0006 94.6748C34.1762 95.8818 39.4459 96.8223 44.7725 96.9166C49.5231 97.0008 54.1496 95.7516 58.7668 94.6748C63.7864 93.5043 68.5854 91.4535 72.8032 88.4535C76.653 85.7154 80.3067 82.3547 82.7635 78.2918C85.4073 73.9201 86.5725 69.5412 87.25 64.507C87.6623 61.4441 87.8137 58.3496 87.7602 55.2598C87.7317 53.6088 87.9977 51.6459 87.1709 50.4102ZM44.2291 9.69765C48.1703 9.725 52.1202 10.2178 56.3032 11.1853C56.9934 11.3451 57.6715 11.5283 58.3438 11.7228C57.7493 13.0687 57.1676 14.4211 56.6307 15.7963C55.153 19.582 53.9026 23.448 52.3227 27.1943C51.9106 28.1713 51.502 29.1502 51.0924 30.1287C49.1061 29.4885 46.835 29.1566 44.4846 29.1211C44.5026 28.0963 44.5194 27.0715 44.5416 26.0475C44.633 21.8422 44.3307 17.648 44.243 13.4447C44.2172 12.1953 44.2192 10.9465 44.2291 9.69765ZM31.4645 11.1853C35.4188 10.2707 39.1676 9.78125 42.9022 9.70742C42.8625 10.9514 42.8371 12.1963 42.8459 13.4447C42.8745 17.5086 43.144 21.5629 43.0629 25.6277C43.0397 26.7973 43.02 27.9674 43 29.1375C40.6821 29.2236 38.3315 29.5885 36.1401 30.2252C35.7901 29.3361 35.4395 28.4473 35.093 27.5574C33.5672 23.6375 31.6819 19.8789 29.9914 16.0295C29.4135 14.7131 28.8702 13.3832 28.3334 12.0504C29.3644 11.718 30.4091 11.4294 31.4645 11.1853ZM18.15 17.5191C20.8801 15.2873 23.87 13.65 27.0881 12.4764C27.5983 13.8477 28.1291 15.2123 28.7008 16.5646C30.2832 20.3078 32.0848 23.9498 33.5662 27.7361C33.9508 28.7185 34.3375 29.7006 34.7245 30.6826C32.9045 31.3328 31.2348 32.182 29.8385 33.2232C29.4022 33.5486 28.9858 33.8965 28.5809 34.256C28.0373 33.692 27.493 33.1283 26.9512 32.5627C24.042 29.5244 20.8625 26.7725 17.8287 23.8625C16.758 22.8355 15.7164 21.7803 14.6795 20.7205C15.7803 19.5838 16.9377 18.5105 18.15 17.5191ZM13.785 21.6775C14.7832 22.7521 15.7928 23.8172 16.8405 24.8504C19.7342 27.7039 22.7914 30.3799 25.6086 33.3115C26.2399 33.9682 26.8729 34.6236 27.5055 35.2791C25.7592 37.0773 24.3446 39.1932 23.2303 41.4611C22.5545 41.1771 21.8782 40.8943 21.2036 40.6084C17.3309 38.9668 13.3225 37.6953 9.38558 36.2209C8.12211 35.7477 6.87152 35.2439 5.62367 34.7334C7.51117 29.9588 10.3217 25.4828 13.785 21.6775ZM3.9598 39.9496C4.28382 38.607 4.69183 37.2787 5.16136 35.9674C6.38695 36.5047 7.6182 37.0305 8.86879 37.5187C12.6545 38.9965 16.5205 40.2469 20.2668 41.8268C21.0461 42.1555 21.8268 42.482 22.6073 42.8094C22.0849 44.0297 21.6398 45.2816 21.2745 46.5578C20.9523 47.6823 20.7007 48.8259 20.5211 49.9818C20.1668 49.9787 19.8123 49.9728 19.4582 49.9717C13.7821 49.9549 8.10375 49.6773 2.42797 49.4785C2.70863 46.2453 3.21254 43.0461 3.9598 39.9496ZM2.30297 51.1562C3.77933 51.1732 5.25492 51.1826 6.72347 51.1988C10.8233 51.2443 14.9186 51.4689 19.0188 51.493C19.4541 51.4955 19.8901 51.5033 20.3256 51.5082C20.0723 54.1389 20.2303 56.7894 20.8803 59.3441C14.9664 61.767 8.92718 63.8943 2.95199 66.1644C2.21055 61.1983 1.99302 56.1679 2.30297 51.1562ZM3.23656 67.8871C5.43675 67.0492 7.61429 66.1455 9.78734 65.2728C13.592 63.7451 17.4614 62.3844 21.2582 60.8367L21.3104 60.8158C21.5172 61.4336 21.7542 62.0407 22.0207 62.6352C22.8842 64.5533 24.0278 66.3463 25.4036 67.9281C20.6039 72.649 15.5674 77.1369 10.6932 81.7789C7.01449 77.9377 4.2975 73.2912 3.23656 67.8871ZM19.5026 88.5926C16.7543 87.0072 14.1733 85.1309 11.8969 82.9758C13.9815 81.0662 15.9828 79.0562 17.9944 77.0889C20.7752 74.3689 23.6639 71.7621 26.4434 69.041C28.2202 70.799 30.3176 72.2209 32.6721 73.1439C33.0461 73.2906 33.4303 73.4271 33.8186 73.5592C31.3711 79.5713 28.6328 85.4701 26.0668 91.4324C23.8159 90.7016 21.6319 89.8209 19.5026 88.5926ZM42.4668 94.3908C38.5196 94.2885 34.5944 93.7617 30.8805 92.8043C29.8073 92.5275 28.7518 92.2441 27.7102 91.94C28.7075 89.6592 29.6278 87.3408 30.5698 85.0504C32.0916 81.351 33.7678 77.7172 35.2791 74.0133C37.7084 74.6953 40.3506 75.0996 43.0389 75.1902C43.0036 81.5902 42.6532 87.9928 42.4668 94.3908ZM56.8869 92.8043C52.8225 93.8523 48.5045 94.3844 44.1811 94.4078C44.2471 92.0781 44.2455 89.7441 44.2713 87.4262C44.3166 83.3525 44.5377 79.283 44.5643 75.2092C47.333 75.1787 50.1153 74.8084 52.7321 74.0557C55.1414 80.0102 57.275 86.0816 59.5727 92.0799C58.6804 92.3323 57.7851 92.5738 56.8869 92.8043ZM68.2651 88.5926C65.9815 89.9098 63.6366 90.8314 61.2118 91.5922C60.3053 89.1603 59.3075 86.7582 58.3452 84.3621C56.9108 80.7894 55.6178 77.1617 54.1846 73.5887C56.9336 72.6199 59.4481 71.1971 61.5028 69.2648C66.1174 73.9891 70.5276 78.9203 75.0864 83.6955C73.0078 85.5508 70.7026 87.1865 68.2651 88.5926ZM76.3135 82.5477C74.3256 80.3564 72.2209 78.2609 70.1612 76.1553C67.5928 73.5293 65.1223 70.8096 62.5641 68.1738C62.6131 68.1187 62.6653 68.0668 62.7137 68.0109C64.6702 65.7504 65.9711 63.1383 66.711 60.3633C72.6914 62.8008 78.561 65.5236 84.4928 68.077C83.3315 73.7648 80.3325 78.607 76.3135 82.5477ZM84.7905 66.3404C82.5811 65.3814 80.3385 64.491 78.1227 63.5795C74.4127 62.0533 70.769 60.3715 67.0541 58.857C67.5121 56.4469 67.5725 53.9428 67.2655 51.4525C67.5444 51.458 67.8231 51.4633 68.102 51.4693C72.3075 51.5607 76.5016 51.2584 80.7047 51.1707C82.292 51.1377 83.8787 51.1488 85.4655 51.1672C85.7827 56.2555 85.5442 61.3984 84.7905 66.3404Z" fill="black"/>
<path d="M96.3045 2.47324C93.1533 -0.305862 88.4887 -1.0002 85.0535 1.72539C83.3627 3.06679 82.3922 4.76523 82.2242 6.9416C82.0594 9.07949 81.8809 10.6303 80.0227 11.9885C79.1774 12.6062 78.2283 12.9092 77.3385 13.3932C76.8599 13.0685 76.3684 12.7634 75.8651 12.4787C74.4506 11.6836 72.6178 10.5018 70.9002 11.2092C68.369 12.252 69.5334 14.5955 71.2317 16.6605C70.4578 17.3783 69.4785 17.9754 68.6873 18.6531C67.6533 19.5385 66.591 20.3898 65.5854 21.3078C63.183 23.5006 60.8069 25.7031 58.3539 27.8398C56.3887 29.5518 54.4549 31.3344 52.5627 33.1283C50.7863 34.8125 48.2873 36.7865 47.5317 39.2307C46.8008 41.5947 48.5608 43.7795 46.9293 45.9299C45.5951 47.6885 43.0785 48.3977 42.3746 50.7141C41.1426 54.7682 45.6112 56.107 48.1697 53.541C48.911 52.7977 49.4201 51.7811 50.4059 51.2898C52.201 50.3951 53.1592 51.9893 54.4912 52.8236C56.1567 53.8668 57.4319 53.0912 58.8815 52.0781C63.0957 49.1326 66.4703 45.1123 70.2944 41.6922C72.1867 39.9996 74.1576 38.3625 76.1197 36.7461C78.2612 34.982 81.3422 32.9455 82.7223 30.4908C82.8862 30.1992 83.0059 29.9121 83.086 29.6289C84.834 30.7721 86.9297 31.1689 87.9975 29.1758C88.9285 27.4373 87.7463 25.4459 86.9356 23.9189C86.7835 23.634 86.6262 23.3518 86.4637 23.0727C86.4946 23.027 86.5248 22.9803 86.5506 22.9246C87.8789 20.0455 91.0014 19.7816 93.6301 18.8896C95.6 18.2215 97.4446 17.2301 98.6211 15.449C101.322 11.3604 99.7928 5.54961 96.3045 2.47324ZM62.6582 46.3975C61.0428 47.8992 59.1522 50.3941 57.0393 51.1914C54.7789 52.0443 53.2522 48.8326 50.8561 49.2654C49.9131 49.4357 49.0223 50.1789 48.3496 50.8158C47.2776 51.8061 46.6102 52.4574 45.3506 53.2127C45.1127 53.3553 44.8541 53.5031 44.5778 53.4801C43.5092 53.3912 43.9055 51.7094 44.1832 51.1016C44.6211 50.1432 45.5096 49.5268 46.3387 48.9168C47.3961 48.1387 48.6404 47.3215 49.3162 46.1496C49.7824 45.3408 49.885 44.4871 49.8004 43.5715C49.5842 41.2305 48.8656 40.0316 50.6035 37.9738C52.8731 35.2863 55.6358 33.0426 58.1985 30.651C59.9039 29.0592 61.6502 27.516 63.3705 25.9424C65.1524 25.4441 67.0889 25.0824 68.0844 27.1396C68.8182 28.6562 68.1264 30.7221 68.6543 32.3695C69.3164 34.4361 71.3047 36.2299 73.5172 36.5127C69.8217 39.7313 66.2651 43.0445 62.6582 46.3975ZM79.8063 30.9307C78.627 32.1439 77.3418 33.2518 76.049 34.3396C75.7033 34.6307 75.3619 34.9242 75.0194 35.217C74.9193 35.1026 74.7918 35.0155 74.6488 34.9639C72.127 34.0197 70.0668 33.3154 69.734 30.251C69.5789 28.8236 69.8237 27.1328 68.9313 25.8859C67.927 24.4828 66.4756 24.1592 65.0313 24.3941C65.2516 24.1857 65.4752 23.9816 65.6938 23.7711C67.067 22.4473 68.4694 21.135 69.7912 19.7574C70.508 19.0105 71.3289 18.3342 71.9992 17.5432C73.0533 18.6932 74.1332 19.6662 74.5897 20.1367C76.4438 22.0473 78.1795 24.0605 79.784 26.1799C80.0404 26.5187 80.4006 26.8637 80.6737 27.2215C80.7389 27.3287 80.8098 27.4365 80.8865 27.5453C80.893 27.5566 80.9026 27.5676 80.9086 27.5789C81.8121 29.2756 80.7643 29.9449 79.8063 30.9307ZM86.1797 28.5291C85.543 29.0199 83.9666 28.1062 82.8651 27.1926C82.7065 26.8311 82.4998 26.4736 82.2541 26.1191C80.8201 24.0473 79.1235 22.225 77.4217 20.3789C75.8016 18.6211 73.9281 17.0613 72.4592 15.1779C71.9149 14.4805 71.2057 13.2424 72.7389 12.942C73.4084 12.8109 74.2237 13.4639 74.7715 13.7625C76.3043 14.5977 77.6541 15.541 78.9334 16.7354C81.1465 18.8012 83.1586 20.9967 84.7123 23.6021C85.1969 24.4143 87.3549 27.623 86.1797 28.5291ZM94.416 16.5551C92.4123 17.4789 89.9877 17.4285 88.0826 18.5156C87.1076 19.0721 85.9826 20.1479 85.2817 21.2203C84.2889 19.801 83.1623 18.485 81.9156 17.2471C80.8803 16.2191 79.811 15.2465 78.6729 14.3625C79.4225 14.3539 80.0627 14.1602 80.9629 13.5973C82.4078 12.6937 83.5155 11.55 84.0155 9.87305C84.3055 8.90078 84.1309 7.93144 84.2303 6.9418C84.3897 5.35976 85.1076 4.14297 86.3508 3.20312C88.5197 1.56367 91.3111 1.5082 93.6848 2.79375C98.599 5.45527 100.164 13.9051 94.416 16.5551ZM37.6233 63.2545C37.1727 65.8459 38.0342 68.7074 40.9 69.3416C43.486 69.9139 45.874 68.1734 45.7633 65.4648C45.6988 63.8896 45.0479 62.1379 44.5539 60.6611C44.0738 59.2256 43.5899 57.3521 42.4143 56.334C42.3547 56.2832 42.288 56.2413 42.2164 56.2096C41.9356 55.9607 41.4414 55.9271 41.1487 56.3285C39.8801 58.0676 38.0768 60.6471 37.6233 63.2545ZM41.5276 58.3887C42.0805 59.8564 42.727 61.2859 43.1512 62.8148C43.3483 63.5246 43.6883 64.4148 43.6877 65.1559C43.6852 68.2228 40.1862 68.0391 39.4949 65.6391C38.8254 63.3152 40.2572 60.5807 41.5276 58.3887Z" fill="black"/>
</svg>
