<svg width="100" height="100" viewBox="0 0 100 100" fill="none" xmlns="http://www.w3.org/2000/svg">
<path d="M100 49.9999C100 54.195 93.2665 57.4494 92.2322 61.3184C91.1623 65.3217 95.3349 71.5006 93.307 75.0057C91.2499 78.5609 83.7938 78.0229 80.9083 80.9085C78.0228 83.7939 78.5611 91.2498 75.0055 93.307C71.5006 95.3349 65.3218 91.1623 61.3186 92.2324C57.4495 93.2663 54.1951 99.9999 50.0001 99.9999C45.8049 99.9999 42.5505 93.2664 38.6814 92.2322C34.6783 91.1622 28.4994 95.3349 24.9944 93.3068C21.4389 91.2498 21.9771 83.7937 19.0915 80.9083C16.206 78.0228 8.75007 78.5608 6.69289 75.0055C4.66511 71.5004 8.8377 65.3217 7.76765 61.3184C6.73366 57.4494 0 54.195 0 49.9999C0 45.8049 6.73366 42.5505 7.76779 38.6814C8.8377 34.6782 4.66511 28.4993 6.69303 24.9942C8.75007 21.4389 16.2062 21.9769 19.0917 19.0914C21.9772 16.2059 21.4391 8.75007 24.9945 6.69289C28.4996 4.66497 34.6783 8.83756 38.6814 7.76752C42.5505 6.73352 45.8049 0 50.0001 0C54.1953 0 57.4495 6.73352 61.3186 7.76765C65.3218 8.8377 71.5006 4.66497 75.0057 6.69303C78.5611 8.75007 78.0229 16.2062 80.9085 19.0915C83.794 21.9771 91.2499 21.4389 93.3071 24.9944C95.3349 28.4994 91.1623 34.6782 92.2323 38.6814C93.2665 42.5505 100 45.8049 100 49.9999Z" fill="#231F20"/>
<path d="M23.1603 60.3403H19.2446C18.6384 60.3403 18.3354 60.0372 18.3354 59.431V43.0623C18.3354 42.4561 18.6384 42.153 19.2446 42.153H30.5109C31.117 42.153 31.4202 42.4561 31.4202 43.0623V46.0682C31.4202 46.6746 31.1169 46.9777 30.5107 46.9777H24.0694V49.6047H28.4646C29.0709 49.6047 29.3741 49.9078 29.3741 50.5141V53.5452C29.3741 54.1516 29.0709 54.4547 28.4646 54.4547H24.0694V59.431C24.0694 60.0372 23.7665 60.3403 23.1603 60.3403ZM38.7457 60.3403H34.8555C34.2493 60.3403 33.9463 60.0372 33.9463 59.431V43.0623C33.9463 42.4561 34.2493 42.153 34.8555 42.153H43.2673C44.5303 42.153 45.5237 42.3297 46.2479 42.6833C46.9719 43.0369 47.4857 43.5296 47.7889 44.161C48.092 44.7925 48.2435 45.5295 48.2435 46.3713V47.5333C48.2435 48.2406 48.1424 48.8386 47.9403 49.3269C47.7383 49.8155 47.3676 50.1774 46.8289 50.413C47.7549 50.5141 48.496 50.8847 49.0518 51.5245C49.6075 52.1646 49.8854 53.0148 49.8854 54.0759V59.431C49.8854 60.0372 49.5823 60.3403 48.9761 60.3403H45.0607C44.4545 60.3403 44.1514 60.0372 44.1514 59.431V55.5661C44.1514 55.1789 44.0795 54.901 43.9367 54.7326C43.7933 54.5644 43.5451 54.4799 43.1916 54.4799H39.6551V59.431C39.6551 60.0372 39.3519 60.3403 38.7457 60.3403ZM39.655 46.6998V49.9331H41.5497C41.9873 49.9331 42.2821 49.8194 42.4338 49.592C42.5852 49.3647 42.6612 49.083 42.6612 48.7459V47.887C42.6612 47.5503 42.5852 47.2682 42.4338 47.0408C42.2821 46.8134 41.9873 46.6998 41.5497 46.6998H39.655ZM65.3446 60.3403H53.6239C53.0176 60.3403 52.7145 60.0372 52.7145 59.431V43.0623C52.7145 42.4561 53.0176 42.153 53.6239 42.153H65.3446C65.9508 42.153 66.2541 42.4561 66.2541 43.0623V46.0177C66.2541 46.6239 65.9508 46.9272 65.3446 46.9272H58.3727V48.8721H63.2985C63.9047 48.8721 64.2079 49.1752 64.2079 49.7817V52.4843C64.2079 53.0905 63.9047 53.3936 63.2985 53.3936H58.3729V55.5661H65.3446C65.9508 55.5661 66.2541 55.8692 66.2541 56.4755V59.431C66.2541 60.0372 65.9508 60.3403 65.3446 60.3403ZM81.8647 60.3403H70.1438C69.5376 60.3403 69.2346 60.0372 69.2346 59.431V43.0623C69.2346 42.4561 69.5376 42.153 70.1438 42.153H81.8647C82.4709 42.153 82.774 42.4561 82.774 43.0623V46.0177C82.774 46.6239 82.4709 46.9272 81.8647 46.9272H74.8928V48.8721H79.8187C80.425 48.8721 80.7279 49.1752 80.7279 49.7817V52.4843C80.7279 53.0905 80.425 53.3936 79.8187 53.3936H74.8929V55.5661H81.8648C82.4711 55.5661 82.7742 55.8692 82.7742 56.4755V59.431C82.7742 60.0372 82.4711 60.3403 81.8648 60.3403H81.8647Z" fill="white"/>
</svg>
