<svg width="100" height="91" viewBox="0 0 100 91" fill="none" xmlns="http://www.w3.org/2000/svg">
<path d="M14.0625 15.625H17.1875V50H14.0625V15.625ZM92.1875 15.625H95.3125V75H92.1875V15.625ZM25 4.6875H84.375V7.8125H25V4.6875ZM50 82.8125H84.375V85.9375H50V82.8125Z" fill="black"/>
<path d="M98.4375 0H89.0625C88.1996 0 87.5 0.699555 87.5 1.5625V10.9375C87.5 11.8004 88.1996 12.5 89.0625 12.5H98.4375C99.3004 12.5 100 11.8004 100 10.9375V1.5625C100 0.699555 99.3004 0 98.4375 0Z" fill="black"/>
<path d="M98.4375 78.125H89.0625C88.1996 78.125 87.5 78.8246 87.5 79.6875V89.0625C87.5 89.9254 88.1996 90.625 89.0625 90.625H98.4375C99.3004 90.625 100 89.9254 100 89.0625V79.6875C100 78.8246 99.3004 78.125 98.4375 78.125Z" fill="black"/>
<path d="M20.3125 0H10.9375C10.0746 0 9.375 0.699555 9.375 1.5625V10.9375C9.375 11.8004 10.0746 12.5 10.9375 12.5H20.3125C21.1754 12.5 21.875 11.8004 21.875 10.9375V1.5625C21.875 0.699555 21.1754 0 20.3125 0Z" fill="black"/>
<path d="M45.3125 53.125H1.5625C1.14848 53.1262 0.75177 53.2913 0.459012 53.584C0.166254 53.8768 0.00123651 54.2735 0 54.6875L0 89.0625C0.00123651 89.4765 0.166254 89.8732 0.459012 90.166C0.75177 90.4587 1.14848 90.6238 1.5625 90.625H45.3125C45.7265 90.6238 46.1232 90.4587 46.416 90.166C46.7087 89.8732 46.8738 89.4765 46.875 89.0625V54.6875C46.8738 54.2735 46.7087 53.8768 46.416 53.584C46.1232 53.2913 45.7265 53.1262 45.3125 53.125ZM43.75 71.6094L35.3906 64.4375C35.2321 64.2969 35.046 64.191 34.8442 64.1264C34.6425 64.0619 34.4294 64.0401 34.2187 64.0625C34.0074 64.0866 33.803 64.153 33.6178 64.2577C33.4326 64.3624 33.2703 64.5032 33.1406 64.6719C21.6703 79.4094 24.4078 75.8906 19.7656 81.8594C19.6193 82.0465 19.4318 82.1974 19.2177 82.3003C19.0037 82.4033 18.7688 82.4556 18.5312 82.4531C18.2398 82.4525 17.9544 82.3699 17.7076 82.2149C17.4608 82.0599 17.2626 81.8386 17.1355 81.5763C17.0084 81.314 16.9577 81.0213 16.9889 80.7315C17.0202 80.4417 17.1324 80.1666 17.3125 79.9375L21.2969 74.7969L15.25 67.7344C15.1096 67.5706 14.937 67.4376 14.7429 67.3435C14.5488 67.2494 14.3375 67.1963 14.122 67.1875C13.9065 67.1788 13.6915 67.2144 13.4904 67.2924C13.2893 67.3703 13.1064 67.4889 12.9531 67.6406L3.125 77.4688V56.25H43.75V71.6094Z" fill="black"/>
<path d="M23.4375 67.1875C25.1634 67.1875 26.5625 65.7884 26.5625 64.0625C26.5625 62.3366 25.1634 60.9375 23.4375 60.9375C21.7116 60.9375 20.3125 62.3366 20.3125 64.0625C20.3125 65.7884 21.7116 67.1875 23.4375 67.1875Z" fill="black"/>
<path d="M84.9719 14.1828C84.7827 14.104 84.5799 14.0631 84.375 14.0625H73.4375C73.0231 14.0625 72.6257 14.2271 72.3326 14.5201C72.0396 14.8132 71.875 15.2106 71.875 15.625C71.875 16.0394 72.0396 16.4368 72.3326 16.7299C72.6257 17.0229 73.0231 17.1875 73.4375 17.1875H80.6031L51.5625 46.2281V39.0625C51.5625 38.6481 51.3979 38.2507 51.1049 37.9576C50.8118 37.6646 50.4144 37.5 50 37.5C49.5856 37.5 49.1882 37.6646 48.8951 37.9576C48.6021 38.2507 48.4375 38.6481 48.4375 39.0625V50C48.4391 50.4139 48.6043 50.8104 48.897 51.103C49.1896 51.3957 49.5861 51.5609 50 51.5625H60.9375C61.3519 51.5625 61.7493 51.3979 62.0424 51.1049C62.3354 50.8118 62.5 50.4144 62.5 50C62.5 49.5856 62.3354 49.1882 62.0424 48.8951C61.7493 48.6021 61.3519 48.4375 60.9375 48.4375H53.7719L82.8125 19.3969V26.5625C82.8125 26.9769 82.9771 27.3743 83.2701 27.6674C83.5632 27.9604 83.9606 28.125 84.375 28.125C84.7894 28.125 85.1868 27.9604 85.4799 27.6674C85.7729 27.3743 85.9375 26.9769 85.9375 26.5625V15.625C85.9363 15.3163 85.8441 15.0147 85.6723 14.7582C85.5005 14.5017 85.2569 14.3015 84.9719 14.1828Z" fill="black"/>
</svg>
