<svg width="100" height="80" viewBox="0 0 100 80" fill="none" xmlns="http://www.w3.org/2000/svg">
<path d="M51.6375 26.4404V24.4455C51.6375 24.0835 51.7813 23.7364 52.0373 23.4804C52.2932 23.2245 52.6404 23.0807 53.0023 23.0807C53.3643 23.0807 53.7115 23.2245 53.9674 23.4804C54.2234 23.7364 54.3672 24.0835 54.3672 24.4455V26.4404C54.3672 26.8024 54.2234 27.1496 53.9674 27.4055C53.7115 27.6615 53.3643 27.8053 53.0023 27.8053C52.6404 27.8053 52.2932 27.6615 52.0373 27.4055C51.7813 27.1496 51.6375 26.8024 51.6375 26.4404ZM53.0021 62.8103C52.6402 62.8103 52.293 62.9541 52.0371 63.2101C51.7811 63.4661 51.6373 63.8132 51.6373 64.1752V66.1699C51.6373 66.5319 51.7811 66.879 52.0371 67.135C52.293 67.391 52.6402 67.5348 53.0021 67.5348C53.3641 67.5348 53.7113 67.391 53.9672 67.135C54.2232 66.879 54.367 66.5319 54.367 66.1699V64.1752C54.367 63.8132 54.2232 63.4661 53.9672 63.2101C53.7113 62.9541 53.3641 62.8103 53.0021 62.8103ZM66.3412 33.3311C66.52 33.3313 66.6972 33.2962 66.8624 33.228C67.0277 33.1597 67.1779 33.0595 67.3045 32.9332L68.7191 31.5242C68.9699 31.2675 69.1094 30.9225 69.1077 30.5637C69.1059 30.2049 68.963 29.8612 68.7097 29.607C68.4565 29.3528 68.1134 29.2085 67.7546 29.2054C67.3958 29.2022 67.0502 29.3405 66.7926 29.5902L65.3779 30.9992C65.1866 31.1899 65.0562 31.4331 65.0031 31.698C64.9501 31.9629 64.9768 32.2375 65.08 32.4872C65.1831 32.7369 65.358 32.9503 65.5825 33.1005C65.807 33.2508 66.0711 33.331 66.3412 33.3311ZM38.6908 57.6863L37.2818 59.101C37.1518 59.2272 37.0482 59.378 36.9771 59.5447C36.9059 59.7113 36.8687 59.8905 36.8675 60.0717C36.8663 60.2529 36.9012 60.4325 36.9702 60.6001C37.0392 60.7676 37.1408 60.9198 37.2692 61.0477C37.3976 61.1756 37.5501 61.2766 37.718 61.3449C37.8858 61.4132 38.0656 61.4474 38.2468 61.4455C38.428 61.4436 38.607 61.4057 38.7733 61.3339C38.9397 61.2621 39.0901 61.1579 39.2158 61.0273L40.6248 59.6127C40.7548 59.4865 40.8585 59.3357 40.9296 59.169C41.0007 59.0023 41.038 58.8232 41.0391 58.642C41.0403 58.4608 41.0054 58.2812 40.9364 58.1136C40.8675 57.946 40.7658 57.7939 40.6375 57.666C40.5091 57.5381 40.3565 57.4371 40.1887 57.3688C40.0208 57.3005 39.8411 57.2663 39.6599 57.2682C39.4787 57.27 39.2997 57.308 39.1333 57.3798C38.9669 57.4516 38.8165 57.5558 38.6908 57.6863ZM34.132 43.9457H32.1373C31.7753 43.9457 31.4282 44.0895 31.1722 44.3455C30.9163 44.6014 30.7725 44.9486 30.7725 45.3105C30.7725 45.6725 30.9163 46.0197 31.1722 46.2756C31.4282 46.5316 31.7753 46.6754 32.1373 46.6754H34.132C34.494 46.6754 34.8412 46.5316 35.0971 46.2756C35.3531 46.0197 35.4969 45.6725 35.4969 45.3105C35.4969 44.9486 35.3531 44.6014 35.0971 44.3455C34.8412 44.0895 34.494 43.9457 34.132 43.9457ZM38.6928 32.9312C38.9594 33.1978 39.3086 33.3311 39.6578 33.3311C40.007 33.3311 40.3564 33.1978 40.6229 32.9312C40.8788 32.6753 41.0226 32.3281 41.0226 31.9661C41.0226 31.6041 40.8788 31.257 40.6229 31.001L39.2139 29.592C38.9564 29.3432 38.6116 29.2055 38.2536 29.2086C37.8956 29.2117 37.5531 29.3553 37.3 29.6084C37.0469 29.8616 36.9033 30.204 36.9003 30.562C36.8973 30.92 37.035 31.2649 37.2838 31.5223L38.6928 32.9312ZM58.3 33.883L55.5443 41.9453C56.5605 42.7168 57.2186 43.9381 57.2186 45.3105C57.2186 47.6353 55.3271 49.5268 53.0025 49.5268C50.6748 49.5268 48.7809 47.6353 48.7809 45.3105C48.7809 42.9998 50.6475 41.1176 52.952 41.0904L55.7172 33.0002C55.8395 32.6646 56.0886 32.3903 56.4109 32.2362C56.7332 32.0821 57.1031 32.0605 57.4412 32.1761C57.7792 32.2916 58.0585 32.5351 58.2191 32.8542C58.3796 33.1733 58.4087 33.5427 58.3 33.883ZM54.4887 45.3105C54.4887 44.4879 53.8219 43.8189 53.0021 43.8189C52.1795 43.8189 51.5102 44.4881 51.5102 45.3105C51.5102 46.1303 52.1795 46.7969 53.0021 46.7969C53.8219 46.7969 54.4887 46.1303 54.4887 45.3105ZM99.8047 57.7877C99.8047 58.9932 99.7057 60.2023 99.5102 61.3814C99.4572 61.7004 99.2929 61.9902 99.0463 62.1993C98.7997 62.4083 98.487 62.5232 98.1637 62.5232H94.9633C94.583 63.8939 94.0358 65.2127 93.334 66.45L95.5977 68.7137C95.8262 68.9422 95.9662 69.2443 95.9928 69.5664C96.0194 69.8885 95.9309 70.2095 95.743 70.4725C94.3412 72.4349 92.6254 74.1527 90.6646 75.5568C90.4017 75.7453 90.0804 75.8343 89.758 75.8079C89.4356 75.7815 89.133 75.6414 88.9043 75.4127L86.6395 73.1478C85.4005 73.8498 84.0801 74.3974 82.708 74.7783V77.9783C82.708 78.3014 82.5934 78.614 82.3846 78.8605C82.1758 79.107 81.8863 79.2715 81.5676 79.3246C80.3793 79.5215 79.1769 79.6201 77.9725 79.6195C76.7684 79.6197 75.5664 79.5211 74.3785 79.3248C74.0596 79.2719 73.7698 79.1076 73.5607 78.861C73.3517 78.6144 73.2369 78.3016 73.2369 77.9783V74.7785C72.5736 74.594 71.9218 74.3705 71.285 74.109C65.8189 77.5859 59.5146 79.4207 53.0018 79.4207C40.1387 79.4207 28.9174 72.2629 23.1076 61.7219H9.10078C8.7388 61.7219 8.39165 61.5781 8.13569 61.3221C7.87973 61.0662 7.73594 60.719 7.73594 60.357C7.73594 59.995 7.87973 59.6479 8.13569 59.3919C8.39165 59.136 8.7388 58.9922 9.10078 58.9922H21.7598C21.15 57.6065 20.6338 56.1814 20.2148 54.7266H6.98437C6.6224 54.7266 6.27524 54.5828 6.01928 54.3268C5.76333 54.0708 5.61953 53.7237 5.61953 53.3617C5.61953 52.9997 5.76333 52.6526 6.01928 52.3966C6.27524 52.1407 6.6224 51.9969 6.98437 51.9969H19.552C19.2711 50.5885 19.0798 49.1638 18.9791 47.7312H1.36484C1.00286 47.7312 0.655711 47.5875 0.399753 47.3315C0.143796 47.0755 0 46.7284 0 46.3664C0 46.0044 0.143796 45.6573 0.399753 45.4013C0.655711 45.1454 1.00286 45.0016 1.36484 45.0016H18.8963C18.9092 43.5588 19.0117 42.1369 19.1992 40.7416H6.98437C6.6224 40.7416 6.27524 40.5978 6.01928 40.3418C5.76333 40.0859 5.61953 39.7387 5.61953 39.3768C5.61953 39.0148 5.76333 38.6676 6.01928 38.4117C6.27524 38.1557 6.6224 38.0119 6.98437 38.0119H19.6809C19.9972 36.5646 20.4083 35.1397 20.9115 33.7463H9.10078C8.7388 33.7463 8.39165 33.6025 8.13569 33.3465C7.87973 33.0906 7.73594 32.7434 7.73594 32.3814C7.73594 32.0195 7.87973 31.6723 8.13569 31.4164C8.39165 31.1604 8.7388 31.0166 9.10078 31.0166H22.0355C24.0564 26.6547 26.9715 22.7887 30.5451 19.6559L27.4264 15.3703L24.9287 17.1895C24.6958 17.3596 24.4148 17.4513 24.1264 17.4512C23.8381 17.4515 23.5572 17.3606 23.3239 17.1914C23.0905 17.0223 22.9167 16.7836 22.8273 16.5096C22.738 16.2355 22.7377 15.9403 22.8265 15.6661C22.9153 15.3919 23.0887 15.1528 23.3217 14.9832L30.5217 9.73945C30.8142 9.52635 31.1795 9.43819 31.5371 9.49438C31.8946 9.55057 32.2152 9.74649 32.4283 10.0391C32.6414 10.3316 32.7296 10.6969 32.6734 11.0544C32.6172 11.412 32.4213 11.7326 32.1287 11.9457L29.633 13.7635L32.6699 17.9365C37.0238 14.6932 42.1742 12.4627 47.7695 11.5975V8.42676H44.1336C43.7716 8.42676 43.4245 8.28296 43.1685 8.027C42.9125 7.77105 42.7687 7.42389 42.7687 7.06191V1.36484C42.7687 1.00286 42.9125 0.655711 43.1685 0.399753C43.4245 0.143796 43.7716 0 44.1336 0H61.8654C62.2274 0 62.5746 0.143796 62.8305 0.399753C63.0865 0.655711 63.2303 1.00286 63.2303 1.36484V7.06191C63.2303 7.42389 63.0865 7.77105 62.8305 8.027C62.5746 8.28296 62.2274 8.42676 61.8654 8.42676H58.235V11.5971C73.4838 13.9502 85.4986 26.4234 86.9621 42.0992L88.899 40.1625C89.1275 39.934 89.4297 39.794 89.7517 39.7674C90.0737 39.7408 90.3947 39.8293 90.6576 40.0172C92.6312 41.4279 94.3422 43.1371 95.743 45.0971C95.9309 45.36 96.0194 45.681 95.9928 46.0031C95.9662 46.3252 95.8262 46.6274 95.5977 46.8559L93.333 49.1205C94.035 50.3595 94.5827 51.6798 94.9637 53.0519H98.1637C98.4868 53.052 98.7993 53.1667 99.0458 53.3755C99.2924 53.5844 99.4568 53.8739 99.51 54.1926C99.7067 55.3808 99.8052 56.5833 99.8047 57.7877ZM45.4984 5.69688H60.5008V2.72969H45.4984V5.69688ZM50.499 11.2873C51.3258 11.2271 52.1604 11.1951 53.0021 11.1951C53.8438 11.1951 54.6783 11.226 55.5053 11.2861V8.42676H50.499V11.2873ZM53.0021 76.6908C56.8391 76.6908 60.5963 75.9969 64.123 74.6598C62.9816 73.7226 61.9381 72.6721 61.0088 71.5242C58.4227 72.3123 55.7342 72.7125 53.0021 72.7125C37.8896 72.7125 25.5949 60.4199 25.5949 45.3103C25.5949 30.1978 37.8896 17.9029 53.0021 17.9029C58.9176 17.9029 64.5506 19.758 69.2922 23.2676C73.6742 26.5109 76.9367 30.8869 78.7752 35.9668C79.7041 36.0018 80.64 36.0955 81.5678 36.2502C81.8865 36.3033 82.176 36.4678 82.3848 36.7143C82.5936 36.9608 82.7082 37.2734 82.7082 37.5965V40.791C83.1865 40.9242 83.6589 41.0778 84.124 41.2514C82.126 25.7539 68.8738 13.9246 53.0021 13.9246C35.699 13.9246 21.6219 28.0041 21.6219 45.3103C21.6219 62.6137 35.6992 76.6908 53.0021 76.6908ZM60.2023 45.0971C61.6033 43.1369 63.3143 41.4277 65.2879 40.0172C65.5507 39.8292 65.8718 39.7406 66.1938 39.7672C66.5159 39.7938 66.8181 39.9339 67.0465 40.1625L69.3057 42.4217C70.5447 41.7197 71.865 41.1721 73.2371 40.7912V37.5967C73.2372 37.2734 73.352 36.9607 73.561 36.7141C73.7701 36.4675 74.0598 36.3031 74.3787 36.2502C74.8805 36.167 75.3836 36.1051 75.8857 36.0562C72.1389 26.7619 63.1574 20.6328 53.0021 20.6328C39.3949 20.6328 28.3244 31.7031 28.3244 45.3103C28.3244 58.9148 39.3947 69.9826 53.0021 69.9826C55.4516 69.9826 57.8609 69.6252 60.1783 68.9227C60.2275 68.8488 60.2828 68.7781 60.3477 68.7135L62.6115 66.4498C61.9097 65.2125 61.3626 63.8937 60.9822 62.523H57.7818C57.4585 62.523 57.1458 62.4082 56.8992 62.1991C56.6526 61.99 56.4883 61.7002 56.4354 61.3812C56.2392 60.1934 56.1407 58.9914 56.1408 57.7875C56.1408 56.5762 56.24 55.3666 56.4355 54.1924C56.4887 53.8737 56.6531 53.5842 56.8996 53.3753C57.1461 53.1664 57.4587 53.0518 57.7818 53.0518H60.9818C61.3627 51.6797 61.9103 50.3594 62.6123 49.1205L60.3477 46.8557C60.1192 46.6272 59.9792 46.325 59.9526 46.003C59.926 45.681 60.0145 45.36 60.2023 45.0971ZM97.075 57.7877C97.0751 57.1177 97.0405 56.4482 96.9713 55.7818H93.8922C93.579 55.7818 93.2754 55.6741 93.0322 55.4768C92.789 55.2794 92.6211 55.0045 92.5566 54.698C92.1794 52.9031 91.4707 51.1943 90.467 49.6592C90.2959 49.3969 90.2202 49.0837 90.2526 48.7723C90.285 48.4608 90.4235 48.1699 90.6449 47.9484L92.8248 45.7686C91.9808 44.7272 91.0295 43.7775 89.9867 42.9352L87.8119 45.1102C87.5904 45.3315 87.2996 45.47 86.9881 45.5024C86.6766 45.5348 86.3635 45.4591 86.1012 45.2881C84.566 44.2844 82.8571 43.5757 81.0621 43.1984C80.7557 43.1339 80.4808 42.9659 80.2835 42.7228C80.0862 42.4796 79.9786 42.176 79.9785 41.8629V38.7875C78.6451 38.6445 77.3002 38.6447 75.9668 38.7881V41.8629C75.9668 42.176 75.8591 42.4796 75.6618 42.7228C75.4645 42.9659 75.1896 43.1339 74.8832 43.1984C73.0882 43.5757 71.3793 44.2843 69.8441 45.2881C69.5819 45.4592 69.2687 45.5349 68.9572 45.5025C68.6457 45.4701 68.3549 45.3316 68.1334 45.1102L65.9586 42.9352C64.9158 43.7774 63.9645 44.7271 63.1205 45.7686L65.3004 47.9484C65.5218 48.1699 65.6604 48.4607 65.6928 48.7722C65.7253 49.0837 65.6496 49.3969 65.4785 49.6592C64.4748 51.1943 63.7662 52.9031 63.3889 54.698C63.3243 55.0045 63.1564 55.2794 62.9133 55.4767C62.6701 55.6741 62.3665 55.7818 62.0533 55.7818H58.9742C58.8357 57.1154 58.8359 58.4598 58.9746 59.7934H62.0533C62.3663 59.7934 62.6698 59.901 62.913 60.0982C63.1561 60.2953 63.324 60.5701 63.3887 60.8764C63.7651 62.6694 64.4735 64.3763 65.4773 65.909C65.6491 66.1713 65.7252 66.4848 65.693 66.7967C65.6608 67.1085 65.5221 67.3998 65.3004 67.6215L63.1203 69.8016C63.964 70.8444 64.9152 71.7955 65.958 72.6393L68.1326 70.4607C68.3539 70.2389 68.6449 70.1 68.9566 70.0674C69.2683 70.0348 69.5817 70.1105 69.8441 70.2818C70.4269 70.6621 71.0356 71.001 71.6658 71.2961C71.6838 71.3033 71.7014 71.3117 71.7191 71.3197C72.7306 71.789 73.7921 72.1419 74.8832 72.3717C75.1896 72.4362 75.4645 72.6042 75.6618 72.8473C75.8591 73.0905 75.9668 73.3941 75.9668 73.7072V76.7859C77.3005 76.9243 78.6448 76.9245 79.9785 76.7863V73.7072C79.9786 73.3941 80.0862 73.0905 80.2835 72.8473C80.4808 72.6042 80.7557 72.4362 81.0621 72.3717C82.8571 71.9944 84.566 71.2858 86.1012 70.282C86.3634 70.1107 86.6766 70.0349 86.9881 70.0673C87.2997 70.0997 87.5905 70.2384 87.8119 70.46L89.9908 72.6391C91.032 71.7948 91.9819 70.8439 92.825 69.8017L90.6449 67.6217C90.4232 67.4 90.2845 67.1087 90.2523 66.7968C90.2201 66.485 90.2962 66.1715 90.468 65.9092C91.4718 64.3765 92.1801 62.6696 92.5566 60.8766C92.6213 60.5703 92.7892 60.2955 93.0323 60.0984C93.2755 59.9012 93.579 59.7936 93.892 59.7935H96.9707C97.04 59.1287 97.075 58.4578 97.075 57.7877ZM89.1898 57.7877C89.1898 63.9728 84.158 69.0049 77.9729 69.0049C71.7877 69.0049 66.7557 63.9728 66.7557 57.7877C66.7557 51.6025 71.7877 46.5705 77.9729 46.5705C84.158 46.5705 89.1898 51.6025 89.1898 57.7877ZM86.4602 57.7877C86.4602 53.1078 82.6527 49.3002 77.9727 49.3002C73.2926 49.3002 69.4852 53.1076 69.4852 57.7877C69.4852 62.4678 73.2926 66.2752 77.9727 66.2752C82.6527 66.275 86.4602 62.4676 86.4602 57.7877Z" fill="black"/>
</svg>
