<svg width="100" height="100" viewBox="0 0 100 100" fill="none" xmlns="http://www.w3.org/2000/svg">
<path fill-rule="evenodd" clip-rule="evenodd" d="M50.012 0C61.4371 0 71.9761 3.83234 80.3832 10.2994L62.6587 28.024C60.8862 21.9641 55.976 17.5329 50.1078 17.2695V17.2455H49.8683V17.2695C42.515 17.5808 36.6228 24.503 36.6228 32.982C36.6228 38.9461 39.5449 44.1677 43.8563 46.8263L41.5569 49.1258C40.7186 48.5269 39.9281 47.8323 39.1856 47.0659C29.9162 44.6946 25.8683 56.5509 23.5928 67.0659L10.2994 80.3593C3.83234 71.9281 0 61.4132 0 49.988C0 22.3713 22.3713 0 49.988 0H50.012ZM89.7006 19.6168C96.1437 28.0479 100 38.5629 100 49.988C100 77.6048 77.6287 99.9761 50.012 99.9761C38.5868 99.9761 28.0479 96.1437 19.6407 89.6767L27.0898 82.2275C28.0958 82.515 29.2695 82.7066 30.7066 82.7066H50.1557H50.1317H69.3413C78.8503 82.7066 77.9162 74.9461 77.9162 74.9461C76.0479 64.503 72.9341 46.0359 62.5389 46.7784L89.7246 19.5928L89.7006 19.6168ZM17.6766 87.8084L12 82.1317L81.7485 11.9521L87.8323 18.2515L17.6766 87.8084Z" fill="#2B2A29"/>
<path fill-rule="evenodd" clip-rule="evenodd" d="M17.9879 87.521L12.3113 81.8443L82.0598 11.6647L88.1436 17.9641L17.9879 87.521Z" fill="#2B2A29"/>
</svg>
