<svg width="100" height="123" viewBox="0 0 100 123" fill="none" xmlns="http://www.w3.org/2000/svg">
<path d="M30.0933 119.26C30.0933 121.217 31.6855 122.79 33.623 122.79H66.3689C68.3064 122.79 69.8795 121.217 69.8795 119.26V105.927H30.0933V119.26ZM72.0337 91.35H27.9447C27.1127 91.3482 26.2884 91.5108 25.5193 91.8284C24.7502 92.146 24.0515 92.6124 23.4631 93.2008C22.8747 93.7892 22.4083 94.4879 22.0907 95.257C21.7731 96.0261 21.6105 96.8503 21.6123 97.6824C21.6123 101.193 24.4515 104.013 27.9428 104.013H72.0337C72.8651 104.013 73.6883 103.849 74.4563 103.531C75.2244 103.213 75.9222 102.747 76.5101 102.159C77.0979 101.571 77.5642 100.873 77.8824 100.105C78.2005 99.3369 78.3642 98.5138 78.3642 97.6824C78.3642 96.8511 78.2005 96.0279 77.8824 95.2598C77.5642 94.4918 77.0979 93.7939 76.5101 93.2061C75.9222 92.6182 75.2244 92.1519 74.4563 91.8338C73.6883 91.5157 72.8651 91.35 72.0337 91.35ZM42.6065 63.9198C42.6086 65.8796 43.3879 67.7587 44.7735 69.1447C46.1592 70.5307 48.038 71.3105 49.9979 71.313C51.9577 71.3105 53.8366 70.5307 55.2222 69.1447C56.6079 67.7587 57.3872 65.8796 57.3892 63.9198C57.3872 61.9601 56.6078 60.0813 55.2221 58.6956C53.8364 57.3099 51.9576 56.5305 49.9979 56.5284C48.0384 56.531 46.1598 57.3105 44.7742 58.6961C43.3886 60.0817 42.6091 61.9603 42.6065 63.9198Z" fill="black"/>
<path d="M52.9983 17.2065C52.5187 16.3432 51.7705 15.8061 50.9457 15.5759V54.7099C55.6264 55.1894 59.3096 59.122 59.3096 63.9179C59.3096 69.059 55.1276 73.2409 50.0057 73.2409C44.8645 73.2409 40.6826 69.059 40.6826 63.9179C40.6826 59.122 44.3466 55.2086 49.0273 54.7099V15.5951C48.2216 15.8253 47.4927 16.3624 47.0131 17.2065L15.8402 74.2385C14.7084 76.2911 15.9553 78.7849 18.2765 79.2261C25.0674 80.5114 30.6305 84.3673 33.2203 89.4317H66.7527C69.3425 84.3673 74.9248 80.5114 81.7157 79.2261C84.0177 78.7849 85.2838 76.2911 84.152 74.2385L52.9983 17.2065Z" fill="black"/>
<path d="M90.7376 5.61784C90.9702 6.75345 91.6161 7.76227 92.5502 8.4488C93.4842 9.13533 94.6398 9.45069 95.7931 9.33377C96.9464 9.21685 98.0152 8.67598 98.7924 7.81596C99.5697 6.95594 100 5.83802 100 4.67882C100 3.51963 99.5697 2.4017 98.7924 1.54168C98.0152 0.681666 96.9464 0.140791 95.7931 0.0238709C94.6398 -0.0930487 93.4842 0.222313 92.5502 0.908843C91.6161 1.59537 90.9702 2.60419 90.7376 3.7398C90.703 3.73596 90.6724 3.72061 90.6378 3.72061H54.6691C54.6365 3.72061 54.6116 3.73404 54.5789 3.73788C54.362 2.68318 53.7877 1.73565 52.9531 1.05526C52.1185 0.374874 51.0747 0.00331576 49.998 0.00331576C48.9212 0.00331576 47.8774 0.374874 47.0428 1.05526C46.2082 1.73565 45.6339 2.68318 45.417 3.73788C45.3844 3.73404 45.3594 3.7187 45.3268 3.7187H9.3581C9.32165 3.7187 9.29288 3.73596 9.25835 3.73788C9.02549 2.60292 8.37964 1.59479 7.44594 0.908821C6.51224 0.222847 5.35716 -0.0921394 4.20449 0.0248895C3.05181 0.141918 1.9836 0.682631 1.20682 1.54227C0.430048 2.4019 0 3.51926 0 4.67786C0 5.83646 0.430048 6.95382 1.20682 7.81346C1.9836 8.67309 3.05181 9.21381 4.20449 9.33084C5.35716 9.44786 6.51224 9.13288 7.44594 8.4469C8.37964 7.76093 9.02549 6.7528 9.25835 5.61784C9.29288 5.62168 9.32165 5.63703 9.3581 5.63703H37.3235C21.0638 10.6554 8.73656 25.0448 6.84893 42.3654C6.84509 42.4172 6.86044 42.4613 6.86427 42.5112C5.68615 42.6698 4.61308 43.2724 3.86435 44.1957C3.11561 45.119 2.74775 46.2934 2.83592 47.4789C2.9241 48.6643 3.46166 49.7714 4.33875 50.5738C5.21585 51.3762 6.36625 51.8133 7.55487 51.7959C8.69139 51.8002 9.79037 51.3894 10.6455 50.6407C11.5006 49.8921 12.053 48.857 12.199 47.7299C12.345 46.6028 12.0746 45.4612 11.4385 44.5194C10.8024 43.5775 9.84432 42.9003 8.74424 42.6148C8.74616 42.5994 8.75575 42.5879 8.75767 42.5726C10.8429 23.42 26.2759 7.9889 45.4496 5.88066C45.4669 5.88066 45.4784 5.86915 45.4937 5.86723C46.0232 7.86805 47.8302 9.35092 49.998 9.35092C52.1657 9.35092 53.9708 7.86805 54.5022 5.86723C54.5176 5.86915 54.5291 5.88066 54.5444 5.88066C73.7201 7.97164 89.1511 23.4008 91.2363 42.5726C91.2383 42.5879 91.2479 42.5994 91.2498 42.6148C90.1482 42.8987 89.1885 43.5755 88.5511 44.5178C87.9138 45.46 87.6428 46.6027 87.7892 47.7308C87.9356 48.8589 88.4893 49.8946 89.346 50.6429C90.2028 51.3913 91.3035 51.8006 92.4411 51.794C93.6811 51.794 94.8704 51.3015 95.7474 50.4249C96.6245 49.5482 97.1174 48.3591 97.1179 47.119C97.1168 46.0002 96.7133 44.9191 95.9811 44.0732C95.2489 43.2272 94.2368 42.6728 93.1297 42.5112C93.1336 42.4632 93.1489 42.4153 93.1432 42.3654C91.2574 25.0352 78.9418 10.6477 62.6896 5.63703H90.6378C90.6724 5.63703 90.703 5.62168 90.7376 5.61784Z" fill="black"/>
</svg>
