<svg width="100" height="100" viewBox="0 0 100 100" fill="none" xmlns="http://www.w3.org/2000/svg">
<path d="M91.9922 5.28748H8.00781C5.88475 5.28991 3.84935 6.13436 2.34812 7.63559C0.846888 9.13682 0.00242957 11.1722 0 13.2953L0 71.4574C0.00237799 73.5805 0.846819 75.6159 2.34806 77.1172C3.8493 78.6184 5.88474 79.4628 8.00781 79.4652H43.9773V85.4539H38.6719C37.4447 85.4554 36.2682 85.9436 35.4004 86.8113C34.5326 87.6791 34.0445 88.8556 34.043 90.0828V93.7351C34.043 93.9941 34.1459 94.2425 34.329 94.4257C34.5121 94.6088 34.7605 94.7117 35.0195 94.7117H64.9805C65.2395 94.7117 65.4879 94.6088 65.671 94.4257C65.8541 94.2425 65.957 93.9941 65.957 93.7351V90.0828C65.9555 88.8556 65.4674 87.6791 64.5996 86.8113C63.7318 85.9436 62.5553 85.4554 61.3281 85.4539H56.0225V79.4652H91.9922C94.1153 79.4628 96.1507 78.6184 97.6519 77.1172C99.1532 75.6159 99.9976 73.5805 100 71.4574V13.2953C99.9976 11.1722 99.1531 9.13682 97.6519 7.63559C96.1507 6.13436 94.1152 5.28991 91.9922 5.28748ZM64.0039 90.0832V92.759H35.9961V90.0832C35.997 89.3738 36.2792 88.6937 36.7808 88.1921C37.2824 87.6905 37.9625 87.4083 38.6719 87.4074H61.3281C62.0375 87.4083 62.7176 87.6905 63.2192 88.1921C63.7208 88.6937 64.003 89.3738 64.0039 90.0832ZM54.0689 85.4543H45.9305V79.4652H54.0693L54.0689 85.4543ZM91.9922 77.5121H8.00781C6.40256 77.5103 4.86358 76.8718 3.7285 75.7367C2.59342 74.6016 1.95493 73.0626 1.95312 71.4574V68.2685H98.0469V71.4574C98.0451 73.0626 97.4066 74.6016 96.2715 75.7367C95.1364 76.8718 93.5974 77.5103 91.9922 77.5121ZM98.0469 66.3154H1.95312V13.2953C1.95499 11.6901 2.59349 10.1511 3.72856 9.01603C4.86363 7.88096 6.40258 7.24246 8.00781 7.2406H91.9922C93.5974 7.24246 95.1364 7.88096 96.2714 9.01603C97.4065 10.1511 98.045 11.6901 98.0469 13.2953V66.3154ZM53.7305 69.9709H46.2695C45.4951 69.9709 44.7524 70.2785 44.2048 70.8261C43.6572 71.3737 43.3496 72.1164 43.3496 72.8908C43.3496 73.6652 43.6572 74.4079 44.2048 74.9555C44.7524 75.5031 45.4951 75.8107 46.2695 75.8107H53.7305C54.5049 75.8107 55.2476 75.5031 55.7952 74.9555C56.3428 74.4079 56.6504 73.6652 56.6504 72.8908C56.6504 72.1164 56.3428 71.3737 55.7952 70.8261C55.2476 70.2785 54.5049 69.9709 53.7305 69.9709ZM53.7305 73.8576H46.2695C46.0131 73.8576 45.7672 73.7557 45.5859 73.5744C45.4046 73.3931 45.3027 73.1472 45.3027 72.8908C45.3027 72.6344 45.4046 72.3885 45.5859 72.2072C45.7672 72.0259 46.0131 71.924 46.2695 71.924H53.7305C53.9869 71.924 54.2328 72.0259 54.4141 72.2072C54.5954 72.3885 54.6973 72.6344 54.6973 72.8908C54.6973 73.1472 54.5954 73.3931 54.4141 73.5744C54.2328 73.7557 53.9869 73.8576 53.7305 73.8576ZM46.7338 34.4254C47.7608 34.4254 48.7648 34.1209 49.6188 33.5503C50.4728 32.9797 51.1384 32.1687 51.5314 31.2199C51.9245 30.271 52.0273 29.2269 51.827 28.2196C51.6266 27.2123 51.1321 26.287 50.4058 25.5607C49.6796 24.8345 48.7543 24.3399 47.747 24.1396C46.7397 23.9392 45.6956 24.0421 44.7467 24.4351C43.7978 24.8282 42.9868 25.4938 42.4163 26.3478C41.8457 27.2017 41.5412 28.2057 41.5412 29.2328C41.5428 30.6095 42.0904 31.9293 43.0639 32.9027C44.0373 33.8762 45.3571 34.4238 46.7338 34.4254ZM46.7338 25.9931C47.3745 25.9931 48.0009 26.1831 48.5337 26.539C49.0665 26.895 49.4817 27.4009 49.727 27.9929C49.9722 28.5849 50.0364 29.2362 49.9114 29.8647C49.7864 30.4931 49.4779 31.0704 49.0248 31.5235C48.5718 31.9766 47.9945 32.2852 47.3661 32.4102C46.7376 32.5352 46.0863 32.471 45.4943 32.2259C44.9023 31.9807 44.3963 31.5654 44.0403 31.0327C43.6843 30.4999 43.4943 29.8735 43.4943 29.2328C43.4953 28.3739 43.8369 27.5505 44.4442 26.9431C45.0515 26.3358 45.8749 25.9941 46.7338 25.9931ZM73.5869 15.8174H26.4131C25.2739 15.8187 24.1817 16.2718 23.3762 17.0773C22.5706 17.8829 22.1175 18.975 22.1162 20.1142V53.442C22.1175 54.5812 22.5706 55.6733 23.3762 56.4789C24.1817 57.2844 25.2739 57.7375 26.4131 57.7388H73.5869C74.7261 57.7375 75.8183 57.2844 76.6238 56.4789C77.4294 55.6733 77.8825 54.5812 77.8838 53.442V20.114C77.8825 18.9748 77.4294 17.8827 76.6238 17.0771C75.8183 16.2716 74.7261 15.8187 73.5869 15.8174ZM26.4131 17.7705H73.5869C74.2083 17.7712 74.8041 18.0183 75.2435 18.4577C75.6828 18.8971 75.93 19.4928 75.9307 20.1142V43.8902L61.1523 28.6676C61.0613 28.5738 60.9524 28.4993 60.832 28.4484C60.7117 28.3975 60.5823 28.3712 60.4517 28.3712C60.321 28.3712 60.1916 28.3975 60.0713 28.4484C59.9509 28.4993 59.842 28.5738 59.751 28.6676L45.8057 43.031L40.482 37.5476C40.391 37.4539 40.2821 37.3793 40.1617 37.3284C40.0414 37.2775 39.912 37.2513 39.7813 37.2513C39.6507 37.2513 39.5213 37.2775 39.401 37.3284C39.2806 37.3793 39.1717 37.4539 39.0807 37.5476L24.0693 53.0078V20.114C24.07 19.4926 24.3172 18.8969 24.7565 18.4575C25.1959 18.0181 25.7917 17.7712 26.4131 17.7705ZM73.5869 55.7859H26.4131C26.1061 55.7862 25.8021 55.726 25.5184 55.6087C25.2347 55.4914 24.9769 55.3193 24.7598 55.1023L39.7809 39.6289L44.4441 44.4336L40.0279 48.9822C39.8475 49.168 39.7483 49.4179 39.7521 49.6769C39.7559 49.9359 39.8624 50.1828 40.0482 50.3633C40.2341 50.5437 40.484 50.6429 40.743 50.6391C41.002 50.6353 41.2489 50.5288 41.4293 50.3429L45.8053 45.8355L50.1803 50.3427C50.2696 50.4348 50.3762 50.5083 50.4939 50.5591C50.6117 50.6099 50.7383 50.6371 50.8665 50.639C50.9948 50.6409 51.1221 50.6175 51.2413 50.5702C51.3605 50.5228 51.4692 50.4525 51.5612 50.3632C51.6532 50.2738 51.7268 50.1672 51.7776 50.0495C51.8284 49.9317 51.8555 49.8051 51.8574 49.6769C51.8593 49.5487 51.836 49.4213 51.7886 49.3021C51.7413 49.1829 51.671 49.0742 51.5816 48.9822L47.1664 44.4336L60.4508 30.7502L75.8309 46.592C75.8622 46.6221 75.8956 46.6502 75.9307 46.676V53.4424C75.9299 54.0637 75.6827 54.6593 75.2433 55.0986C74.8039 55.538 74.2082 55.785 73.5869 55.7857V55.7859Z" fill="black"/>
</svg>
