<svg width="100" height="114" viewBox="0 0 100 114" fill="none" xmlns="http://www.w3.org/2000/svg">
<path d="M3.90401 49.5471C4.08386 49.6124 4.27372 49.6458 4.46506 49.6459C4.80413 49.6457 5.13492 49.5411 5.41244 49.3463C5.68996 49.1514 5.90075 48.8759 6.01615 48.5571C8.80191 40.8523 13.6339 34.0097 19.9889 28.7682C20.3263 28.4897 20.5393 28.0887 20.5811 27.6533C20.6229 27.2178 20.4901 26.7836 20.2118 26.4461C19.9332 26.1089 19.5322 25.8961 19.0968 25.8543C18.6615 25.8125 18.2273 25.9452 17.8897 26.2232C11.0794 31.8404 5.90109 39.1753 2.91396 47.4347C2.76514 47.8461 2.78584 48.2998 2.97151 48.696C3.15718 49.0921 3.49261 49.3983 3.90401 49.5471ZM89.6314 36.4165C95.9315 32.7 100 26.8617 100 20.2863C100 9.10407 88.213 0 73.7322 0C61.6043 0 51.3677 6.3883 48.3661 15.0416C39.9438 15.1734 31.6862 17.4385 24.4404 21.6607C23.6596 22.1115 23.3849 23.123 23.8465 23.9149C24.1543 24.4426 24.7042 24.7285 25.2759 24.7285C25.5655 24.7298 25.8502 24.6539 26.1006 24.5085C32.621 20.7151 40.0206 18.6152 47.5965 18.3622C47.5175 19.0005 47.4771 19.6431 47.4755 20.2863C47.4755 21.3638 47.5856 22.4193 47.7944 23.453C47.4975 23.2662 47.1566 23.1563 46.7829 23.1781C45.6173 23.244 44.4408 23.3649 43.2974 23.5298C42.3957 23.6616 41.769 24.5083 41.901 25.3989C42.022 26.2236 42.7257 26.8173 43.5285 26.8173C43.6055 26.8173 43.6934 26.8064 43.7704 26.7953C44.8259 26.6413 45.9033 26.5314 46.97 26.4655C47.5967 26.4325 48.1133 26.0476 48.3663 25.5199C49.0042 27.4001 49.9938 29.1924 51.324 30.8746C50.5887 30.8174 49.8515 30.7881 49.114 30.7868C30.7958 30.7868 15.8862 45.6963 15.8862 64.0145C15.8862 71.5573 18.4922 78.9461 23.2202 84.8066C23.781 85.5212 24.8254 85.6313 25.5292 85.0594C26.2438 84.4877 26.3539 83.4542 25.7819 82.7393C23.22 79.5506 21.3839 75.9551 20.3062 72.1179C23.6159 74.8998 28.5856 77.1318 34.633 78.5171C36.0074 84.5425 38.2285 89.5013 40.9993 92.811C37.6568 91.8654 34.479 90.3591 31.5983 88.2699C30.8617 87.731 29.8391 87.8961 29.3004 88.6327C28.7616 89.3693 28.9265 90.4028 29.6633 90.9417C35.3259 95.043 42 97.2201 48.9931 97.2421C49.037 97.2421 49.081 97.253 49.1249 97.253C49.1469 97.253 49.1688 97.2421 49.1908 97.2421C67.4431 97.209 82.2976 82.3654 82.3416 64.1133C82.3416 64.0802 82.3527 64.0474 82.3527 64.0254C82.3527 63.9923 82.3416 63.9595 82.3416 63.9264C82.3196 54.8004 78.5812 46.5428 72.5668 40.5504C72.9517 40.5613 73.3476 40.5724 73.7324 40.5724C78.4385 40.5724 82.8476 39.6048 86.6739 37.9336C90.5553 43.4861 93.194 49.8305 94.3157 56.5266C94.4475 57.3293 95.1512 57.901 95.9429 57.901C96.0308 57.901 96.1189 57.8899 96.2068 57.879C96.6389 57.8058 97.0247 57.5649 97.28 57.2086C97.5354 56.8523 97.6396 56.4096 97.5701 55.9768C96.3934 48.9512 93.6556 42.277 89.6314 36.4165ZM60.9556 22.3427C60.043 22.3427 59.3062 21.6059 59.3062 20.6933C59.3062 19.7807 60.0428 19.0439 60.9556 19.0439C62.2311 19.0439 63.2757 17.9993 63.2757 16.7128C63.2757 15.4262 62.2313 14.3818 60.9556 14.3818C59.6691 14.3818 58.6247 15.4264 58.6247 16.7128C58.6247 17.6253 57.8881 18.3622 56.9753 18.3622C56.0625 18.3622 55.3259 17.6256 55.3259 16.7128C55.3259 13.6122 57.8437 11.0833 60.9554 11.0833C64.056 11.0833 66.574 13.6122 66.574 16.7128C66.574 18.2632 65.9473 19.6704 64.9246 20.6931C65.9473 21.7047 66.574 23.1119 66.574 24.6623C66.574 27.774 64.0562 30.2918 60.9554 30.2918C57.8437 30.2918 55.3259 27.774 55.3259 24.6623C55.3259 23.7606 56.0625 23.0129 56.9753 23.0129C57.8881 23.0129 58.6247 23.7606 58.6247 24.6623C58.6247 25.9489 59.6693 26.9933 60.9556 26.9933C62.2311 26.9933 63.2757 25.9487 63.2757 24.6623C63.2755 23.3871 62.2311 22.3427 60.9556 22.3427ZM49.1247 34.0966C49.8615 34.0966 50.5981 34.2726 51.3347 34.6024C50.9609 35.6579 50.411 37.0435 49.6085 38.8906C49.0696 40.1441 49.3996 41.5844 50.4332 42.475C50.9919 42.9586 51.7065 43.2241 52.4454 43.2227C53.0063 43.2227 53.5671 43.0687 54.0726 42.7608C55.0723 42.1364 56.0841 41.5315 57.1073 40.9466C58.2618 43.1346 59.2734 45.7844 60.065 48.8411C56.6455 48.2803 52.973 47.9833 49.1247 47.9833C45.2653 47.9833 41.593 48.2803 38.1735 48.8411C40.5484 39.6602 44.9355 34.0966 49.1247 34.0966ZM33.9401 74.966C24.7591 72.5908 19.1955 68.2039 19.1955 64.0256C19.1955 59.8365 24.7591 55.4493 33.9401 53.0742C33.3793 56.4937 33.0826 60.1662 33.0826 64.0256C33.0826 67.8741 33.3793 71.5575 33.9401 74.966ZM20.306 55.9223C23.1319 45.9165 31.0153 38.0328 41.0211 35.2181C38.2394 38.5166 36.0072 43.4866 34.6328 49.534C28.5854 50.9084 23.6157 53.1403 20.306 55.9223ZM36.3812 64.0256C36.3812 59.7594 36.7549 55.8231 37.4038 52.3048C40.9223 51.6561 44.8585 51.2821 49.1247 51.2821C53.3909 51.2821 57.3162 51.6561 60.8347 52.3048C61.4834 55.8233 61.8682 59.7486 61.8682 64.0256C61.8682 68.2918 61.4834 72.2171 60.8347 75.7356C57.3162 76.3843 53.3909 76.7691 49.1247 76.7691C44.8585 76.7691 40.9223 76.3843 37.4038 75.7356C36.7549 72.2173 36.3812 68.2918 36.3812 64.0256ZM49.1686 93.944H49.0477C44.8916 93.8889 40.5373 88.3364 38.1735 79.1993C41.593 79.7601 45.2655 80.0679 49.1247 80.0679C52.973 80.0679 56.6566 79.7601 60.065 79.1993C57.701 88.3473 53.3358 93.8998 49.1686 93.944ZM57.2281 92.8223C59.9989 89.5127 62.2311 84.5427 63.6163 78.5175C69.6418 77.132 74.6117 74.9 77.9212 72.1292C75.1066 82.1239 67.223 90.0076 57.2281 92.8223ZM79.0428 64.0807C78.9878 68.2479 73.4353 72.6019 64.2981 74.966C64.8587 71.5573 65.1668 67.8739 65.1668 64.0256C65.1668 60.1662 64.8589 56.494 64.2981 53.0742C73.4242 55.4382 78.9769 59.7814 79.0428 63.9486V64.0807ZM77.9214 55.9112C74.6117 53.1404 69.642 50.9084 63.6055 49.534C62.7257 45.6746 61.4942 42.2442 59.988 39.4183C61.4394 38.7257 62.0551 38.5717 62.275 38.5497C63.6859 39.0772 65.1339 39.4998 66.6071 39.814C72.0058 43.7174 76.0631 49.358 77.9214 55.9112ZM73.6221 18.4833C76.8876 18.4833 79.5377 21.1332 79.5377 24.3878C79.5377 27.6424 76.8878 30.2923 73.6221 30.2923C70.4885 30.2923 67.9265 27.8184 67.7507 24.7176C67.7278 24.6092 67.7168 24.4986 67.7179 24.3878V17.7905C67.7179 14.096 70.7306 11.0833 74.4251 11.0833C77.2398 11.0833 79.5379 13.3814 79.5379 16.1961C79.5379 17.1087 78.8013 17.8455 77.8885 17.8455C76.9757 17.8455 76.2391 17.1089 76.2391 16.1961C76.2391 15.1956 75.4255 14.3818 74.4249 14.3818C72.5447 14.3818 71.0164 15.9103 71.0164 17.7905V19.1209C71.8078 18.725 72.6876 18.4833 73.6221 18.4833ZM86.5636 30.2921C83.155 30.2921 80.3733 27.5102 80.3733 24.1017V17.2847C80.3733 13.8652 83.155 11.0833 86.5636 11.0833C89.9831 11.0833 92.7648 13.8652 92.7648 17.2847V24.1017C92.765 27.5104 89.9831 30.2921 86.5636 30.2921ZM4.52893 82.1017C4.79437 82.1017 5.05588 82.0376 5.29126 81.9149C5.52664 81.7922 5.72893 81.6145 5.88096 81.3969C6.03299 81.1793 6.13026 80.9282 6.16452 80.665C6.19879 80.4018 6.16902 80.1342 6.07776 79.8849C4.23312 74.848 3.29834 69.5489 3.29879 64.1355C3.29879 61.3173 3.55655 58.4944 4.0655 55.7456C4.14489 55.3154 4.05025 54.8714 3.80238 54.5109C3.55452 54.1505 3.17371 53.9033 2.74363 53.8235C1.84215 53.655 0.987554 54.2502 0.821528 55.1454C0.274733 58.1108 -0.000250275 61.12 1.70918e-07 64.1355C-0.000452835 69.9369 1.00182 75.6172 2.97965 81.0188C3.09599 81.3362 3.30694 81.6102 3.584 81.8039C3.86107 81.9975 4.19089 82.1015 4.52893 82.1017ZM64.8721 110.581C65.0587 110.581 65.2438 110.549 65.4198 110.487C73.7055 107.571 81.0854 102.456 86.7607 95.6946C86.9 95.5287 87.0052 95.337 87.0704 95.1305C87.1356 94.9239 87.1595 94.7065 87.1406 94.4907C87.1218 94.2749 87.0606 94.065 86.9606 93.8728C86.8606 93.6807 86.7237 93.5101 86.5577 93.3709C86.2226 93.0898 85.7896 92.9533 85.3539 92.9914C84.9181 93.0294 84.5153 93.2389 84.234 93.5739C78.9382 99.8833 72.0534 104.656 64.3244 107.375C63.9571 107.504 63.6474 107.759 63.45 108.095C63.2527 108.43 63.1804 108.825 63.2459 109.209C63.3115 109.593 63.5107 109.941 63.8083 110.192C64.1059 110.443 64.4827 110.581 64.8721 110.581ZM89.124 89.7546C89.3102 89.8653 89.5163 89.9383 89.7307 89.9693C89.9451 90.0003 90.1635 89.9888 90.3734 89.9353C90.5834 89.8819 90.7807 89.7876 90.9541 89.6578C91.1276 89.528 91.2737 89.3653 91.3843 89.179C95.8704 81.6252 98.2412 72.9653 98.2412 64.1224L98.2408 63.9421C98.2408 63.7254 98.1981 63.5109 98.1153 63.3108C98.0324 63.1107 97.9109 62.9289 97.7577 62.7757C97.6046 62.6225 97.4227 62.501 97.2226 62.4182C97.0225 62.3353 96.808 62.2926 96.5914 62.2927C96.3747 62.2926 96.1602 62.3353 95.9601 62.4182C95.76 62.501 95.5782 62.6225 95.425 62.7757C95.2718 62.9289 95.1503 63.1107 95.0674 63.3108C94.9846 63.5109 94.9419 63.7254 94.942 63.9421L94.9424 64.1359C94.9424 72.3732 92.7311 80.4507 88.5482 87.4945C88.3249 87.8706 88.2601 88.32 88.3681 88.7438C88.476 89.1676 88.748 89.5312 89.124 89.7546ZM31.8318 110.126C37.3531 112.203 43.1697 113.256 49.1204 113.256C51.9933 113.257 54.8609 113.007 57.6906 112.511C58.1213 112.435 58.5043 112.191 58.7552 111.833C59.0062 111.474 59.1047 111.031 59.029 110.6C58.8711 109.704 58.0185 109.106 57.1182 109.262C54.4774 109.725 51.8014 109.958 49.1204 109.958C43.5674 109.958 38.1418 108.976 32.9936 107.039C32.7909 106.962 32.5751 106.927 32.3586 106.934C32.1421 106.941 31.9292 106.99 31.7319 107.08C31.5346 107.169 31.3568 107.297 31.2088 107.455C31.0608 107.613 30.9454 107.799 30.8692 108.001C30.7929 108.204 30.7573 108.42 30.7643 108.636C30.7714 108.853 30.8211 109.066 30.9105 109.263C30.9999 109.46 31.1272 109.638 31.2853 109.786C31.4434 109.934 31.6291 110.05 31.8318 110.126ZM6.9541 86.0204C6.76555 86.127 6.59985 86.2697 6.46645 86.4403C6.33306 86.611 6.23458 86.8062 6.17665 87.0149C6.11873 87.2236 6.10248 87.4417 6.12885 87.6566C6.15521 87.8716 6.22367 88.0793 6.33031 88.2678C10.667 95.9362 16.9777 102.304 24.6068 106.709C24.7944 106.817 25.0015 106.888 25.2163 106.916C25.4311 106.944 25.6493 106.93 25.8585 106.874C26.0678 106.818 26.2639 106.721 26.4358 106.589C26.6076 106.457 26.7518 106.293 26.8601 106.105C27.0787 105.726 27.1379 105.276 27.0246 104.853C26.9113 104.431 26.6349 104.071 26.256 103.852C19.1369 99.7415 13.2482 93.7999 9.20146 86.6445C8.75253 85.8508 7.74641 85.5706 6.9541 86.0204ZM12.3884 71.5591C12.2069 70.6663 11.3376 70.0918 10.4432 70.2721C10.2309 70.3153 10.0292 70.3999 9.84968 70.521C9.67013 70.6422 9.51619 70.7975 9.39668 70.9781C9.27716 71.1588 9.19441 71.3612 9.15314 71.5738C9.11187 71.7864 9.1129 72.0051 9.15616 72.2173C9.38951 73.3619 9.67199 74.4959 10.0028 75.6162C10.1036 75.9576 10.312 76.2572 10.5969 76.4703C10.8819 76.6835 11.2282 76.7988 11.584 76.7991C11.7388 76.7991 11.8959 76.7771 12.0518 76.7309C12.2595 76.6696 12.4531 76.5679 12.6216 76.4318C12.79 76.2956 12.93 76.1277 13.0335 75.9374C13.137 75.7472 13.202 75.5384 13.2248 75.323C13.2476 75.1076 13.2278 74.8899 13.1664 74.6822C12.8625 73.6528 12.6029 72.6108 12.3884 71.5591Z" fill="black"/>
<path d="M16.1567 44.5203C16.4336 44.5207 16.7062 44.4513 16.9492 44.3186C17.1923 44.1858 17.3979 43.9939 17.5472 43.7606C18.1269 42.8559 18.7447 41.9762 19.3989 41.1239C19.5309 40.9522 19.6277 40.7562 19.6839 40.547C19.7401 40.3378 19.7546 40.1196 19.7264 39.9049C19.6982 39.6901 19.628 39.483 19.5198 39.2954C19.4115 39.1078 19.2674 38.9434 19.0956 38.8115C18.9239 38.6795 18.7278 38.5827 18.5187 38.5265C18.3095 38.4703 18.0913 38.4559 17.8766 38.484C17.6618 38.5122 17.4547 38.5824 17.2671 38.6906C17.0795 38.7989 16.9151 38.943 16.7832 39.1148C16.0716 40.0413 15.3997 40.9976 14.7694 41.9812C14.6098 42.2303 14.5201 42.5178 14.5098 42.8135C14.4995 43.1092 14.5689 43.4022 14.7108 43.6618C14.8527 43.9214 15.0617 44.1381 15.3161 44.2892C15.5705 44.4402 15.8609 44.5201 16.1567 44.5203ZM13.7734 80.9423C13.5821 81.0437 13.4126 81.1819 13.2747 81.3489C13.1368 81.5159 13.0331 81.7084 12.9697 81.9155C12.9062 82.1226 12.8842 82.3401 12.9048 82.5557C12.9255 82.7713 12.9884 82.9807 13.0901 83.172C13.6377 84.2035 14.2294 85.2111 14.8634 86.1919C15.013 86.4235 15.2183 86.6139 15.4606 86.7456C15.7029 86.8773 15.9743 86.9461 16.25 86.9457C16.5465 86.9455 16.8373 86.8653 17.0921 86.7137C17.3468 86.5621 17.556 86.3447 17.6976 86.0842C17.8392 85.8238 17.908 85.5301 17.8967 85.2338C17.8855 84.9376 17.7946 84.6499 17.6337 84.401C17.051 83.4995 16.5069 82.5737 16.0031 81.6258C15.9019 81.4343 15.7638 81.2646 15.5969 81.1265C15.4299 80.9884 15.2374 80.8846 15.0302 80.8211C14.8231 80.7576 14.6054 80.7356 14.3898 80.7564C14.1741 80.7772 13.9646 80.8404 13.7734 80.9423ZM32.9793 101.406C33.2959 101.406 33.6059 101.315 33.8722 101.144C34.1385 100.973 34.3498 100.729 34.481 100.441C34.5709 100.243 34.621 100.031 34.6286 99.8142C34.6362 99.5978 34.6011 99.382 34.5253 99.1791C34.4495 98.9762 34.3344 98.7903 34.1867 98.6319C34.039 98.4735 33.8616 98.3457 33.6645 98.2559C32.6872 97.8101 31.7294 97.3226 30.7938 96.795C30.0004 96.3467 28.9947 96.6281 28.5469 97.4215C28.3321 97.8026 28.2775 98.2533 28.395 98.6746C28.5124 99.096 28.7924 99.4534 29.1734 99.6684C30.1913 100.242 31.2333 100.772 32.2964 101.257C32.5106 101.355 32.7436 101.406 32.9793 101.406ZM23.579 95.3723C24.0413 95.3723 24.5009 95.1791 24.8272 94.8015C24.9689 94.6377 25.077 94.4476 25.1451 94.242C25.2133 94.0364 25.2403 93.8194 25.2246 93.6034C25.2089 93.3874 25.1508 93.1765 25.0536 92.983C24.9564 92.7894 24.822 92.6169 24.658 92.4753C23.8456 91.7729 23.0634 91.0361 22.3135 90.2672C22.0072 89.9586 21.5914 89.7835 21.1566 89.7799C20.7219 89.7763 20.3032 89.9445 19.9919 90.248C19.6805 90.5514 19.5015 90.9655 19.4939 91.4003C19.4862 91.835 19.6505 92.2551 19.9511 92.5693C20.7663 93.4058 21.617 94.207 22.5008 94.9707C22.8001 95.23 23.183 95.3726 23.579 95.3723ZM23.4551 36.0622C23.8399 36.0622 24.2261 35.9286 24.5385 35.6559C25.348 34.9504 26.1869 34.2794 27.0531 33.6448C27.4061 33.3865 27.642 32.9985 27.7089 32.5663C27.7759 32.134 27.6684 31.6929 27.4101 31.3399C27.1518 30.9869 26.7638 30.751 26.3315 30.684C25.8993 30.6171 25.4582 30.7246 25.1052 30.9829C24.1629 31.6729 23.2505 32.4027 22.3704 33.1703C22.1172 33.3909 21.9374 33.6837 21.8551 34.0093C21.7728 34.3349 21.7919 34.6779 21.9099 34.9924C22.0278 35.3069 22.239 35.5778 22.5152 35.769C22.7913 35.9602 23.1192 36.0625 23.4551 36.0622ZM13.2088 48.3165C13.0068 48.2383 12.7914 48.2007 12.5748 48.2058C12.3583 48.2109 12.1449 48.2586 11.9468 48.3462C11.7487 48.4338 11.5698 48.5596 11.4204 48.7164C11.2709 48.8732 11.1538 49.0578 11.0758 49.2599C10.6542 50.3496 10.2799 51.4569 9.95369 52.5789C9.88223 52.8247 9.86897 53.0838 9.91494 53.3356C9.96092 53.5874 10.0649 53.8251 10.2186 54.0298C10.3723 54.2346 10.5716 54.4007 10.8006 54.5151C11.0296 54.6295 11.2821 54.689 11.5381 54.689C11.8952 54.6887 12.2426 54.5725 12.5281 54.358C12.8136 54.1434 13.0217 53.8421 13.1213 53.4991C13.4187 52.4753 13.7655 51.4493 14.1522 50.4497C14.2303 50.2477 14.2679 50.0323 14.2628 49.8158C14.2577 49.5992 14.2099 49.3858 14.1223 49.1877C14.0347 48.9896 13.909 48.8107 13.7522 48.6612C13.5955 48.5118 13.4108 48.3946 13.2088 48.3165ZM88.4572 52.3281C88.3266 51.9158 88.0394 51.5713 87.6573 51.3688C87.2752 51.1662 86.8288 51.1219 86.4143 51.2452C85.9999 51.3685 85.6504 51.6497 85.4412 52.0282C85.232 52.4067 85.1798 52.8522 85.2959 53.2688C85.6003 54.2926 85.8644 55.3426 86.0803 56.3902C86.1569 56.7618 86.3592 57.0956 86.6532 57.3354C86.9471 57.5753 87.3147 57.7066 87.6941 57.7071C87.9391 57.7073 88.1811 57.6529 88.4024 57.5478C88.6238 57.4428 88.819 57.2898 88.9738 57.1C89.1287 56.9101 89.2393 56.6881 89.2977 56.4502C89.3561 56.2122 89.3607 55.9643 89.3113 55.7243C89.0754 54.5805 88.7904 53.4474 88.4572 52.3281ZM83.5754 41.7633C83.0798 41.0005 82.0598 40.7835 81.2936 41.2779C80.9267 41.5162 80.6694 41.8904 80.5784 42.3183C80.4874 42.7462 80.57 43.1928 80.8082 43.5597C81.3928 44.4602 81.9387 45.3852 82.4447 46.3321C82.5466 46.5233 82.6853 46.6924 82.8526 46.83C83.02 46.9675 83.2128 47.0707 83.4201 47.1337C83.6274 47.1966 83.8451 47.2182 84.0606 47.197C84.2762 47.1758 84.4856 47.1124 84.6766 47.0103C85.0624 46.8042 85.3506 46.4533 85.4778 46.0348C85.605 45.6163 85.5607 45.1644 85.3548 44.7785C84.8042 43.7489 84.2106 42.743 83.5754 41.7633ZM8.47282 60.6036C8.37962 61.738 8.33285 62.8757 8.33261 64.0139V64.097C8.33261 65.008 9.07078 65.7045 9.98201 65.7045C10.893 65.7045 11.6314 64.9249 11.6314 64.0139C11.6314 62.9697 11.6749 61.9135 11.7607 60.8752C11.7966 60.4392 11.658 60.0068 11.3752 59.6731C11.0924 59.3393 10.6886 59.1315 10.2527 59.0953C9.33398 59.0138 8.54801 59.6963 8.47282 60.6036ZM80.8947 84.3346C80.313 85.2377 79.6932 86.1157 79.0371 86.9663C78.8488 87.2103 78.7325 87.5021 78.7016 87.8087C78.6707 88.1153 78.7263 88.4245 78.8621 88.7011C78.9979 88.9778 79.2086 89.2108 79.4701 89.3738C79.7316 89.5368 80.0336 89.6233 80.3418 89.6234C80.5942 89.6238 80.8433 89.5662 81.0699 89.4549C81.2964 89.3437 81.4944 89.1819 81.6485 88.982C82.3619 88.0571 83.0357 87.1023 83.6682 86.1203C83.905 85.7525 83.986 85.3058 83.8934 84.8782C83.8008 84.4507 83.5421 84.0775 83.1743 83.8407C82.8065 83.6039 82.3597 83.5229 81.9322 83.6155C81.5047 83.7081 81.1315 83.9668 80.8947 84.3346ZM88.2232 69.0144C88.439 69.0326 88.6563 69.0081 88.8627 68.9423C89.069 68.8765 89.2604 68.7707 89.4258 68.631C89.5913 68.4913 89.7276 68.3203 89.827 68.1279C89.9264 67.9354 89.9869 67.7253 90.0051 67.5095C90.1027 66.3541 90.1521 65.1779 90.1521 63.9978L90.1517 63.8469C90.1517 63.6303 90.109 63.4158 90.0262 63.2157C89.9433 63.0156 89.8218 62.8337 89.6686 62.6806C89.5155 62.5274 89.3336 62.4059 89.1335 62.323C88.9334 62.2401 88.7189 62.1975 88.5023 62.1975C88.2856 62.1975 88.0712 62.2401 87.871 62.323C87.6709 62.4059 87.4891 62.5274 87.3359 62.6806C87.1827 62.8337 87.0612 63.0156 86.9784 63.2157C86.8955 63.4158 86.8528 63.6303 86.8529 63.8469L86.8533 64.0139C86.8532 65.0882 86.8081 66.162 86.7181 67.2325C86.6814 67.6684 86.8194 68.101 87.1016 68.4351C87.3839 68.7693 87.7873 68.9776 88.2232 69.0144ZM72.339 97.4124C72.6876 97.4127 73.0272 97.3019 73.3087 97.0962C74.2522 96.4082 75.1663 95.6807 76.0484 94.9155C76.3787 94.6287 76.5816 94.2224 76.6124 93.786C76.6432 93.3497 76.4994 92.919 76.2126 92.5886C76.0707 92.425 75.8979 92.2909 75.7041 92.1941C75.5103 92.0973 75.2993 92.0396 75.0832 92.0244C74.8672 92.0091 74.6502 92.0366 74.4447 92.1052C74.2393 92.1739 74.0493 92.2823 73.8858 92.4244C73.0747 93.1283 72.234 93.7975 71.3662 94.4301C71.0847 94.6352 70.8754 94.9241 70.7683 95.2554C70.6611 95.5867 70.6615 95.9435 70.7695 96.2745C70.8775 96.6056 71.0875 96.894 71.3694 97.0984C71.6514 97.3028 71.9908 97.4127 72.339 97.4124ZM88.5066 75.5325C88.6296 75.1127 88.5808 74.6612 88.371 74.2774C88.1611 73.8936 87.8074 73.6088 87.3876 73.4858C86.5142 73.2276 85.5971 73.7306 85.341 74.6047C85.039 75.6347 84.6927 76.6512 84.3031 77.6514C84.2058 77.9014 84.171 78.1713 84.2015 78.4378C84.2321 78.7043 84.3272 78.9594 84.4785 79.1808C84.6299 79.4023 84.8329 79.5835 85.0701 79.7088C85.3073 79.8341 85.5715 79.8997 85.8397 79.8999C86.1721 79.8998 86.4966 79.7994 86.771 79.6119C87.0453 79.4243 87.2567 79.1583 87.3774 78.8487C87.8009 77.7599 88.1777 76.6535 88.5066 75.5325ZM43.4698 104.519C43.903 104.58 44.3427 104.467 44.6923 104.204C45.0419 103.941 45.2727 103.55 45.3339 103.116C45.3952 102.683 45.2818 102.244 45.0189 101.894C44.7559 101.544 44.3648 101.314 43.9317 101.252C42.8686 101.102 41.8125 100.906 40.7663 100.665C40.34 100.568 39.8923 100.643 39.5216 100.875C39.1509 101.107 38.8874 101.477 38.7889 101.903C38.6909 102.329 38.7662 102.777 38.9983 103.148C39.2304 103.519 39.6002 103.782 40.0265 103.88C41.1647 104.142 42.3135 104.355 43.4698 104.519ZM32.8294 29.9906C33.0674 29.9904 33.3026 29.9386 33.5186 29.8386C34.4933 29.3896 35.4868 28.9824 36.4962 28.6182C36.9077 28.4697 37.2433 28.1638 37.4293 27.7678C37.6153 27.3719 37.6363 26.9183 37.4879 26.5068C37.178 25.6504 36.2317 25.2048 35.3764 25.5151C34.2786 25.9117 33.1981 26.3547 32.1379 26.8429C31.7965 27.0005 31.5192 27.2701 31.3519 27.6069C31.1846 27.9437 31.1374 28.3275 31.2181 28.6948C31.2988 29.062 31.5025 29.3907 31.7956 29.6264C32.0886 29.8621 32.4533 29.9906 32.8294 29.9906ZM51.6214 104.855C52.7866 104.788 53.9484 104.671 55.1037 104.506C55.3181 104.475 55.5244 104.402 55.7107 104.292C55.897 104.182 56.0598 104.035 56.1897 103.862C56.3195 103.689 56.414 103.492 56.4677 103.282C56.5213 103.072 56.5331 102.853 56.5023 102.639C56.373 101.737 55.5402 101.115 54.6355 101.24C53.58 101.392 52.5025 101.5 51.4314 101.561C51.2151 101.574 51.0035 101.629 50.8084 101.723C50.6134 101.817 50.4389 101.949 50.2948 102.111C50.1507 102.273 50.0398 102.461 49.9686 102.666C49.8974 102.87 49.8671 103.087 49.8796 103.303C49.8921 103.519 49.9471 103.731 50.0413 103.926C50.1356 104.121 50.2674 104.296 50.4291 104.44C50.5909 104.584 50.7794 104.695 50.984 104.766C51.1886 104.837 51.4052 104.867 51.6214 104.855ZM67.0803 99.0349C66.8978 98.6374 66.565 98.3285 66.155 98.1762C65.745 98.0239 65.2913 98.0406 64.8936 98.2226C63.9182 98.6696 62.924 99.0746 61.914 99.4365C61.71 99.5094 61.5225 99.6218 61.362 99.7672C61.2016 99.9127 61.0713 100.088 60.9787 100.284C60.8861 100.48 60.833 100.692 60.8224 100.908C60.8118 101.125 60.8439 101.341 60.9169 101.545C61.0313 101.865 61.2419 102.142 61.5199 102.338C61.7978 102.534 62.1295 102.639 62.4696 102.639C62.6542 102.639 62.8417 102.608 63.0252 102.542C64.1245 102.148 65.2064 101.708 66.268 101.222C66.4649 101.131 66.6422 101.003 66.7895 100.844C66.9369 100.686 67.0516 100.499 67.127 100.296C67.2025 100.093 67.2371 99.8775 67.2291 99.661C67.2211 99.4445 67.1705 99.2318 67.0803 99.0349ZM76.2391 24.3878C76.2391 25.8282 75.0627 26.9937 73.6224 26.9937C72.1929 26.9937 71.0164 25.8282 71.0164 24.3878C71.0164 22.9584 72.1929 21.7819 73.6224 21.7819C75.0625 21.7819 76.2391 22.9584 76.2391 24.3878ZM89.4665 17.2847V24.1018C89.4665 25.6961 88.1691 26.9935 86.5638 26.9935C84.9695 26.9935 83.6721 25.6961 83.6721 24.1018V17.2847C83.6721 15.6903 84.9695 14.3818 86.5638 14.3818C88.1688 14.382 89.4665 15.6903 89.4665 17.2847Z" fill="black"/>
</svg>
