<svg width="100" height="101" viewBox="0 0 100 101" fill="none" xmlns="http://www.w3.org/2000/svg">
<path d="M87.295 62.0813C88.5558 58.1899 89.196 54.1314 89.196 49.9958C89.196 45.8755 88.5604 41.8316 87.3073 37.9525C90.063 36.9177 92.5686 35.2608 94.6489 33.0576C98.244 29.2518 100.141 24.2729 99.9918 19.04C99.6819 8.23612 90.6415 -0.29989 79.8361 0.00840082C74.6022 0.158053 69.741 2.33679 66.1457 6.14334C64.3301 8.06576 62.9489 10.2873 62.0445 12.6897C58.1645 11.4374 54.1208 10.8017 49.9989 10.8017C45.8747 10.8017 41.8279 11.439 37.9457 12.6929C35.1457 5.28333 27.9796 0 19.6016 0C8.79312 0 0 8.79312 0 19.6009C0 27.978 5.28411 35.1434 12.6936 37.9426C11.439 41.8255 10.8025 45.8726 10.8025 49.9958C10.8025 54.1314 11.4427 58.1899 12.7034 62.0813C5.28861 64.8781 0 72.0464 0 80.4275C0 83.3777 0.639439 86.2145 1.90093 88.858C1.98378 89.0317 2.10003 89.1874 2.24306 89.3162C2.38609 89.4449 2.55308 89.5443 2.7345 89.6085C2.91593 89.6727 3.10823 89.7006 3.30041 89.6905C3.4926 89.6804 3.68092 89.6325 3.85461 89.5496C4.20518 89.382 4.47491 89.0821 4.60458 88.7158C4.73424 88.3495 4.71325 87.9467 4.54621 87.5959C3.47384 85.3492 2.93052 82.9376 2.93052 80.4275C2.93052 71.236 10.4094 63.7579 19.6016 63.7579C28.7947 63.7579 36.2736 71.236 36.2736 80.4275C36.2736 89.6195 28.7947 97.0978 19.6016 97.0978C15.4091 97.0978 11.4015 95.5357 8.31837 92.6989C7.7225 92.1511 6.79509 92.19 6.24786 92.7853C6.11755 92.9269 6.01642 93.0927 5.95023 93.2734C5.88404 93.4541 5.85411 93.6461 5.86212 93.8383C5.87014 94.0306 5.91596 94.2194 5.99697 94.3939C6.07797 94.5685 6.19257 94.7253 6.33422 94.8556C9.95985 98.1915 14.6717 100.028 19.6016 100.028C27.9917 100.028 35.167 94.729 37.9578 87.3027C41.8355 88.5544 45.8786 89.1899 49.9989 89.1899C54.12 89.1899 58.1639 88.5544 62.0414 87.3034C64.8326 94.73 72.0077 100.028 80.3978 100.028C91.2063 100.028 99.9994 91.2352 99.9994 80.4275C99.9994 72.0464 94.7108 64.8774 87.295 62.0813ZM68.2766 8.15504C71.3337 4.9178 75.4692 3.06493 79.9207 2.93736C80.082 2.93279 80.2433 2.93051 80.4046 2.93052C89.3779 2.93052 96.804 10.0974 97.0619 19.1232C97.1894 23.5739 95.5761 27.8079 92.519 31.0459C89.4617 34.2831 85.3261 36.1362 80.8747 36.2636C80.7134 36.2682 80.5521 36.2704 80.3907 36.2704C71.4175 36.2704 63.9914 29.1038 63.7335 20.078C63.6051 15.6271 65.2193 11.3925 68.2766 8.15504ZM61.2195 84.489C57.6091 85.6627 53.8414 86.2594 49.9989 86.2594C46.158 86.2594 42.3903 85.6627 38.7797 84.489C39.062 83.1535 39.2042 81.7922 39.2041 80.4273C39.2041 69.6195 30.4102 60.8274 19.6016 60.8274C18.2012 60.8274 16.8352 60.9761 15.5173 61.2562C14.3336 57.6327 13.733 53.8514 13.733 49.9958C13.733 46.1525 14.3306 42.3833 15.5065 38.769C16.8526 39.0566 18.2252 39.2013 19.6016 39.2009C22.9596 39.2009 26.2725 38.337 29.1839 36.7032C29.8891 36.3072 30.14 35.4143 29.744 34.7085C29.348 34.0026 28.4549 33.7521 27.7493 34.1482C25.2749 35.5364 22.4573 36.2704 19.6016 36.2704C10.4086 36.2704 2.93052 28.7923 2.93052 19.6001C2.93052 10.4086 10.4094 2.93052 19.6016 2.93052C28.7947 2.93052 36.2736 10.4086 36.2736 19.6009C36.2736 23.4465 34.9327 27.1981 32.4983 30.166C31.9844 30.7911 32.0763 31.7145 32.702 32.2281C33.0025 32.4744 33.3885 32.5913 33.7752 32.5531C34.1618 32.5149 34.5175 32.3247 34.7639 32.0243C37.6267 28.5344 39.2041 24.1217 39.2041 19.6001C39.2041 18.1968 39.0536 16.8268 38.7721 15.5058C42.3856 14.3296 46.1557 13.7322 49.9989 13.7322C53.8414 13.7322 57.6099 14.3291 61.2218 15.5034C60.8988 17.0342 60.7584 18.5979 60.8037 20.1618C61.1081 30.7749 69.8387 39.2017 80.39 39.2009C81.7687 39.2011 83.1438 39.0574 84.4927 38.7721C85.668 42.3849 86.2656 46.1541 86.2656 49.996C86.2656 53.8514 85.6643 57.6329 84.4814 61.2562C83.139 60.9705 81.7702 60.8268 80.3978 60.8274C69.589 60.8274 60.7961 69.6197 60.7961 80.4275C60.7961 81.8202 60.9427 83.1786 61.2195 84.489ZM80.3978 97.0978C71.2047 97.0978 63.7266 89.6197 63.7266 80.4283C63.7266 71.236 71.2047 63.7579 80.3978 63.7579C89.5906 63.7579 97.0689 71.236 97.0689 80.4283C97.0689 89.6197 89.5906 97.0978 80.3978 97.0978Z" fill="black"/>
<path d="M29.5791 10.9513C29.3325 10.7835 29.0406 10.695 28.7423 10.6976C28.444 10.7002 28.1537 10.7937 27.9101 10.9658C27.4125 11.3166 26.8775 11.6112 26.3151 11.8442C24.302 10.2689 21.3844 10.2873 19.3858 12.0251C18.3548 12.9202 17.6982 14.1704 17.5464 15.5272C16.4733 15.3676 15.444 14.991 14.5213 14.4205C13.5985 13.85 12.8016 13.0975 12.1792 12.2089C12.03 11.9971 11.8273 11.8285 11.5918 11.7203C11.3563 11.6121 11.0964 11.5683 10.8384 11.5931C10.5803 11.6181 10.3334 11.7112 10.123 11.8629C9.91257 12.0145 9.74619 12.2193 9.64082 12.4563C9.59901 12.5508 8.61299 14.8036 8.7388 17.561C8.83512 19.671 9.58983 22.3909 12.3426 24.4911C11.3483 24.813 10.3051 24.9572 9.26083 24.917C8.93166 24.9043 8.6078 25.0028 8.34149 25.1967C8.07519 25.3906 7.88196 25.6686 7.793 25.9857C7.70403 26.3029 7.72451 26.6408 7.85112 26.9449C7.97774 27.249 8.20311 27.5016 8.49088 27.6619C10.7896 28.9389 13.2522 29.5785 15.6583 29.5785C17.9699 29.5785 20.229 28.9877 22.2391 27.8055C24.7597 26.3227 26.5913 24.0525 27.5857 21.2799C27.617 21.2095 27.643 21.1365 27.6637 21.0608C28.175 19.5551 28.4428 17.9059 28.4428 16.1567C28.4428 16.0805 28.4405 16.0034 28.4375 15.927C29.2758 14.9387 29.8721 13.7686 30.1791 12.5096C30.2493 12.2197 30.2296 11.9152 30.1224 11.6368C30.0153 11.3584 29.8258 11.1193 29.5793 10.9513H29.5791ZM25.4672 15.6996C25.4963 15.8523 25.5115 16.0102 25.5115 16.1614C25.5115 17.5976 25.2978 18.9278 24.891 20.1297C24.8688 20.1855 24.8502 20.2426 24.8354 20.3007C24.0746 22.43 22.6894 24.1402 20.7533 25.2796C18.9814 26.3229 16.9476 26.767 14.8747 26.6165C15.3497 26.3814 15.8081 26.1143 16.2468 25.8169C16.4629 25.67 16.6358 25.468 16.7477 25.2319C16.8596 24.9957 16.9064 24.734 16.8833 24.4737C16.8601 24.2134 16.7677 23.964 16.6156 23.7515C16.4636 23.5389 16.2574 23.3709 16.0186 23.2648C13.2827 22.049 11.8198 20.1153 11.6709 17.5182C11.6437 17.0143 11.6616 16.5088 11.7244 16.008C13.7398 17.6921 16.3216 18.6111 19.0163 18.5416C19.3983 18.5318 19.7614 18.3733 20.0281 18.0997C20.2949 17.8261 20.4442 17.4592 20.4443 17.0771V16.1683C20.4389 15.8027 20.5134 15.4405 20.6628 15.1068C20.8121 14.7731 21.0326 14.4761 21.3088 14.2366C22.3559 13.3262 23.9478 13.4368 24.8582 14.484C25.0371 14.6894 25.2697 14.8408 25.5299 14.9212C25.4393 15.1703 25.4177 15.4392 25.4674 15.6996H25.4672ZM75.5761 20.7563H77.6534V29.4937C77.6534 29.8823 77.8078 30.255 78.0826 30.5298C78.3574 30.8046 78.7301 30.959 79.1187 30.959C79.5073 30.959 79.88 30.8046 80.1548 30.5298C80.4296 30.255 80.5839 29.8823 80.5839 29.4937V20.7563H82.8467C83.6555 20.7563 84.312 20.0998 84.312 19.291C84.312 18.4822 83.6555 17.8257 82.8467 17.8257H80.5839V13.7262C80.5839 12.3189 81.7294 11.1733 83.1374 11.1733H85.0344C85.8436 11.1733 86.4997 10.517 86.4997 9.70802C86.4997 9.31941 86.3453 8.94672 86.0705 8.67193C85.7957 8.39714 85.423 8.24276 85.0344 8.24276H83.1374C80.1137 8.24276 77.6534 10.7024 77.6534 13.7262V17.8257H75.5761C74.7673 17.8257 74.1108 18.4822 74.1108 19.291C74.1108 20.0998 74.7673 20.7563 75.5761 20.7563ZM16.2773 88.0054C16.6262 88.0054 16.9747 87.9155 17.2854 87.7362L27.2591 81.9752C27.5653 81.7978 27.8195 81.5432 27.9964 81.2368C28.1734 80.9303 28.2667 80.5828 28.2672 80.229C28.2672 79.5116 27.8811 78.8424 27.2591 78.4837L17.2856 72.7225C16.9791 72.5459 16.6315 72.4529 16.2778 72.4529C15.924 72.4529 15.5765 72.5459 15.27 72.7225C14.9637 72.8998 14.7093 73.1544 14.5322 73.4609C14.3552 73.7673 14.2617 74.1148 14.2611 74.4687V85.9902C14.2611 86.7081 14.6479 87.3775 15.27 87.7362C15.5761 87.9132 15.9236 88.0062 16.2773 88.0056V88.0054ZM17.1916 76.053L24.4233 80.2299L17.1916 84.4065V76.053ZM86.7648 70.0501H74.0307C71.8192 70.0501 70.0194 71.8494 70.0194 74.062V86.7937C70.0194 89.0061 71.819 90.8056 74.0307 90.8056H86.7648C88.9764 90.8056 90.7757 89.0061 90.7757 86.7937V74.062C90.7757 71.8496 88.9764 70.0501 86.7648 70.0501ZM87.8452 86.7937C87.8451 87.0803 87.7313 87.3552 87.5287 87.5579C87.3261 87.7606 87.0514 87.8747 86.7648 87.8751H74.0307C73.7441 87.8748 73.4692 87.7608 73.2666 87.558C73.0639 87.3553 72.9501 87.0804 72.95 86.7937V74.062C72.9502 73.7754 73.0641 73.5006 73.2668 73.2978C73.4694 73.0951 73.7441 72.981 74.0307 72.9806H86.7648C87.0513 72.9811 87.326 73.0953 87.5285 73.298C87.731 73.5007 87.8449 73.7754 87.8452 74.062V86.7937Z" fill="black"/>
<path d="M80.3978 75.9989C77.9557 75.9989 75.9685 77.9862 75.9685 80.4283C75.9685 82.8704 77.9557 84.8569 80.3978 84.8569C82.8399 84.8569 84.827 82.8704 84.827 80.4283C84.827 77.9862 82.8399 75.9989 80.3978 75.9989ZM80.3978 81.9264C79.5714 81.9264 78.899 81.2539 78.899 80.4283C78.899 79.6019 79.5712 78.9295 80.3978 78.9295C81.2244 78.9295 81.8965 79.6017 81.8965 80.4283C81.8965 81.2539 81.2242 81.9264 80.3978 81.9264ZM60.6038 34.7939C60.2151 34.7939 59.8424 34.9483 59.5677 35.2231C59.2929 35.4979 59.1385 35.8706 59.1385 36.2592V36.9162C57.0718 38.1347 54.9083 39.1809 52.6699 40.0444C50.8758 40.7343 49.0383 41.3051 47.1691 41.7531C46.8734 41.5239 46.5099 41.3993 46.1358 41.3989H39.4269C37.8061 41.3989 36.4881 42.7176 36.4881 44.3378V52.0328C36.4881 53.6537 37.8061 54.9717 39.4271 54.9717H40.7679L41.276 64.7416C41.286 64.9338 41.3338 65.1221 41.4166 65.2957C41.4994 65.4694 41.6156 65.625 41.7586 65.7538C41.9015 65.8825 42.0685 65.9819 42.2498 66.0461C42.4312 66.1104 42.6234 66.1382 42.8155 66.1282C43.2035 66.108 43.5677 65.9345 43.8278 65.6459C44.0879 65.3572 44.2227 64.9771 44.2026 64.5891L43.7021 54.9717H46.1358C46.5244 54.9717 46.8821 54.8388 47.1685 54.6183C48.358 54.905 49.535 55.2414 50.6965 55.6264C50.8791 55.687 51.0719 55.711 51.2638 55.6971C51.4558 55.6831 51.6431 55.6315 51.815 55.5452C51.987 55.4589 52.1403 55.3396 52.2662 55.194C52.3921 55.0485 52.4881 54.8796 52.5486 54.6969C52.6092 54.5143 52.6333 54.3215 52.6193 54.1295C52.6054 53.9376 52.5538 53.7503 52.4675 53.5783C52.3812 53.4063 52.2619 53.253 52.1163 53.1271C51.9707 53.0013 51.8018 52.9053 51.6192 52.8447C50.3718 52.4311 49.1077 52.0701 47.83 51.7626V44.6096C49.8326 44.1298 51.8012 43.5182 53.7231 42.7788C55.5793 42.063 57.388 41.2293 59.1379 40.283V56.091C58.4956 55.744 57.8453 55.4122 57.1874 55.0959C57.014 55.0124 56.8259 54.9639 56.6338 54.9532C56.4416 54.9424 56.2493 54.9697 56.0677 55.0333C55.8861 55.097 55.7188 55.1958 55.5754 55.3241C55.4321 55.4525 55.3154 55.6078 55.2321 55.7813C55.1487 55.9547 55.1002 56.1429 55.0895 56.335C55.0788 56.5272 55.106 56.7196 55.1697 56.9012C55.2333 57.0828 55.3321 57.2501 55.4604 57.3935C55.5887 57.537 55.744 57.6537 55.9175 57.7371C57.0141 58.2661 58.0885 58.84 59.1379 59.4573V60.1114C59.1379 60.5 59.2923 60.8727 59.5671 61.1475C59.8419 61.4223 60.2146 61.5767 60.6032 61.5767C60.9918 61.5767 61.3645 61.4223 61.6393 61.1475C61.9141 60.8727 62.0684 60.5 62.0684 60.1114V36.259C62.0685 36.0666 62.0307 35.8761 61.9572 35.6983C61.8836 35.5205 61.7758 35.359 61.6398 35.2229C61.5038 35.0869 61.3423 34.9789 61.1646 34.9053C60.9868 34.8316 60.7963 34.7937 60.604 34.7937L60.6038 34.7939ZM44.9003 52.0404L39.4187 52.0328L39.4271 44.3294H44.9003V52.0404Z" fill="black"/>
</svg>
